<svg id="Layer_1" data-name="Layer 1" xmlns="http://www.w3.org/2000/svg" xmlns:xlink="http://www.w3.org/1999/xlink" viewBox="0 0 512 512"><defs><style>.cls-1,.cls-10,.cls-11,.cls-12,.cls-13,.cls-14,.cls-15,.cls-16,.cls-17,.cls-18,.cls-19,.cls-20,.cls-21,.cls-22,.cls-23,.cls-24,.cls-25,.cls-26,.cls-27,.cls-3,.cls-6,.cls-7,.cls-8,.cls-9{fill:none;stroke-miterlimit:10;}.cls-1{stroke:#253b76;}.cls-1,.cls-10,.cls-11,.cls-12,.cls-13,.cls-14,.cls-15,.cls-16,.cls-17,.cls-18,.cls-19,.cls-2,.cls-20,.cls-21,.cls-22,.cls-23,.cls-24,.cls-25,.cls-26,.cls-27,.cls-3,.cls-4,.cls-6,.cls-7,.cls-8,.cls-9{fill-rule:evenodd;}.cls-1,.cls-2,.cls-3,.cls-4,.cls-5{opacity:0.45;}.cls-2{fill:#80a6c7;}.cls-3{stroke:url(#radial-gradient);}.cls-4{fill:#fff;}.cls-6{stroke:#80a6c7;opacity:0.41;}.cls-7{stroke:url(#radial-gradient-2);}.cls-8{stroke:url(#radial-gradient-3);}.cls-9{stroke:url(#radial-gradient-4);}.cls-10{stroke:url(#radial-gradient-5);}.cls-11{stroke:url(#radial-gradient-6);}.cls-12{stroke:url(#radial-gradient-7);}.cls-13{stroke:url(#radial-gradient-8);}.cls-14{stroke:url(#radial-gradient-9);}.cls-15{stroke:url(#radial-gradient-10);}.cls-16{stroke:url(#radial-gradient-11);}.cls-17{stroke:url(#radial-gradient-12);}.cls-18{stroke:url(#radial-gradient-13);}.cls-19{stroke:url(#radial-gradient-14);}.cls-20{stroke:url(#radial-gradient-15);}.cls-21{stroke:url(#radial-gradient-16);}.cls-22{stroke:url(#radial-gradient-17);}.cls-23{stroke:url(#radial-gradient-18);}.cls-24{stroke:url(#radial-gradient-19);}.cls-25{stroke:url(#radial-gradient-20);}.cls-26{stroke:url(#radial-gradient-21);}.cls-27{stroke:url(#radial-gradient-22);}</style><radialGradient id="radial-gradient" cx="255.99" cy="255.99" r="148.77" gradientUnits="userSpaceOnUse"><stop offset="0.26" stop-color="#235184"/><stop offset="0.69" stop-color="#214f83"/><stop offset="0.86" stop-color="#22487f"/><stop offset="0.98" stop-color="#263c77"/><stop offset="0.99" stop-color="#253b76"/></radialGradient><radialGradient id="radial-gradient-2" cx="180.93" cy="80.05" r="26.06" xlink:href="#radial-gradient"/><radialGradient id="radial-gradient-3" cx="65.78" cy="269.52" r="20.68" xlink:href="#radial-gradient"/><radialGradient id="radial-gradient-4" cx="135.85" cy="101.35" r="25.23" xlink:href="#radial-gradient"/><radialGradient id="radial-gradient-5" cx="435" cy="197.18" r="22.35" xlink:href="#radial-gradient"/><radialGradient id="radial-gradient-6" cx="299.68" cy="70.87" r="21.38" xlink:href="#radial-gradient"/><radialGradient id="radial-gradient-7" cx="373.67" cy="107.54" r="21.76" xlink:href="#radial-gradient"/><radialGradient id="radial-gradient-8" cx="442.89" cy="236.14" r="18.89" xlink:href="#radial-gradient"/><radialGradient id="radial-gradient-9" cx="80.61" cy="182.3" r="23.63" xlink:href="#radial-gradient"/><radialGradient id="radial-gradient-10" cx="258.04" cy="65.43" r="21.36" xlink:href="#radial-gradient"/><radialGradient id="radial-gradient-11" cx="420.68" cy="154.93" r="23.51" xlink:href="#radial-gradient"/><radialGradient id="radial-gradient-12" cx="397.24" cy="130.07" r="19.9" xlink:href="#radial-gradient"/><radialGradient id="radial-gradient-13" cx="443.26" cy="268.56" r="16.5" xlink:href="#radial-gradient"/><radialGradient id="radial-gradient-14" cx="219.94" cy="68.86" r="17.46" xlink:href="#radial-gradient"/><radialGradient id="radial-gradient-15" cx="97.01" cy="150.97" r="19.89" xlink:href="#radial-gradient"/><radialGradient id="radial-gradient-16" cx="74.3" cy="136.36" r="3.97" xlink:href="#radial-gradient"/><radialGradient id="radial-gradient-17" cx="215.21" cy="42.01" r="3.89" xlink:href="#radial-gradient"/><radialGradient id="radial-gradient-18" cx="119.18" cy="86.84" r="3.89" xlink:href="#radial-gradient"/><radialGradient id="radial-gradient-19" cx="470.5" cy="270.38" r="3.88" xlink:href="#radial-gradient"/><radialGradient id="radial-gradient-20" cx="128.86" cy="79.39" r="3.87" xlink:href="#radial-gradient"/><radialGradient id="radial-gradient-21" cx="336.77" cy="86.12" r="24.25" xlink:href="#radial-gradient"/><radialGradient id="radial-gradient-22" cx="70.01" cy="227.38" r="22.07" xlink:href="#radial-gradient"/></defs><title>logo-transparent-stoked</title><path class="cls-1" d="M256,0C114.65,0,0,114.63,0,256S114.65,512,256,512,512,397.37,512,256,397.35,0,256,0Zm0,505.32C118.31,505.32,6.68,393.64,6.68,256S118.34,6.68,256,6.68,505.29,118.33,505.29,256,393.66,505.32,256,505.32Z"/><path class="cls-2" d="M176.67,235.6c4.33,4.92,9.9,4.8,15.64,3.79,8.36-1.46,15.95-4.92,23.31-9a111.57,111.57,0,0,0,12.64-8.1,1.25,1.25,0,0,1,1.08-.28c.32,1.34-.24,2.61-.62,3.91-.65-.9-1.21-.35-1.85.07-3.48,2.35-7,4.66-10.61,6.7-7.55,4.21-15.39,7.71-24,9.21a20.28,20.28,0,0,1-9.93-.32,9.83,9.83,0,0,1-4.62-3.11A3.46,3.46,0,0,1,176.67,235.6Z"/><path class="cls-2" d="M257,223.37c1.19.81,1.77.21,2.19-.88,1.14-3.07,3.32-5.42,5.47-7.8a.81.81,0,0,1,1-.35,2,2,0,0,1-.6,2.49,12.93,12.93,0,0,0-4.58,7.35,3.32,3.32,0,0,1-1.15,2.1C257.15,226,257.15,226,257,223.37Z"/><path class="cls-2" d="M258,175a3.12,3.12,0,0,1-.89-.35,9.05,9.05,0,0,0-5.49-1.75c-6.23-.3-11.77,1.89-17.26,4.29-9.55,4.19-18,10-26.18,16.42-1.93,1.52-3.71,3.24-5.52,4.86a104.32,104.32,0,0,0-11,11.56c-3.51,4.53-6.86,9.21-8.91,14.66-.35.91-.34,2.18-1.54,2.62-.28-2.15.72-4.05,1.49-5.87a58.19,58.19,0,0,1,9.72-15.1,122.51,122.51,0,0,1,41.47-31.58A49.61,49.61,0,0,1,246,170.7a23,23,0,0,1,6.87-.2A5.48,5.48,0,0,1,258,175Z"/><path class="cls-2" d="M214.91,273.17c-2.31.53-3.71,2.37-5.24,3.85a194.84,194.84,0,0,0-20.25,22.06,162.57,162.57,0,0,0-14.78,22.57,29.43,29.43,0,0,0-2.9,7.53c-.14.54-.1,1.16-.81,1.37-.43-1.62.23-3.11.63-4.59a46.75,46.75,0,0,1,5.31-11.62,179.08,179.08,0,0,1,30.87-38.28,42.37,42.37,0,0,1,6-5.15c.46-.28,1-.88,1.54-.49s.21,1.06.06,1.62C215.16,272.4,215,272.78,214.91,273.17Z"/><path class="cls-2" d="M355.75,192.75c.32.27.6.54.9.81,2.51,2.33,4.86,2.43,7.46.25.66,1.83.08,3.34-1.51,3.87C359.5,198.73,355.88,196.14,355.75,192.75Z"/><path class="cls-2" d="M167.31,337.8a.6.6,0,0,1,.21.14c3.37,4,6.77,4.75,11.55,2.51a35,35,0,0,0,8.83-6.23c6.8-6.23,11.93-13.77,16.76-21.54a180.12,180.12,0,0,0,19-41.05c1.16-3.66,2.25-7.37,3.24-11.12a8.21,8.21,0,0,1,2.8-4.47c5.79-5,11.71-9.8,17.65-14.62,4-3.24,7.94-6.63,11.93-9.93,1.62-1.35,1.62-1.29,3.37-.11,2.3,1.62,4.85,1.32,7.33.62a14.45,14.45,0,0,0,4.71-2.62c1.55-1.24,1.82-1.19,3.42,0a9.61,9.61,0,0,1,2.13,2.37c2.67,3.37,5.46,3.61,8.54.58a104.84,104.84,0,0,1,11-9.82,16.35,16.35,0,0,1,3.1-2c2.35-1,4.05.28,4,3-1.84-1.47-3.49-.81-5.14.39a74.39,74.39,0,0,0-11,9.45,15.53,15.53,0,0,1-3,2.54c-2.59,1.62-5.07,1.26-6.88-1.29a19.21,19.21,0,0,0-2.43-2.75c-1.41-1.32-1.83-1.27-3.35-.06-2.43,2-5.05,3.31-8.33,3.11a6.47,6.47,0,0,1-4-1.36,1.73,1.73,0,0,0-2.43,0c-2.61,1.89-4.86,4.13-7.38,6.1-3,2.37-6,4.86-8.91,7.29q-5.92,5-11.86,10c-.11.08-.21.26-.35.32-3.53,1.83-4.4,5.27-5.3,8.71a178.32,178.32,0,0,1-9,25.76A188.22,188.22,0,0,1,199.27,324a67,67,0,0,1-14.65,15.81c-3.13,2.38-6.48,4.43-10.82,4.11A6.75,6.75,0,0,1,167.31,337.8Z"/><path class="cls-2" d="M296.92,274.37a3.62,3.62,0,0,0,3.49-.46,18,18,0,0,0,3.73-3.13A146.82,146.82,0,0,0,317,254.93a31.2,31.2,0,0,0,4.58-9.66.86.86,0,0,1,.4.8c-.47,2.94-1,5.84-2.62,8.37a138.5,138.5,0,0,1-9.25,12.46c-1.75,2.05-3.69,3.94-5.34,6.1a14.46,14.46,0,0,1-4.36,3.53C298.11,277.85,297.05,277.14,296.92,274.37Z"/><path class="cls-2" d="M320.73,236.9c-.81-.6-.69-1.18-.08-1.86,1.24-1.32,2.43-2.68,3.66-4,2.6-2.71,5.27-5.39,7.92-8.1.73-.81,1.53-1.41,2.43-.28,3,3.69,7.09,4.05,11.39,3.79a10.51,10.51,0,0,0,1.48-.19c.06.49.14,1,.17,1.46,0,.81-.39,1.15-1.19,1.2-4.11.25-8,0-11-3.44-1.2-1.39-1.54-1.3-3,.1l-9.72,9.72C322.25,236,321.75,236.78,320.73,236.9Z"/><path class="cls-2" d="M298.88,230.36a56.44,56.44,0,0,1,11.34,2,13.51,13.51,0,0,1,5.1,2.9c.88.81.9,1.48-.12,2.13-2.25-2.29-5.28-2.69-8.15-3.54-2.43-.71-5.05-.14-7.4-1.22-.33-.76.42-.95.75-1.39C300.05,230.7,299.08,231.15,298.88,230.36Z"/><path class="cls-2" d="M311.72,228.93a5.68,5.68,0,0,1-2.36-1.13A19.81,19.81,0,0,1,312.6,225c2.69-2.26,5.49-4.38,8.23-6.6a21.8,21.8,0,0,0,1.68-1.78c.65,2.55.39,3-1.78,4.66-2.85,2.17-5.58,4.46-8.33,6.71A5.76,5.76,0,0,0,311.72,228.93Z"/><path class="cls-2" d="M312.63,249.23c-1.36.41-2,1.68-2.77,2.65a83.74,83.74,0,0,0-7.18,9.59,6.47,6.47,0,0,0-1.36,3.11v-.05c-.18.14-.33.29-.49.41-.76.12-1.08-.25-1-1a4.76,4.76,0,0,1,.81-2,90.71,90.71,0,0,1,10.74-14.58,1.85,1.85,0,0,1,.6-.36C312.82,247.59,312.68,248.42,312.63,249.23Z"/><path class="cls-1" d="M311.78,228.86l3.69,2a16.29,16.29,0,0,1,3,2.43c.91,0,1.14-.73,1.53-1.2,5.55-6.69,11-13.52,17.05-19.74a5.17,5.17,0,0,1,4.42-1.62,1.34,1.34,0,0,1,1.46,1.2,1.53,1.53,0,0,1,0,.37v5.16a11.7,11.7,0,0,0,.18,2.21c.42,2.06,1.37,2.57,3.33,1.85a1.21,1.21,0,0,1,1.13-.19,17,17,0,0,1,.09,4.93c-.49.07-1,.16-1.45.19-4.32.29-8.39-.1-11.4-3.79-.91-1.12-1.7-.49-2.42.27-2.63,2.71-5.29,5.39-7.9,8.1-1.26,1.29-2.43,2.68-3.65,4-.62.69-.71,1.28.09,1.87a23.38,23.38,0,0,1,.8,8.36,31.36,31.36,0,0,1-4.58,9.67,150.31,150.31,0,0,1-12.84,15.84,18,18,0,0,1-3.76,3.15,3.62,3.62,0,0,1-3.48.45h0a.69.69,0,0,0-.34-.62c-.29-1.52-.48-3.07-.81-4.59a10.54,10.54,0,0,1,1.46-7.78,112.82,112.82,0,0,1,10.23-14.41c2.56-3.19,5.19-6.33,7.8-9.51,1-.65,1-1.3.12-2.15a13.35,13.35,0,0,0-5.09-2.88,55.19,55.19,0,0,0-11.34-2,.87.87,0,0,1,.51-1c1.75-1,3.46-2.08,5.19-3.14,1-.63,2.11-1.27,2.19-2.7.06-2.73-1.62-4-4-3a16.35,16.35,0,0,0-3.1,2,104.94,104.94,0,0,0-11,9.83c-3.08,3-5.87,2.78-8.53-.59a10,10,0,0,0-2.13-2.36c-1.62-1.14-1.88-1.2-3.43,0a14.45,14.45,0,0,1-4.71,2.62c-2.51.71-5,1-7.33-.61-1.72-1.19-1.74-1.24-3.37.1-4,3.3-7.92,6.68-11.93,9.93-5.94,4.86-11.86,9.67-17.65,14.62a8.21,8.21,0,0,0-2.8,4.47c-1,3.76-2.05,7.46-3.24,11.13a179.85,179.85,0,0,1-19,41c-4.86,7.77-10,15.32-16.76,21.55a34.73,34.73,0,0,1-8.83,6.22C174.37,342.76,171,342,167.6,338a.57.57,0,0,0-.21-.13c-1.1-1.54-1-3.39-1.18-5.14-.39-3.86.66-7.5,2.09-11,2-4.93,4.92-9.32,7.8-13.69,7.92-12.07,16.63-23.49,27.05-33.55,4.37-4.23,8.82-8.36,13.3-12.49a12.68,12.68,0,0,0,3.67-5.72c3.14-9.94,6.17-19.93,8.57-30.11.36-1.29.92-2.55.6-3.9a1.15,1.15,0,0,0-1.06.29,110.61,110.61,0,0,1-12.66,8.06c-7.35,4-14.95,7.53-23.29,9-5.75,1-11.34,1.13-15.66-3.79-1.62-3.6-1.31-7.21-.2-10.85a48.07,48.07,0,0,1,6.87-13.31c5.89-8.54,12.15-16.78,19.9-23.8,2.63-2.38,5.29-4.95,8.68-6,5.06-1.56,9.17-4.7,13.7-7.13a79,79,0,0,1,21.33-8.17,26,26,0,0,1,11.27-.3c6.48,1.54,8.15,3.93,6.88,10.37-.92,4.64-3.15,8.81-5.5,12.86a101.9,101.9,0,0,1-18.05,22.42,9.31,9.31,0,0,0-2.75,4.75c-2.77,10.91-5.67,21.8-8.5,32.67-.1.42-.34.77-.07,1.21a3.2,3.2,0,0,0,1.89-1c6.85-5.4,13.72-10.76,20.51-16.19a31.63,31.63,0,0,0,6.72-6.85,3.37,3.37,0,0,0,1.15-2.12,13,13,0,0,1,4.58-7.34,2,2,0,0,0,.6-2.5.88.88,0,0,0-1,.37c-2.15,2.37-4.32,4.71-5.45,7.78-.4,1.12-1,1.69-2.17.9a2.8,2.8,0,0,1-.17-2.82c2-4.36,4.86-7.94,9.26-10.09s8.41-1.25,11.53,2.29c1,1.11,1.82,2.32,2.86,3.62,1.2-.92,2.36-1.9,3.61-2.77,1.05-.69,2-1.86,3.53-1.09a3.58,3.58,0,0,1,1.91,3.89,27.8,27.8,0,0,1-3.46,5.6c-.74.87-1.55,1.71-2.22,2.62-.81,1.15-.62,1.62.81,2.61,1.33.22,2.37-.53,3.38-1.2a88.85,88.85,0,0,0,10.86-8c1.14-1,2.13-2,2.28-3.67a5.27,5.27,0,0,1,1-2.47,3,3,0,0,1,2.95-1.39,3.39,3.39,0,0,1,2.88,1.62c.56,1.11-.21,2-.89,2.83-.21.25-.38.5-.8,1.05a21.36,21.36,0,0,0,11.18.81c1-.2,1.43-1.32,2.23-1.87.6-.47,1.2-.9,2-.57s1,1.2.81,2.06a21.26,21.26,0,0,1-1.62,1.79c-2.74,2.21-5.54,4.34-8.26,6.59a18.37,18.37,0,0,0-3.24,2.82A5.73,5.73,0,0,0,311.78,228.86Zm-10.35,35.58v.08c1.2.06,1.9-.81,2.6-1.55a104.44,104.44,0,0,0,7.77-9.42,5.05,5.05,0,0,0,.92-4.39c0-.81.19-1.62-.64-2.23a1.7,1.7,0,0,0-.6.34,96.58,96.58,0,0,0-10.74,14.58,4.76,4.76,0,0,0-.81,2c0,.73.28,1.09,1,1,.3.06.39-.17.48-.4Zm-43.55-89.25v-.06a5.51,5.51,0,0,0-5.15-4.46,23.34,23.34,0,0,0-6.88.19,49.61,49.61,0,0,0-12.15,4,122.77,122.77,0,0,0-41.47,31.59,58.25,58.25,0,0,0-9.72,15.11c-.77,1.85-1.78,3.72-1.51,5.85a8.57,8.57,0,0,0-.09,2.9c0,.17,0,.35.05.55.48,2.75,2.43,4,4.92,4.44a15.73,15.73,0,0,0,3.69.16,36.72,36.72,0,0,0,11.66-2.9c10.65-4.17,20.18-10.27,29.1-17.35A104.6,104.6,0,0,0,251.78,193a39.14,39.14,0,0,0,5.8-11.34c.58-2,1.17-4,.37-6l.12-.13a.55.55,0,0,0-.19-.26ZM170.8,330.68v1.37a.56.56,0,0,0,.11.69c0,.41.1.81.18,1.22,1,3.36,3.32,4.4,6.41,2.8a18.73,18.73,0,0,0,4.31-3.24,70.3,70.3,0,0,0,8.1-9.31c11.48-15.39,18.77-32.9,25-50.89.13-.39.25-.81.34-1.17.15-.54.52-1.2-.07-1.62s-1.07.2-1.52.5a42.37,42.37,0,0,0-6,5.15,177.91,177.91,0,0,0-30.95,38.3,45.85,45.85,0,0,0-5.32,11.63C171,327.59,170.34,329.07,170.8,330.68Zm105.93-111.2c-.05-3.4-1.55-5.93-3.81-6.77-2.43-.92-2.94-.6-3,2.08v.49a4.32,4.32,0,0,1-1.9,4.18,9.2,9.2,0,0,0-3.67,7.22,2.79,2.79,0,0,0,2.63,2.95,2.84,2.84,0,0,0,1-.13,6.28,6.28,0,0,0,2.19-1.1,27.84,27.84,0,0,0,4.68-4.33A6.92,6.92,0,0,0,276.73,219.48Z"/><path class="cls-1" d="M355.75,192.75a11.83,11.83,0,0,1-.59-2.62c0-2.95,1.55-4.27,4.39-3.6a5.67,5.67,0,0,1,4.67,5.82c0,.49-.07,1-.11,1.46-2.64,2.17-4.95,2.08-7.46-.25Z"/><path class="cls-3" d="M256,107.71A148.28,148.28,0,1,0,404.26,256,148.29,148.29,0,0,0,256,107.71Zm0,287A138.76,138.76,0,1,1,394.75,256,138.76,138.76,0,0,1,256,394.75Z"/><path class="cls-4" d="M256,6.68C118.31,6.68,6.68,118.3,6.68,256S118.32,505.32,256,505.32,505.29,393.68,505.29,256,393.68,6.68,256,6.68Zm0,484C126.41,490.66,21.34,385.59,21.34,256S126.41,21.32,256,21.32,490.71,126.41,490.71,256,385.6,490.66,256,490.66Z"/><path class="cls-4" d="M417.87,115.59a3.41,3.41,0,1,0-3.43-3.43A3.52,3.52,0,0,0,417.87,115.59Z"/><g class="cls-5"><path class="cls-6" d="M264.59,455.15a5.07,5.07,0,0,0-.09-.54c.81-.55,1.62-1.06,2.43-1.62,2.89-2.18,5.89-4.23,8.57-6.63a15.87,15.87,0,0,0,3.64-4.92c2.43-5.13.23-10.14-5.23-11.72-6.06-1.77-11.44.12-16.43,3.49.81,2.22.81,2.27,2.54,1.51a13.56,13.56,0,0,1,7.21-1.23c4.6.45,7.15,4.14,5.92,8.58a8.14,8.14,0,0,1-1.37,2.88,31,31,0,0,1-4.32,4.7c-3,2.43-6.14,4.69-9.22,7-1.71,1.29-1.71,1.29-.81,3.64l25.61-.57c.81-3.16.86-8.55-.14-10.84-.35.7-.57,1.12-.76,1.57a23.27,23.27,0,0,0-1.24,2.68c-.47,1.41-1.42,1.8-2.81,1.81-2.88,0-5.78.16-8.65.23C267.84,455.15,266.22,455.15,264.59,455.15Z"/><path class="cls-6" d="M204.15,421.14c-.27.81-.51,1.57-.81,2.33-2.11,5.26-4.19,10.53-6.35,15.79-1.55,3.77-1.05,4-5.49,3.24-.81-.14-1.77-.53-2.66.81,5.29,2.15,10.42,4.25,15.57,6.31a4.69,4.69,0,0,0,1.4,0c-.57-1.33-.57-1.33-2.67-2.8s-2-1.62-1.1-3.89c2.86-6.91,5.75-13.76,8.64-20.72.32-.81.64-1.62.91-2.35-.32-.32-.43-.49-.56-.53-3.67-.81-7.37-1.71-11.07-2.5-.36-.07-.81.21-1.42.39C200,419.25,202.43,419.4,204.15,421.14Z"/><path class="cls-6" d="M317.39,428.65a14.88,14.88,0,0,0-18.06,2.79c-.48.52-1,1-1.48,1.62a3.79,3.79,0,0,1-.29-.65c0-.25,0-.49,0-.74.5-7.29,3.24-13.37,9.3-17.75,1.86-1.33,3.9-2.43,5.87-3.63,1.29-.8,1.29-.8.3-2.69-5.34,2.23-10.21,4.91-14.19,9a26.28,26.28,0,0,0-5.2,29.27c4.17,9.24,14.31,12.71,22.88,7.68C327.68,447,324.92,433,317.39,428.65Zm-4.69,24.07a7.46,7.46,0,0,1-7.47-1.12A15.28,15.28,0,0,1,299,437.13c.64-5.94,7.64-8.9,12.63-5.46,4.37,3,5.77,7.55,6.14,11.81C317.78,448.46,315.92,451.55,312.7,452.72Z"/><path class="cls-6" d="M238.28,426.52c-6-1.9-11.47-.86-15.94,3.66a13.62,13.62,0,0,0-3.61,14.11c1.56,5.28,5.43,8.25,10.75,9.43a16.19,16.19,0,0,0,10.31-1.32c-.25.49-.47,1-.74,1.5-4.59,7.86-11.53,11.94-20.53,12.63a8.7,8.7,0,0,0-2,.17,1.32,1.32,0,0,0-.81,1,1.66,1.66,0,0,0,.76,1.08,2.58,2.58,0,0,0,1.2.14,33.85,33.85,0,0,0,17.57-4.11c9.4-5.22,14.85-15.63,13.24-25.8C247.59,432.92,244.3,428.48,238.28,426.52Zm2.63,20.5c-1.41,2.77-3.62,4.48-6.83,4.5a8,8,0,0,1-7.53-4.27c-2.47-4.45-1.74-12.22,1.49-16.2,3.53-4.28,9.24-4.05,12.35.54a14,14,0,0,1,2.22,7.84,19,19,0,0,1-1.7,7.63Z"/></g><g class="cls-5"><path class="cls-7" d="M156.33,69c.53,1.55,1.47,1.2,2.22,1.16,2.58-.15,2.6-.49,3.8,2.38,3.68,8.8,7.29,17.62,11.06,26.4,1.05,2.42,1.62,4.44-1.2,6-.29.14-.32.81-.46,1.24.49.06,1.08.36,1.47.21,3.13-1.26,6.24-2.58,9.32-3.92.21-.07.36-.32.67-.62-1.21-2.14-3.23,0-5-1.18-3.67-8.31-7.24-17.14-10.74-26a5.25,5.25,0,0,1,1.72.64l32.23,17.67c2.13,1.17,2.15,1.15,4.12-.56q-.7-1.74-1.44-3.6c-3.9-9.31-7.74-18.63-11.71-28-1-2.3-1.38-4.14,1.17-5.58.34-.2.36-.93.54-1.42-.51,0-1.1-.24-1.52-.07-3,1.2-5.93,2.43-8.91,3.71a5.44,5.44,0,0,0-.9.7c1,1.11,1.06,1.24,2.28,1,2.55-.57,2.63.1,3.43,2q4.4,10.42,8.74,20.92c.2.5.29,1,.53,1.83-1.69-.91-3.06-1.62-4.42-2.43-9-4.9-18-9.86-27.06-14.76-.76-.4-1.81-1.06-2.43-.81C161.32,66.76,158.89,67.92,156.33,69Z"/><path class="cls-8" d="M45.14,256.39a3,3,0,0,0-.37.85c-1,6.48-.77,12.85,1.83,18.91a19,19,0,0,0,14.11,11.58,28.81,28.81,0,0,0,9.08.22,18.73,18.73,0,0,0,16.54-13.8c1.81-6.39,1-12.73-.81-19-.56-2-.71-2-2.83-1.82-3.44.26-6.89.56-10.33.81-2.43.14-2.43.11-3.41-2.15-.35-.76-.58-1.62-2-1,.3,4.43.61,9,.93,13.43,1.19.49,1.69-.11,1.73-.9.17-2.95,2-3.59,4.48-3.47a7.88,7.88,0,0,0,1-.12c2.77-.2,5.53-.35,8.22-.53,2.74,6.69,1.12,16.2-8.61,20.32a27.58,27.58,0,0,1-11.58,1.86,18.18,18.18,0,0,1-9.82-2.82c-4.47-3-6.09-7.34-6.09-12.49,0-5,0-5,4.62-6.57,1.13-.4,2.19-.9,3.38-1.37C53.89,257,48.83,256.06,45.14,256.39Z"/><path class="cls-9" d="M111.53,100.91c.7,1.69,1.53,1.18,2.26.9,3.15-1.22,3-.66,4.66,1.48,3.84,4.93,7.64,9.89,11.48,14.83a24.28,24.28,0,0,0,6.36,6.14c2.9,1.84,6,2.68,9.41,1.69A21.34,21.34,0,0,0,159,115.35a11,11,0,0,0,1-7.67,26.56,26.56,0,0,0-5.19-10.27c-3.44-4.51-6.94-9-10.39-13.51-2-2.64-2-2.68-.32-5.61.41-.7.73-1.32-.5-1.89L133.78,84c1.42.9,1.42.9,2.67.46,2.35-.81,2.37-.81,3.9,1.11q4.71,6.08,9.37,12.15a71.78,71.78,0,0,1,4.59,6.4c4.05,6.67,2.73,11.73-3.94,15.79a11.19,11.19,0,0,1-1.53.81,8,8,0,0,1-8.61-.81,27.55,27.55,0,0,1-4.31-4c-2.88-3.49-5.66-7.09-8.39-10.67-1.72-2.2-3.37-4.46-5.11-6.65a2.09,2.09,0,0,1-.12-3l.12-.11a8.94,8.94,0,0,0,1.11-1.62c.12-.23.08-.76-.09-.86a1.37,1.37,0,0,0-1.06-.2,3.71,3.71,0,0,0-1,.71L113,100C112.49,100.36,111.9,100.66,111.53,100.91Z"/><path class="cls-10" d="M435.46,192.7c5.24-1.62,10-3.42,15.05-4.65,1.32,4.21,2.59,8.18,3.87,12.25-2,1.34-3.85,2.59-5.92,4,.57.47.87,1,1.14.93a45.93,45.93,0,0,0,9-1.29c-2.69-8.52-5.32-16.8-7.95-25.1a12.88,12.88,0,0,0-.58-1.32c0-.06-.15-.08-.21-.12h-.25c-1,.29-.81,1.11-.81,1.82,0,3.62-.47,3-3,3.86-9.28,3-18.63,6-27.92,8.91-2.77.88-2.79.85-4.64-1.47-.16-.2-.27-.5-.46-.57a2.41,2.41,0,0,0-1.29-.25c-.14,0-.26.65-.29,1a3.53,3.53,0,0,0,.29.94q3.71,11.76,7.44,23.49a12.24,12.24,0,0,0,.81,1.62c3.31-.86,6.56-1.68,9.78-2.5-.1-.53-.1-1-.21-1-2.75-.65-5.5-1.27-8.35-1.91-1.31-4.12-2.64-8.27-4.05-12.71,5.33-1.71,10.53-3.41,15.55-5.05.32.41.47.51.51.67.54,1.62,1.08,3.24,1.58,4.92.33,1.17,1,2.49.7,3.51s-1.69,1.4-2.59,2.1c-.07.06-.18.08-.2.12l-.56,1.44c.48.17,1.06.6,1.45.45,3.35-1.05,6.68-2.2,10-3.35.1,0,.16-.28.25-.42-.06-.93-.64-1.23-1.49-1.22a12.23,12.23,0,0,1-2.42,0,2.14,2.14,0,0,1-1.5-.93C437.25,198.32,436.44,195.66,435.46,192.7Z"/><path class="cls-11" d="M295.78,70.71c2.55.63,4.86,1.18,7.13,1.77s2.32.63,2.43,2.9a6.51,6.51,0,0,0,.1,1.71,1.54,1.54,0,0,0,.92.93,1.37,1.37,0,0,0,1.06-.71c.87-3.24,1.68-6.53,2.43-9.81.06-.35-.3-1.16-.46-1.16a2,2,0,0,0-1.41.52c-.57.68-.81,1.62-1.39,2.3A2.09,2.09,0,0,1,305,70c-2.81-.53-5.58-1.26-8.54-2,1.29-5.19,2.49-10.11,3.76-15.26,3.71.9,7.23,1.73,10.72,2.6,2,.49,2,.54,2.1,2.68.07,1.53.1,3.07.18,4.79.64-.15,1.12-.14,1.37-.37.71-.7,3.24-7.13,3.37-8.37-.44-.15-.9-.3-1.36-.41l-23.7-5.77a3.54,3.54,0,0,0-1.2-.19,1.35,1.35,0,0,0-.94.51c-.11.14.09.62.26.81a5.46,5.46,0,0,0,1,.72c2.31,1.54,2.35,1.54,1.71,4.13q-3.48,14.12-7,28.23c-.81,3.29-.85,3.29-4.18,3.75-.81.09-1.47.25-1.17,1.62,4.41,1.06,8.91,2.19,13.47,3.24S304,93.23,308.76,94c1.05-3.4,2.25-6.48,2.92-9.72-1.11-.63-1.62-.1-2.11.5-1.06,1.27-2.19,2.47-3.13,3.83a2.68,2.68,0,0,1-3.4,1.11c-2.52-.67-5.1-1.26-7.64-1.87l-3.51-1C293.21,81.34,294.48,76.13,295.78,70.71Z"/><path class="cls-12" d="M351.26,114.32A31.81,31.81,0,0,0,359,122.9a21.73,21.73,0,0,0,9.29,4.32c7.79,1.56,14.42-6.42,12.25-12.69-1.07-3.11-2.52-6.07-3.73-9.11a35.17,35.17,0,0,1-2-5.55c-.68-2.85.49-5.19,2.75-6.94s4.62-1.55,7-.46a14,14,0,0,1,5,4.28,2.43,2.43,0,0,1,.33,2.94c-.73,1.46-1.41,3-2.05,4.5a1.23,1.23,0,0,0,.22,1,1.08,1.08,0,0,0,1.07,0c2.28-1.85,4.5-3.75,6.83-5.73a39.88,39.88,0,0,0-8.24-8.17,19.26,19.26,0,0,0-7.34-3.4,10.37,10.37,0,0,0-12.61,12.61,27.44,27.44,0,0,0,1.62,4.64c.81,2,1.93,3.83,2.73,5.8a20.38,20.38,0,0,1,1.39,4.69c.61,4.59-4.16,9.09-9,7.18a15.66,15.66,0,0,1-7.29-6,2,2,0,0,1,0-2.32c.89-1.76,1.73-3.54,2.49-5.36.15-.41-.13-1-.2-1.5-.44.09-1,0-1.3.3C355.92,110,353.69,112.09,351.26,114.32Z"/><path class="cls-13" d="M454.3,243.92a6.52,6.52,0,0,0,.06,1.09,48,48,0,0,0,9.72.81,36.55,36.55,0,0,0-.09-12,18.85,18.85,0,0,0-2.82-7.29c-4.73-7.43-14.39-5.43-17.52.09a73.56,73.56,0,0,0-3,6.71c-1,2.43-1.82,4.95-3.05,7.28-1.39,2.65-3.85,3.72-6.83,3.49s-4.76-2-5.71-4.72a17.27,17.27,0,0,1-.81-7.06,3.58,3.58,0,0,1,3-3.58,37.72,37.72,0,0,0,4.4-1.57c.41-.19.62-.81.94-1.2-.37-.26-.74-.75-1.12-.81-3.1,0-6.18,0-9.27,0a30.64,30.64,0,0,0-.57,12.21,22.83,22.83,0,0,0,3.07,8.25c4.27,6.93,15.14,6.6,18.63-1,.88-1.94,1.62-4,2.43-5.93a59.19,59.19,0,0,1,3-7,6.79,6.79,0,0,1,7.35-3.39c3,.64,4.57,2.73,5.3,5.56a12.87,12.87,0,0,1-.25,7.35C458.81,242.16,456.56,243,454.3,243.92Z"/><path class="cls-14" d="M67.33,161c-3.74,8.75-7.5,17.61-11.34,26.72,3.47.86,6.59,1.91,10,2.06-.89-2.7-3.65-3.59-5.24-5.8,2.09-4.92,4.18-9.88,6.41-15.09.72.93,1.25,1.54,1.71,2.2,2.23,3,4.44,6.11,6.66,9.17q7.81,10.8,15.64,21.57c.6.81,1,1.92,2.67,1.78l11.44-26.92-9.49-4.86c-1.15,1-.48,1.67,0,2.3,1.11,1.33,2.18,2.69,3.4,3.91a2.86,2.86,0,0,1,.67,3.71c-1.77,3.88-3.36,7.85-5,11.77-.24.59-.58,1.14-1,2l-2.2-3L70,162.81C69.35,162.06,69,160.92,67.33,161Z"/><path class="cls-15" d="M254.91,86c3.12.25,3.12.25,4.23-2.31l11.19-26.07c1.07-2.49,2.18-5,3.24-7.46a4.35,4.35,0,0,1,3.16-2.82,3.17,3.17,0,0,0,1.39-.48,5.16,5.16,0,0,0,.81-1.25c-2.43-.6-11.2-.62-12.64-.11-.29,1.38.81,1.33,1.62,1.62,2,.71,2.15,1,1.45,3.06-.22.6-.43,1.24-.68,1.84q-4.86,12.15-9.8,24.23c-.18.46-.43.87-.74,1.54-.3-.69-.51-1.11-.67-1.55l-8.73-25.42c-.2-.55-.35-1.11-.49-1.66a1.52,1.52,0,0,1,.85-2,1.68,1.68,0,0,1,.32-.09,10.39,10.39,0,0,0,2.09-.74.75.75,0,0,0,.22-1,.78.78,0,0,0-.44-.31,7.12,7.12,0,0,0-1.46-.09c-3.86,0-7.73,0-11.6,0a7.66,7.66,0,0,0-1.25.24c-.2,1.1.42,1.38,1.08,1.5,2.75.5,3.8,2.43,4.62,4.86,3,8.79,6.14,17.54,9.24,26.28C252.94,80.5,254,83.26,254.91,86Z"/><path class="cls-16" d="M404.19,176.31c1.76-.9,1-2,.81-2.94-.59-2.87-.65-2.9,1.77-4.31q13.17-7.77,26.37-15.52c.45-.28,1-.46,1.62-.81,1.68,2.89,3.24,5.62,4.86,8.37-1.8,2.2-4.15,3.67-5.78,6,.56.28.9.63,1.11.57,3.24-1.12,6.44-2.28,9.89-3.53-6.1-10.44-12-20.55-17.89-30.63-2.75,1.26-7.63,4.72-8.82,6.22,1.38,1.27,2.79.17,4.13,0s2.86-.56,4.41-.87c1.68,2.87,3.24,5.63,4.94,8.45-.49.34-.81.6-1.13.81-4.32,2.54-8.64,5.1-13,7.62Q410.3,160,403,164.17c-1.73,1-1.77,1-3.24-.31-.62-.56-1.2-1.14-1.83-1.62s-1.2-.23-1.62.65C398.9,167.25,401.49,171.7,404.19,176.31Z"/><path class="cls-17" d="M408,111.26c-1.37.85-.66,1.62-.39,2.33,1,2.61,1,2.63-1.08,4.48q-10.77,9.41-21.58,18.77c-.68.6-1.41,1.15-2.09,1.75a1.63,1.63,0,0,1-2.22.13,13.15,13.15,0,0,0-2.12-1.23,1.09,1.09,0,0,0-1,.23c-.16.23-.05.72,0,1.08s.3.39.46.6c2.54,2.89,5.06,5.82,7.62,8.71a4.77,4.77,0,0,0,1.08.81c1.32-.81.54-1.62.24-2.43-.95-2.43-1-2.43,1-4.14q10.85-9.51,21.74-18.95c.55-.49,1.15-1,1.68-1.44a2,2,0,0,1,3-.28,4.36,4.36,0,0,0,1.45.9,3.45,3.45,0,0,0,1.32-.06c-.06-.44-.14-.88-.24-1.3-.06-.22-.31-.39-.48-.56l-7.29-8.37A11.44,11.44,0,0,0,408,111.26Z"/><path class="cls-18" d="M423.28,260.13c-.57,4.93-.68,9.72-1,14.44,1.78.52,1.85-.72,2.2-1.54,1-2.43,1-2.43,3.61-2.22q14.4.9,28.79,1.76c1.15.07,2.55-.12,3.34.46s1,1.93,1.37,3c.26.81.61,1.38,1.76.81.29-4.6.59-9.3.93-14.25-2.6.4-1.93,2.93-3.57,4.05-.46,0-1.28,0-2.08,0-3.37-.17-6.72-.33-10.09-.55q-10.22-.63-20.41-1.32c-2.31-.17-2.27-.25-2.93-2.43C424.94,261.47,425.11,260.33,423.28,260.13Z"/><path class="cls-19" d="M209.17,50.08c1,2.34,3.24,1.19,4.63,2.21a11.33,11.33,0,0,1,.47,1.5l5.88,31.51a1.74,1.74,0,0,1-1,2.2,7.08,7.08,0,0,0-1.51.81c-.4.33-1,.86-.91,1.21.12.89.87.74,1.54.6,3.56-.7,7.12-1.36,10.65-2.09.75-.17,2.17.28,2-1.15-.13-1.16-1.4-.89-2.23-1-2.17-.31-2.26-.31-2.67-2.43-1.83-9.61-3.56-19.24-5.48-28.84-.51-2.5-.69-4.51,2.31-5.41.35-.1.51-.81.76-1.29-.42-.14-.88-.46-1.27-.4C218.06,48.29,213.8,49.15,209.17,50.08Z"/><path class="cls-20" d="M84,134c-2.76,4.21-5.38,8.2-8,12.2,1.41,1.08,2.05.06,2.75-.48,1.88-1.41,1.88-1.44,3.85-.19q4.06,2.58,8,5.24,8.65,5.67,17.28,11.39c2.22,1.49,2.19,1.5,1.56,4a5.57,5.57,0,0,0-.29,1.45,1,1,0,0,0,.49.74,1,1,0,0,0,.88-.14,3.17,3.17,0,0,0,.74-1q3.06-4.63,6.1-9.27a12.3,12.3,0,0,0,.72-1.62c-2.35-.81-3,1.89-4.92,2-1.2-.76-2.52-1.62-3.83-2.43q-11.55-7.53-23.08-15.11c-2.29-1.5-2.27-1.54-1.62-4.15a4.61,4.61,0,0,0,.25-1.42C84.85,134.79,84.46,134.53,84,134Z"/><path class="cls-21" d="M77.73,136.4a3.82,3.82,0,0,0-3.46-3.53,3.76,3.76,0,0,0-3.41,3.55,3.57,3.57,0,0,0,3.45,3.43A3.5,3.5,0,0,0,77.73,136.4Z"/><path class="cls-22" d="M215.41,38.59a3.4,3.4,0,0,0-3.56,3.24,3.22,3.22,0,0,0,3.15,3.6,3.42,3.42,0,0,0,3.56-3.25v-.24a3.2,3.2,0,0,0-3-3.35Z"/><path class="cls-23" d="M122.54,86.8a3.61,3.61,0,0,0-3.24-3.39,3.78,3.78,0,0,0-3.47,3.49,3.69,3.69,0,0,0,3.54,3.37A3.63,3.63,0,0,0,122.54,86.8Z"/><path class="cls-24" d="M473.86,270.4a3.24,3.24,0,0,0-3.07-3.4h-.31a3.17,3.17,0,0,0-3.36,2.95,2.94,2.94,0,0,0,0,.42,3.24,3.24,0,0,0,3.11,3.37h.29a3.07,3.07,0,0,0,3.34-2.77A2.72,2.72,0,0,0,473.86,270.4Z"/><path class="cls-25" d="M128.89,82.79A3.41,3.41,0,0,0,129,76a3.6,3.6,0,0,0-3.45,3.48A3.52,3.52,0,0,0,128.89,82.79Z"/><path class="cls-26" d="M353.54,69.65a33.18,33.18,0,0,0-5-3.09c-4-2.08-8.25-4.05-12.4-6a12.08,12.08,0,0,0-1.5-.53c-1.09,1.25.08,1.73.62,2.3,2.17,2.18,1.89,1.9.66,4.39-4.45,8.9-9,17.76-13.45,26.62-.42.81-.9,1.54-1.16,2-1.73,1.16-3.74-1.17-5.33,1.19L328.87,103c.87-2.43-2-2.8-2-4.86,2.18-4.34,4.53-9,6.9-13.72,2.36.55,3.75,1.62,3.82,4,0,1.62.25,3.24.35,4.86.18,3.06.29,6.09.57,9.12.5,5.56,2.84,8.3,8.17,9.8.81.22,1.46.25,1.66-1-2.83-2.08-3.37-5.31-3.67-8.64-.27-2.86-.46-5.71-.71-8.59-.16-1.89-.32-3.74-.52-6,1.68,0,3,.07,4.27,0,4.7-.32,8.25-3.33,9.72-8.18C358.54,76,357.29,72.51,353.54,69.65Zm-4.35,11.73a6.71,6.71,0,0,1-7.33,3.35,18.87,18.87,0,0,1-6.81-3L342.5,66.9a16.8,16.8,0,0,1,6.69,3.56,7.17,7.17,0,0,1,1.41,1.69c1.74,3.4.43,6.41-1.41,9.21Z"/><path class="cls-27" d="M90,208c-.88,2.19-2.57,3-4.74,3.37-9.9,1.73-19.75,3.53-29.62,5.33-2.58.46-5.13,1-7.59,1.44-.61,3-.61,3,1.62,4.45,5.76,3.67,11.52,7.29,17.28,11,4.53,2.85,9,5.75,13.56,8.57,1.48.94,2.57,2,2.58,3.92a3.52,3.52,0,0,0,.27,1.44c.14.32.51.73.8.75s.65-.36.81-.66a2.57,2.57,0,0,0,.21-.94c.49-2.85,1-5.67,1.46-8.51.12-.81,1-1.93-.3-2.36s-1.33.91-1.76,1.62c-1,1.73-1.27,1.87-3.1.85-2.71-1.54-5.37-3.19-8.09-4.77a1.71,1.71,0,0,1-1-2c.68-3.65,1.32-7.29,2-10.93A1.58,1.58,0,0,1,75.71,219c3.31-.53,6.64-1.09,10-1.62a1.63,1.63,0,0,1,2,1.12,3,3,0,0,1,.06.43,6.93,6.93,0,0,0,.27,1.69c.18.39.67.64,1.44,1.34,1-5.36,1.81-10.18,2.71-15.27C90.55,207.05,90.43,207,90,208ZM69.6,231l-13.47-8.1a4.78,4.78,0,0,1,.06-.53c5-.87,9.94-1.73,15.28-2.64-.39,3.84-1.16,7.38-1.87,11.27Z"/></g></svg>