<svg id="Layer_1" data-name="Layer 1" xmlns="http://www.w3.org/2000/svg" xmlns:xlink="http://www.w3.org/1999/xlink" viewBox="0 0 1366 614.4"><defs><style>.cls-1{fill:#040418;}.cls-2{opacity:0.73;}.cls-3{fill:#253a76;}.cls-10,.cls-3,.cls-4,.cls-5,.cls-6,.cls-7,.cls-8{fill-rule:evenodd;}.cls-4{fill:url(#radial-gradient);}.cls-5{fill:#acd6f2;}.cls-6{fill:#80a6c7;}.cls-7{fill:#f9f9fa;}.cls-8{fill:#fff;}.cls-9{fill:#17002f;}.cls-10,.cls-11{fill:#e6e6e6;}</style><radialGradient id="radial-gradient" cx="67.36" cy="308.66" r="289.76" gradientTransform="matrix(1, 0, 0, -1, 0, 614)" gradientUnits="userSpaceOnUse"><stop offset="0.26" stop-color="#225083"/><stop offset="0.69" stop-color="#224e82"/><stop offset="0.86" stop-color="#23477e"/><stop offset="0.98" stop-color="#253b77"/><stop offset="0.99" stop-color="#253a76"/></radialGradient></defs><title>Artboard 1</title><rect class="cls-1" x="-28.12" y="-12.64" width="1422.24" height="639.28"/><g class="cls-2"><path class="cls-3" d="M67.32-10.74c-174.52,0-316.08,141.54-316.08,316.08S-107.2,621.45,67.32,621.45s316.1-141.54,316.1-316.11S241.86-10.74,67.32-10.74Zm0,623.94c-170,0-307.83-137.89-307.83-307.86S-102.64-2.49,67.32-2.49,375.13,135.37,375.13,305.34,237.3,613.2,67.32,613.2Z"/><path class="cls-4" d="M67.32,15.59c-160,0-289.73,129.72-289.73,289.75S-92.69,595.1,67.32,595.1,357.13,465.38,357.13,305.34,227.35,15.59,67.32,15.59Z"/><path class="cls-5" d="M238.65,305.34A171.33,171.33,0,1,1,67.31,134h0A171.3,171.3,0,0,1,238.65,305.31Z"/><path class="cls-6" d="M-30.62,280.16c5.34,6.08,12.22,5.93,19.31,4.69C-1,283,8.39,278.77,17.47,273.76a140.66,140.66,0,0,0,15.61-10,1.53,1.53,0,0,1,1.33-.35c.4,1.65-.29,3.22-.76,4.83-.8-1.11-1.5-.43-2.29.09-4.29,2.9-8.58,5.75-13.1,8.27-9.32,5.19-19,9.52-29.61,11.37a25.12,25.12,0,0,1-12.26-.39,12.29,12.29,0,0,1-5.7-3.85A4.27,4.27,0,0,1-30.62,280.16Z"/><path class="cls-6" d="M68.62,265.07c1.46,1,2.18.26,2.7-1.09,1.4-3.79,4.1-6.69,6.75-9.63a1,1,0,0,1,1.2-.43c.33,1.11.46,2.18-.74,3.07-3.07,2.26-4.66,5.49-5.66,9.08a4.12,4.12,0,0,1-1.42,2.59C68.75,268.32,68.75,268.32,68.62,265.07Z"/><path class="cls-6" d="M69.78,205.33a4,4,0,0,1-1.11-.44c-2-1.61-4.24-2-6.77-2.15-7.69-.37-14.53,2.33-21.32,5.29C28.8,213.21,18.32,220.4,8.26,228.31c-2.38,1.87-4.58,4-6.81,6a127.91,127.91,0,0,0-13.56,14.27c-4.34,5.59-8.47,11.37-11,18.1-.43,1.13-.42,2.7-1.91,3.24-.34-2.66.89-5,1.85-7.25a71.67,71.67,0,0,1,12-18.64A151,151,0,0,1,40,205a61.12,61.12,0,0,1,15-5,28.11,28.11,0,0,1,8.49-.24A6.77,6.77,0,0,1,69.78,205.33Z"/><path class="cls-6" d="M16.6,326.56c-2.86.65-4.58,2.92-6.48,4.75a239.72,239.72,0,0,0-25,27.24,200.52,200.52,0,0,0-18.25,27.86,36.47,36.47,0,0,0-3.58,9.3c-.17.67-.12,1.44-1,1.7-.53-2,.28-3.84.78-5.67,1.36-5.13,3.86-9.78,6.56-14.35A220.86,220.86,0,0,1,7.74,330.13a51.22,51.22,0,0,1,7.36-6.36c.57-.35,1.18-1.09,1.9-.61s.26,1.31.08,2A14.38,14.38,0,0,0,16.6,326.56Z"/><path class="cls-6" d="M190.5,227.26c.39.33.74.66,1.11,1,3.09,2.88,6,3,9.21.31.81,2.26.09,4.12-1.87,4.77C195.13,234.64,190.65,231.44,190.5,227.26Z"/><path class="cls-6" d="M-42.18,406.36a.65.65,0,0,1,.26.17c4.16,4.92,8.36,5.86,14.26,3.1a43.59,43.59,0,0,0,10.91-7.69c8.39-7.69,14.72-17,20.69-26.6a222,222,0,0,0,23.48-50.68c1.44-4.53,2.78-9.1,4-13.74a10.23,10.23,0,0,1,3.46-5.52c7.15-6.11,14.46-12.1,21.79-18,5-4,9.81-8.19,14.73-12.26,2-1.66,2-1.59,4.16-.13,2.85,2,6,1.63,9.06.76a17.86,17.86,0,0,0,5.81-3.24c1.92-1.53,2.25-1.46,4.23-.05a12,12,0,0,1,2.63,2.92c3.29,4.16,6.73,4.46,10.54.72a128.42,128.42,0,0,1,13.62-12.13,19.52,19.52,0,0,1,3.83-2.46c2.9-1.22,5,.35,4.88,3.72-2.27-1.81-4.31-1-6.34.48a90.87,90.87,0,0,0-13.57,11.67,19.85,19.85,0,0,1-3.7,3.14c-3.2,2-6.27,1.55-8.5-1.59a22.54,22.54,0,0,0-3-3.4c-1.74-1.63-2.26-1.57-4.14-.08-3,2.43-6.23,4.09-10.28,3.85a8,8,0,0,1-5-1.68c-1-.85-1.85-.76-3,.05-3.23,2.33-6,5.09-9.12,7.53-3.75,2.92-7.4,6-11,9-4.88,4.07-9.76,8.19-14.64,12.31-.14.1-.26.32-.43.39-4.36,2.26-5.44,6.51-6.55,10.76a219.44,219.44,0,0,1-11.13,31.8A232.58,232.58,0,0,1-2.72,389.37c-5.12,7.37-10.91,14.16-18.09,19.52-3.86,2.94-8,5.47-13.36,5.07A8.34,8.34,0,0,1-42.18,406.36Z"/><path class="cls-6" d="M117.85,328a4.5,4.5,0,0,0,4.31-.57,22.24,22.24,0,0,0,4.61-3.87A180.32,180.32,0,0,0,142.63,304a38.16,38.16,0,0,0,5.66-11.93,1.08,1.08,0,0,1,.5,1c-.59,3.62-1.2,7.21-3.24,10.33a171,171,0,0,1-11.42,15.38c-2.16,2.54-4.56,4.87-6.6,7.53a17.88,17.88,0,0,1-5.38,4.36C119.33,332.33,118,331.46,117.85,328Z"/><path class="cls-6" d="M147.25,281.77c-1-.74-.85-1.46-.09-2.3,1.52-1.62,3-3.31,4.51-4.93,3.22-3.35,6.51-6.66,9.78-10,.91-1,1.89-1.75,3-.35,3.71,4.55,8.76,5,14.07,4.68a12.74,12.74,0,0,0,1.83-.24c.07.61.17,1.2.2,1.81,0,1-.48,1.42-1.46,1.48-5.08.31-9.89,0-13.59-4.25-1.48-1.72-1.9-1.61-3.66.13l-12,12C149.13,280.6,148.51,281.62,147.25,281.77Z"/><path class="cls-6" d="M120.28,273.7c4.73.56,9.46,1,14,2.52a16.16,16.16,0,0,1,6.29,3.57c1.09,1,1.11,1.83-.15,2.64-2.77-2.83-6.51-3.33-10.06-4.38-3-.87-6.23-.17-9.13-1.5-.41-.94.52-1.18.92-1.72C121.72,274.11,120.52,274.67,120.28,273.7Z"/><path class="cls-6" d="M136.13,271.93a7.18,7.18,0,0,1-2.92-1.39,23.74,23.74,0,0,1,4-3.49c3.33-2.79,6.79-5.4,10.17-8.14a28.65,28.65,0,0,0,2.07-2.2c.8,3.15.48,3.7-2.2,5.75-3.51,2.68-6.88,5.51-10.28,8.29A6.63,6.63,0,0,0,136.13,271.93Z"/><path class="cls-6" d="M137.25,297c-1.68.5-2.44,2.07-3.42,3.27A101.38,101.38,0,0,0,125,312.11c-.72,1.2-1.64,2.33-1.68,3.84v-.06c-.22.17-.41.35-.61.5-.93.15-1.33-.31-1.26-1.2a5.9,5.9,0,0,1,1-2.49c3.66-6.55,8.41-12.33,13.27-18a1.92,1.92,0,0,1,.74-.44C137.49,295,137.32,296,137.25,297Z"/><path class="cls-3" d="M136.2,271.84l4.56,2.46a19.37,19.37,0,0,1,3.7,3c1.13,0,1.41-.9,1.89-1.48,6.86-8.26,13.53-16.69,21.06-24.38a6.41,6.41,0,0,1,5.45-2,1.64,1.64,0,0,1,1.8,1.48,1.78,1.78,0,0,1,0,.46v6.38a15.52,15.52,0,0,0,.22,2.72c.52,2.55,1.7,3.18,4.11,2.29a1.5,1.5,0,0,1,1.4-.24,21.06,21.06,0,0,1,.11,6.09c-.61.09-1.2.2-1.79.24-5.33.35-10.36-.13-14.07-4.68-1.13-1.39-2.11-.61-3,.33-3.24,3.35-6.53,6.66-9.75,10-1.55,1.59-3,3.31-4.51,4.92-.76.85-.87,1.57.11,2.31a29,29,0,0,1,1,10.32A39,39,0,0,1,142.81,304,184.62,184.62,0,0,1,127,323.56a22.15,22.15,0,0,1-4.64,3.88A4.46,4.46,0,0,1,118,328h0a.84.84,0,0,0-.43-.76c-.35-1.88-.59-3.79-1-5.67-.8-3.46.11-6.57,1.81-9.61A137,137,0,0,1,131,294.17c3.16-3.94,6.41-7.82,9.63-11.74,1.26-.81,1.24-1.61.15-2.66a16.39,16.39,0,0,0-6.29-3.55c-4.53-1.5-9.28-2-14-2.52a1.07,1.07,0,0,1,.63-1.2c2.16-1.24,4.27-2.57,6.41-3.88,1.28-.78,2.61-1.57,2.7-3.33.08-3.37-2-4.94-4.88-3.72a19.52,19.52,0,0,0-3.83,2.46,128.42,128.42,0,0,0-13.62,12.13c-3.81,3.74-7.25,3.44-10.54-.72a12,12,0,0,0-2.63-2.92c-2-1.41-2.31-1.48-4.23.05a18,18,0,0,1-5.81,3.24c-3.1.87-6.21,1.22-9.06-.76-2.12-1.46-2.14-1.53-4.16.13-4.92,4.07-9.77,8.25-14.73,12.26-7.33,6-14.64,11.94-21.79,18.05A10.23,10.23,0,0,0,31.52,311c-1.19,4.64-2.53,9.21-4,13.74A222,222,0,0,1,4,375.43C-2,385-8.26,394.34-16.65,402a43.59,43.59,0,0,1-10.91,7.69c-5.9,2.76-10.1,1.82-14.26-3.1a.65.65,0,0,0-.26-.17c-1.36-1.9-1.27-4.18-1.46-6.34-.48-4.77.82-9.26,2.58-13.61,2.45-6.08,6.08-11.5,9.63-16.9,9.79-14.9,20.54-29,33.4-41.43C7.47,323,13,317.85,18.5,312.75A15.71,15.71,0,0,0,23,305.69c3.87-12.28,7.62-24.61,10.58-37.18.45-1.59,1.14-3.15.74-4.81a1.43,1.43,0,0,0-1.31.35A137.67,137.67,0,0,1,17.41,274C8.34,279-1,283.3-11.35,285.11c-7.1,1.24-14,1.39-19.33-4.68-2-4.45-1.62-8.91-.25-13.4a59.26,59.26,0,0,1,8.48-16.44c7.27-10.54,15-20.71,24.57-29.38,3.25-2.94,6.54-6.12,10.72-7.38,6.25-1.92,11.32-5.8,16.92-8.8,8.37-4.45,17-8.19,26.34-10.09,4.6-.93,9.26-1.46,13.91-.37,8,1.9,10.06,4.86,8.49,12.81-1.13,5.73-3.88,10.87-6.79,15.88a126,126,0,0,1-22.28,27.68A11.45,11.45,0,0,0,46,256.8c-3.42,13.48-7,26.92-10.49,40.35-.13.51-.42.94-.09,1.49a3.93,3.93,0,0,0,2.33-1.22c8.46-6.67,16.94-13.29,25.33-20A38.85,38.85,0,0,0,71.4,269a4.17,4.17,0,0,0,1.42-2.62c1-3.57,2.59-6.79,5.66-9.06a2.51,2.51,0,0,0,.74-3.09,1.08,1.08,0,0,0-1.22.46c-2.66,2.92-5.34,5.81-6.73,9.6-.5,1.38-1.24,2.09-2.68,1.11a3.47,3.47,0,0,1-.21-3.48c2.48-5.38,6-9.8,11.43-12.46s10.39-1.54,14.24,2.83c1.2,1.37,2.25,2.86,3.53,4.47,1.48-1.14,2.92-2.35,4.46-3.42,1.29-.85,2.47-2.29,4.36-1.35a4.42,4.42,0,0,1,2.35,4.81,34,34,0,0,1-4.27,6.91c-.91,1.08-1.91,2.11-2.74,3.24-1,1.42-.76,2,1,3.22,1.65.27,2.93-.65,4.18-1.48a111.18,111.18,0,0,0,13.41-9.93c1.4-1.26,2.62-2.48,2.81-4.53a6.51,6.51,0,0,1,1.24-3,3.67,3.67,0,0,1,3.64-1.72c1.46.18,2.85.63,3.55,2s-.26,2.46-1.09,3.5c-.26.31-.48.61-1,1.29a26.27,26.27,0,0,0,13.81,1c1.22-.24,1.77-1.62,2.75-2.31.74-.57,1.48-1.11,2.48-.7,1.18.48,1.22,1.48,1,2.55a24.49,24.49,0,0,1-2,2.2c-3.38,2.74-6.84,5.36-10.19,8.14-1.33,1.14-2.92,2-4,3.49A7.17,7.17,0,0,0,136.2,271.84Zm-12.78,43.94v.09c1.48.08,2.35-1,3.22-1.91a131.55,131.55,0,0,0,9.59-11.63,6.24,6.24,0,0,0,1.13-5.42c0-1,.24-2-.79-2.76a2,2,0,0,0-.74.43c-4.83,5.71-9.58,11.48-13.26,18a5.9,5.9,0,0,0-1,2.49c0,.9.35,1.35,1.26,1.2.37.07.48-.21.59-.49ZM69.65,205.57v-.07A6.8,6.8,0,0,0,63.29,200a28.77,28.77,0,0,0-8.49.24,60.15,60.15,0,0,0-15,5,151.43,151.43,0,0,0-51.21,39,71.78,71.78,0,0,0-12,18.66c-.95,2.29-2.2,4.6-1.86,7.23a10.75,10.75,0,0,0-.12,3.58c0,.21.05.43.07.67.59,3.4,3,4.88,6.07,5.49a20.48,20.48,0,0,0,4.56.19A45.87,45.87,0,0,0-.3,276.48c13.15-5.16,24.92-12.69,35.93-21.43,10.06-8,19.17-16.92,26.49-27.55a48.2,48.2,0,0,0,7.16-14c.72-2.43,1.44-4.87.46-7.44l.15-.16a.73.73,0,0,0-.24-.33Zm-107.52,192v1.7a.69.69,0,0,0,.14.85,12.92,12.92,0,0,0,.22,1.5c1.2,4.16,4.1,5.44,7.92,3.46a24.17,24.17,0,0,0,5.32-4,88.09,88.09,0,0,0,10-11.49C-.1,370.58,8.9,349,16.55,326.74c.15-.48.3-1,.42-1.44.18-.67.64-1.48-.09-2s-1.32.24-1.88.61a53.08,53.08,0,0,0-7.36,6.36,219.9,219.9,0,0,0-38.21,47.29c-2.71,4.56-5.21,9.2-6.57,14.36C-37.62,393.75-38.44,395.58-37.87,397.56Zm130.8-137.3c-.07-4.2-1.92-7.32-4.71-8.36-3-1.13-3.63-.74-3.66,2.57v.61c.27,2.2-.56,3.68-2.35,5.16a11.31,11.31,0,0,0-4.53,8.91,3.46,3.46,0,0,0,3.24,3.65,3.76,3.76,0,0,0,1.29-.17,7.79,7.79,0,0,0,2.7-1.35,34.11,34.11,0,0,0,5.78-5.35A8.59,8.59,0,0,0,92.93,260.26Z"/><path class="cls-3" d="M190.5,227.26a14.49,14.49,0,0,1-.74-3.24c0-3.64,1.92-5.27,5.42-4.44a7,7,0,0,1,5.77,7.18c0,.61-.08,1.2-.13,1.81-3.26,2.68-6.12,2.57-9.21-.31C191.24,227.94,190.89,227.61,190.5,227.26Z"/><path class="cls-7" d="M67.32,122.26c-101.1,0-183.08,82-183.08,183.08s82,183.08,183.08,183.08,183.07-82,183.07-183.08S168.44,122.26,67.32,122.26Zm0,354.42A171.33,171.33,0,1,1,238.65,305.34,171.33,171.33,0,0,1,67.32,476.68Z"/><path class="cls-8" d="M67.32-2.49c-170,0-307.83,137.82-307.83,307.83S-102.67,613.2,67.32,613.2,375.13,475.35,375.13,305.34,237.33-2.49,67.32-2.49Zm0,597.59c-160,0-289.73-129.74-289.73-289.76S-92.68,15.59,67.32,15.59,357.13,145.35,357.13,305.34,227.35,595.1,67.32,595.1Z"/><path class="cls-8" d="M-55.73,74.46c.65,1.91,1.81,1.48,2.74,1.43,3.18-.19,3.2-.61,4.69,2.94,4.54,10.87,9,21.76,13.65,32.59,1.3,3,2,5.49-1.48,7.4-.35.18-.39,1-.57,1.53.61.08,1.34.45,1.82.26,3.87-1.55,7.7-3.18,11.51-4.84.26-.08.44-.39.83-.76-1.5-2.64-4-.07-6.16-1.46-4.53-10.26-8.93-21.17-13.25-32.15a6.18,6.18,0,0,1,2.12.79L0,104c2.63,1.44,2.66,1.42,5.09-.7q-.87-2.15-1.78-4.44c-4.81-11.5-9.56-23-14.46-34.52-1.24-2.85-1.7-5.12,1.45-6.9.42-.24.44-1.14.66-1.75-.62,0-1.35-.3-1.87-.08-3.68,1.48-7.32,3-11,4.57a6.17,6.17,0,0,0-1.11.87c1.25,1.37,1.3,1.53,2.81,1.18,3.15-.7,3.25.13,4.24,2.53Q-10.59,77.64-5.22,90.6c.24.61.36,1.26.65,2.26-2.08-1.13-3.78-2-5.46-3C-21.16,83.8-32.29,77.68-43.44,71.63c-.94-.5-2.23-1.31-3-1C-49.57,71.69-52.57,73.13-55.73,74.46Z"/><path class="cls-8" d="M288.92,227.2c6.47-2,12.31-4.23,18.58-5.75,1.63,5.2,3.2,10.1,4.77,15.13-2.44,1.66-4.75,3.2-7.3,5,.7.58,1.07,1.17,1.4,1.15a58.4,58.4,0,0,0,11.17-1.59c-3.33-10.52-6.58-20.75-9.82-31-.18-.55-.48-1.09-.72-1.63,0-.07-.18-.09-.26-.14h-.31c-1.2.35-1,1.37-1,2.24,0,4.47-.57,3.73-3.73,4.77-11.45,3.75-23,7.37-34.47,11-3.42,1.09-3.44,1.05-5.73-1.82-.2-.24-.33-.61-.57-.7a2.92,2.92,0,0,0-1.59-.31c-.17,0-.32.81-.35,1.27a4,4,0,0,0,.35,1.17q4.57,14.5,9.19,29a14.93,14.93,0,0,0,1,2c4.09-1.06,8.1-2.07,12.08-3.09-.13-.65-.13-1.17-.26-1.2-3.4-.8-6.79-1.56-10.32-2.35-1.61-5.09-3.25-10.21-5-15.7,6.58-2.11,13-4.21,19.21-6.23.39.5.57.63.63.83.66,2,1.33,4,1.94,6.07.41,1.44,1.22,3.07.87,4.34-.33,1.07-2.09,1.72-3.2,2.59-.09.07-.22.09-.24.15-.24.59-.48,1.2-.7,1.77.59.21,1.31.74,1.79.56,4.14-1.3,8.25-2.72,12.37-4.14.13,0,.2-.34.31-.52-.07-1.15-.79-1.52-1.83-1.5a16.7,16.7,0,0,1-3,0,2.68,2.68,0,0,1-1.85-1.15C291.13,234.14,290.13,230.85,288.92,227.2Z"/><path class="cls-8" d="M116.45,76.57c3.14.78,6,1.46,8.8,2.18s2.87.78,3,3.59a8.33,8.33,0,0,0,.13,2.11,1.85,1.85,0,0,0,1.13,1.14,1.73,1.73,0,0,0,1.31-.87c1.07-4,2.07-8.06,3-12.11.08-.44-.37-1.44-.57-1.44a2.39,2.39,0,0,0-1.74.65c-.7.83-1,2-1.72,2.83a2.54,2.54,0,0,1-1.94,1c-3.46-.65-6.88-1.55-10.54-2.42,1.59-6.4,3.07-12.48,4.64-18.84,4.59,1.12,8.93,2.14,13.24,3.21,2.46.61,2.46.67,2.59,3.31.09,1.89.13,3.79.22,5.92.8-.19,1.39-.17,1.7-.46.87-.87,4-8.8,4.16-10.34-.55-.18-1.11-.37-1.68-.5l-29.27-7.12a4.14,4.14,0,0,0-1.48-.24,1.62,1.62,0,0,0-1.16.63c-.13.17.11.76.33,1a6.84,6.84,0,0,0,1.24.89c2.86,1.9,2.9,1.9,2.11,5.1q-4.31,17.42-8.64,34.85c-1,4.07-1,4.07-5.16,4.64-1,.11-1.81.3-1.44,2,5.44,1.31,11,2.7,16.62,4s11.26,3.09,17.14,4c1.3-4.2,2.78-8,3.61-12-1.37-.78-2-.13-2.61.61-1.31,1.57-2.7,3-3.86,4.73s-2.41,1.85-4.2,1.37c-3.11-.83-6.29-1.55-9.43-2.31-1.35-.35-2.68-.72-4.33-1.17C113.27,89.7,114.84,83.26,116.45,76.57Z"/><path class="cls-8" d="M185,130.41a39.31,39.31,0,0,0,9.6,10.6A26.9,26.9,0,0,0,206,146.35c9.62,1.92,17.81-7.93,15.13-15.68-1.32-3.83-3.11-7.49-4.61-11.24a45.43,45.43,0,0,1-2.42-6.86c-.83-3.51.61-6.4,3.4-8.56s5.7-1.92,8.62-.57a17.3,17.3,0,0,1,6.21,5.28,3,3,0,0,1,.41,3.63c-.91,1.81-1.74,3.68-2.53,5.56a1.49,1.49,0,0,0,.27,1.3,1.35,1.35,0,0,0,1.32,0c2.81-2.29,5.56-4.64,8.43-7.08A49.37,49.37,0,0,0,230.07,102a23.7,23.7,0,0,0-9.06-4.2c-9.67-2.13-17.75,5.92-15.57,15.57a33.55,33.55,0,0,0,2,5.73c1,2.42,2.38,4.73,3.36,7.17a24.75,24.75,0,0,1,1.72,5.79c.76,5.66-5.14,11.22-11.17,8.86a19.3,19.3,0,0,1-9-7.4,2.53,2.53,0,0,1,0-2.86c1.09-2.17,2.13-4.37,3.07-6.62.19-.5-.16-1.22-.24-1.85-.55.11-1.24,0-1.61.37C190.7,125.12,188,127.66,185,130.41Z"/><path class="cls-8" d="M312.18,290.44a8.66,8.66,0,0,0,.07,1.35,60.4,60.4,0,0,0,12,1,45.16,45.16,0,0,0-.11-14.81,23.21,23.21,0,0,0-3.48-9c-5.84-9.17-17.77-6.71-21.63.11a85.53,85.53,0,0,0-3.74,8.28c-1.29,3-2.25,6.12-3.77,9-1.72,3.27-4.75,4.59-8.43,4.31s-5.88-2.53-7.06-5.84a21.45,21.45,0,0,1-1-8.71,4.42,4.42,0,0,1,3.73-4.42,49.53,49.53,0,0,0,5.44-1.94c.5-.24.76-1,1.16-1.48-.46-.32-.92-.93-1.38-1-3.83-.06-7.64,0-11.45,0a37.71,37.71,0,0,0-.7,15.07,27.88,27.88,0,0,0,3.79,10.19c5.27,8.56,18.69,8.15,23-1.24,1.08-2.39,2-4.9,3-7.32a74.09,74.09,0,0,1,3.7-8.64,8.36,8.36,0,0,1,9.08-4.18c3.73.78,5.64,3.37,6.54,6.86a15.79,15.79,0,0,1-.31,9.08C317.74,288.26,315,289.31,312.18,290.44Z"/><path class="cls-8" d="M66,95.39c3.85.3,3.85.3,5.22-2.86Q78.11,76.44,85,60.34c1.33-3.07,2.7-6.12,4-9.21a5.36,5.36,0,0,1,3.9-3.48,4.2,4.2,0,0,0,1.72-.59,6.22,6.22,0,0,0,1-1.55c-3-.74-13.83-.76-15.61-.13-.35,1.7,1,1.64,2,2,2.51.87,2.66,1.22,1.79,3.78-.26.74-.52,1.53-.83,2.27q-6,15-12.11,29.92c-.22.57-.52,1.07-.91,1.9-.37-.85-.63-1.37-.83-1.92Q63.76,67.63,58.36,52c-.24-.68-.43-1.37-.6-2.05a1.89,1.89,0,0,1,1.05-2.46,1.74,1.74,0,0,1,.39-.11,13.87,13.87,0,0,0,2.58-.91.92.92,0,0,0,.27-1.28.9.9,0,0,0-.53-.38,7.84,7.84,0,0,0-1.81-.11c-4.77,0-9.54-.06-14.32-.06a8.32,8.32,0,0,0-1.55.3c-.24,1.35.52,1.7,1.34,1.85,3.39.61,4.69,3,5.7,6,3.74,10.85,7.59,21.65,11.41,32.45C63.55,88.66,64.8,92.06,66,95.39Z"/><path class="cls-8" d="M250.31,207c2.17-1.11,1.22-2.5,1-3.63-.74-3.55-.81-3.58,2.18-5.32q16.26-9.6,32.56-19.17c.56-.34,1.19-.56,2-1,2.07,3.57,4,6.94,6,10.34-2.22,2.72-5.12,4.53-7.14,7.43.69.35,1.11.78,1.37.7,4-1.38,8-2.81,12.22-4.36-7.54-12.89-14.81-25.37-22.09-37.81-3.4,1.55-9.43,5.82-10.89,7.67,1.7,1.57,3.44.22,5.1,0s3.53-.68,5.44-1.07c2.07,3.55,4,6.95,6.1,10.43-.61.42-1,.74-1.39,1-5.34,3.14-10.67,6.3-16,9.41q-8.92,5.23-17.9,10.39c-2.14,1.22-2.18,1.18-4-.39-.76-.68-1.48-1.4-2.26-2s-1.48-.28-2,.81C243.77,195.77,247,201.26,250.31,207Z"/><path class="cls-6" d="M77.94,551.26a4.93,4.93,0,0,0-.11-.67c1-.68,2-1.31,3-2,3.57-2.7,7.27-5.22,10.58-8.19a19.69,19.69,0,0,0,4.49-6.07c3-6.34.28-12.52-6.45-14.48-7.49-2.18-14.13.15-20.29,4.31,1,2.74,1,2.81,3.13,1.87a16.7,16.7,0,0,1,8.91-1.52c5.68.56,8.82,5.11,7.3,10.6a10,10,0,0,1-1.68,3.55,38.09,38.09,0,0,1-5.34,5.8c-3.66,3-7.58,5.79-11.39,8.66-2.11,1.59-2.11,1.59-1,4.49,10.52-.22,21.13-.46,31.63-.7,1-3.9,1.06-10.56-.18-13.39-.43.87-.7,1.39-.94,1.94a28.3,28.3,0,0,0-1.52,3.31c-.59,1.74-1.76,2.22-3.48,2.24-3.55,0-7.13.2-10.68.28C82,551.26,80,551.26,77.94,551.26Z"/><path class="cls-8" d="M255,126.64c-1.68,1-.81,2-.48,2.87,1.24,3.23,1.28,3.25-1.33,5.54q-13.29,11.59-26.64,23.17c-.84.74-1.74,1.42-2.59,2.16a2,2,0,0,1-2.74.17A15.45,15.45,0,0,0,218.6,159a1.32,1.32,0,0,0-1.29.28c-.2.28-.06.89,0,1.33.09.28.37.48.57.74,3.14,3.57,6.25,7.19,9.41,10.76a6.53,6.53,0,0,0,1.33,1c1.63-1,.67-2,.3-3-1.18-3-1.22-3,1.18-5.12q13.4-11.73,26.85-23.39c.67-.61,1.42-1.17,2.07-1.78,1.18-1.18,2.37-1.44,3.75-.35a5.48,5.48,0,0,0,1.8,1.11,4.21,4.21,0,0,0,1.62-.07,14.26,14.26,0,0,0-.29-1.61c-.08-.26-.39-.48-.59-.69l-9-10.33A12.17,12.17,0,0,0,255,126.64Z"/><path class="cls-8" d="M273.87,310.46c-.7,6.08-.83,12-1.26,17.82,2.2.65,2.29-.89,2.72-1.9,1.29-3,1.26-3,4.46-2.74,11.85.74,23.72,1.44,35.55,2.18,1.42.08,3.14-.15,4.12.56s1.19,2.38,1.69,3.66c.33,1,.75,1.7,2.18,1,.35-5.68.72-11.49,1.14-17.6-3.21.5-2.38,3.62-4.4,5-.57,0-1.59.05-2.57,0-4.16-.21-8.3-.41-12.46-.67q-12.62-.78-25.2-1.63c-2.85-.22-2.81-.31-3.62-3C275.92,312.11,276.13,310.7,273.87,310.46Z"/><path class="cls-8" d="M9.51,51.09c1.25,2.89,4,1.48,5.72,2.74a16.55,16.55,0,0,1,.58,1.85q3.63,19.44,7.26,38.9a2.16,2.16,0,0,1-1.28,2.72,8.35,8.35,0,0,0-1.86,1c-.49.41-1.2,1.06-1.13,1.5.15,1.09,1.08.91,1.91.74,4.39-.87,8.79-1.68,13.15-2.59.92-.2,2.67.35,2.48-1.42-.16-1.43-1.73-1.09-2.75-1.24-2.69-.39-2.79-.39-3.3-3C28,80.42,25.89,68.53,23.52,56.68c-.63-3.09-.85-5.57,2.86-6.68.43-.13.63-1,.93-1.59-.52-.18-1.09-.57-1.57-.5C20.49,48.89,15.23,50,9.51,51.09Z"/><path class="cls-6" d="M3.31,509.26c-.34,1-.63,1.94-1,2.88-2.6,6.49-5.18,13-7.84,19.49-1.91,4.66-1.3,5-6.78,4-1-.17-2.19-.65-3.28,1,6.53,2.66,12.86,5.25,19.22,7.8a6.27,6.27,0,0,0,1.73,0c-.7-1.64-.71-1.64-3.3-3.46s-2.53-2-1.36-4.8c3.53-8.54,7.11-17,10.67-25.59.4-1,.79-2,1.12-2.9-.39-.39-.52-.6-.68-.65-4.54-1-9.11-2.11-13.67-3.09-.45-.09-1,.26-1.76.48C-1.82,506.93,1.18,507.11,3.31,509.26Z"/><path class="cls-8" d="M267.19,132a4.21,4.21,0,1,0-4.23-4.23A4.34,4.34,0,0,0,267.19,132Z"/><path class="cls-8" d="M17.21,36.91a4.2,4.2,0,0,0-4.39,4c-.08,2.57,1.53,4.42,3.88,4.44a4.23,4.23,0,0,0,4.4-4V41a3.94,3.94,0,0,0-3.74-4.13Z"/><path class="cls-8" d="M336.33,323.14a4,4,0,0,0-3.79-4.2h-.39a3.9,3.9,0,0,0-4.14,3.64,4.51,4.51,0,0,0,0,.52,4,4,0,0,0,3.83,4.16h.36a3.8,3.8,0,0,0,4.13-3.42A4.09,4.09,0,0,0,336.33,323.14Z"/><path class="cls-8" d="M187.76,75.26a39.73,39.73,0,0,0-6.19-3.81c-5-2.57-10.19-5-15.31-7.45a13.53,13.53,0,0,0-1.85-.65c-1.35,1.54.09,2.13.76,2.83,2.68,2.7,2.33,2.35.81,5.42-5.49,11-11.07,21.93-16.6,32.87-.52,1-1.11,1.91-1.44,2.48-2.13,1.44-4.61-1.44-6.57,1.48,5.44,2.7,10.56,5.27,15.94,7.95,1.07-3-2.48-3.46-2.53-6,2.7-5.36,5.6-11.15,8.52-16.95,2.92.68,4.64,2,4.72,5,0,2,.31,4,.44,6,.22,3.77.35,7.52.7,11.26.61,6.86,3.5,10.24,10.08,12.09,1,.28,1.81.31,2-1.26-3.49-2.57-4.16-6.56-4.53-10.67-.33-3.53-.57-7.06-.87-10.61-.2-2.33-.4-4.62-.64-7.38,2.07,0,3.68.08,5.27,0,5.8-.4,10.18-4.12,12-10.11C193.94,83.1,192.4,78.79,187.76,75.26ZM182.4,89.74c-2.09,3.29-5.12,4.88-9.06,4.14a23.46,23.46,0,0,1-8.41-3.72l9.2-18.29a20.58,20.58,0,0,1,8.26,4.39,8.15,8.15,0,0,1,1.74,2.09c2.15,4.19.53,7.91-1.73,11.37Z"/><path class="cls-6" d="M143.13,518.54c-7.12-4.07-16.81-2.7-22.3,3.44-.59.64-1.18,1.25-1.83,2a5.11,5.11,0,0,1-.35-.8,7.06,7.06,0,0,1,0-.92c.61-9,4-16.51,11.48-21.91,2.3-1.65,4.81-3,7.25-4.48,1.59-1,1.59-1,.37-3.33-6.6,2.76-12.61,6.07-17.53,11.1a32.44,32.44,0,0,0-6.41,36.14c5.14,11.41,17.67,15.7,28.25,9.49C155.83,541.15,152.43,523.9,143.13,518.54Zm-5.79,29.72a9.24,9.24,0,0,1-9.22-1.39A18.87,18.87,0,0,1,120.44,529c.78-7.34,9.43-11,15.59-6.75,5.4,3.7,7.12,9.32,7.58,14.59C143.61,543,141.32,546.81,137.34,548.26Z"/><path class="cls-6" d="M45.45,515.91c-7.38-2.35-14.16-1.07-19.68,4.51a16.81,16.81,0,0,0-4.46,17.42C23.24,544.37,28,548,34.59,549.49c4.38,1,8.47.2,12.72-1.63-.3.61-.57,1.24-.91,1.85-5.66,9.71-14.23,14.75-25.35,15.59a9.91,9.91,0,0,0-2.43.22,1.6,1.6,0,0,0-1,1.22,2,2,0,0,0,.94,1.33,3.23,3.23,0,0,0,1.48.17,41.83,41.83,0,0,0,21.69-5.07c11.61-6.45,18.34-19.3,16.35-31.86C56.94,523.81,52.88,518.33,45.45,515.91Zm3.25,25.31c-1.74,3.42-4.47,5.53-8.43,5.55A9.91,9.91,0,0,1,31,541.5c-3-5.49-2.15-15.09,1.84-20,4.35-5.29,11.41-5,15.25.67a17.23,17.23,0,0,1,2.74,9.67,23.39,23.39,0,0,1-2.1,9.42Z"/></g><g id="Layer_1-2" data-name="Layer 1-2"><circle class="cls-9" cx="1269.71" cy="310.46" r="316.23"/><path class="cls-6" d="M1209.85,306.28c2.92,3.33,6.69,3.24,10.58,2.53a51.34,51.34,0,0,0,15.76-6.07,76.29,76.29,0,0,0,8.54-5.46.81.81,0,0,1,.73-.19,5.21,5.21,0,0,1-.42,2.64c-.44-.61-.82-.24-1.26,0-2.36,1.58-4.7,3.15-7.18,4.53a51.81,51.81,0,0,1-16.22,6.31,13.5,13.5,0,0,1-6.71-.22,6.61,6.61,0,0,1-3.12-2.09A2.37,2.37,0,0,1,1209.85,306.28Z"/><path class="cls-6" d="M1264.19,298c.8.53,1.19.14,1.48-.59a16.64,16.64,0,0,1,3.7-5.28.56.56,0,0,1,.65-.24,1.35,1.35,0,0,1-.4,1.68,8.86,8.86,0,0,0-3.11,5,2.23,2.23,0,0,1-.77,1.41C1264.26,299.79,1264.26,299.79,1264.19,298Z"/><path class="cls-6" d="M1264.82,265.31a2.22,2.22,0,0,1-.6-.24,6,6,0,0,0-3.71-1.18c-4.21-.2-8,1.27-11.67,2.9a82.55,82.55,0,0,0-17.71,11.09c-1.27,1-2.53,2.19-3.73,3.33A70.31,70.31,0,0,0,1220,289a38.91,38.91,0,0,0-6,9.9c-.23.62-.23,1.48-1,1.78a7.78,7.78,0,0,1,1-4,39.15,39.15,0,0,1,6.54-10.21,83.09,83.09,0,0,1,28-21.35,33.39,33.39,0,0,1,8.2-2.74,15.42,15.42,0,0,1,4.65-.14A3.7,3.7,0,0,1,1264.82,265.31Z"/><path class="cls-6" d="M1235.71,331.68a8.06,8.06,0,0,0-3.56,2.61,132.55,132.55,0,0,0-13.71,14.91,111.56,111.56,0,0,0-10,15.26,20,20,0,0,0-2,5.06c-.09.38-.07.79-.55.93a5.89,5.89,0,0,1,.43-3.1,31.8,31.8,0,0,1,3.59-7.87,120.9,120.9,0,0,1,20.86-25.86,28.43,28.43,0,0,1,4-3.48c.3-.2.64-.61,1-.34s.14.72,0,1.07A5,5,0,0,0,1235.71,331.68Z"/><path class="cls-6" d="M1330.92,277.33c.21.17.4.35.61.55a3.35,3.35,0,0,0,4.73.47,2.27,2.27,0,0,0,.32-.3,1.81,1.81,0,0,1-.72,2.47,1.36,1.36,0,0,1-.3.13,3.68,3.68,0,0,1-4.52-2.58A3.09,3.09,0,0,1,1330.92,277.33Z"/><path class="cls-6" d="M1203.53,375.37a.71.71,0,0,1,.14.1c2.27,2.7,4.57,3.2,7.8,1.7a23.85,23.85,0,0,0,6-4.21,68,68,0,0,0,11.32-14.56,121.19,121.19,0,0,0,12.86-27.71c.79-2.52,1.53-5,2.17-7.52a5.55,5.55,0,0,1,1.9-3c3.91-3.35,7.92-6.63,11.93-9.89,2.72-2.19,5.36-4.48,8.06-6.72,1.11-.9,1.12-.86,2.28-.06a5.57,5.57,0,0,0,5,.41,9.51,9.51,0,0,0,3.18-1.78c1.05-.83,1.26-.8,2.31,0a6.75,6.75,0,0,1,1.45,1.61c1.8,2.27,3.69,2.44,5.78.39a69,69,0,0,1,7.45-6.64,10.79,10.79,0,0,1,2.1-1.36c1.58-.67,2.72.19,2.67,2-1.27-1-2.37-.53-3.47.27a50.44,50.44,0,0,0-7.44,6.32,11.08,11.08,0,0,1-2,1.72,3.14,3.14,0,0,1-4.41-.51,3.27,3.27,0,0,1-.25-.36,12.07,12.07,0,0,0-1.64-1.86c-1-.89-1.27-.86-2.27,0a7.9,7.9,0,0,1-5.63,2.1,4.41,4.41,0,0,1-2.77-.91,1.12,1.12,0,0,0-1.59,0l0,0c-1.76,1.26-3.31,2.78-5,4.12-2,1.6-4,3.29-6,4.95-2.69,2.22-5.36,4.49-8,6.74-.09,0-.16.18-.24.21-2.4,1.27-3,3.57-3.6,5.9a119.27,119.27,0,0,1-6.08,17.41,127.88,127.88,0,0,1-12.31,21.85,45.15,45.15,0,0,1-9.9,10.69c-2.12,1.61-4.41,3-7.32,2.77A4.56,4.56,0,0,1,1203.53,375.37Z"/><path class="cls-6" d="M1291.14,332.49a2.41,2.41,0,0,0,2.36-.3,12.88,12.88,0,0,0,2.53-2.13,98.09,98.09,0,0,0,8.68-10.71,21.09,21.09,0,0,0,3.1-6.53.61.61,0,0,1,.28.57,14.08,14.08,0,0,1-1.79,5.65,89.88,89.88,0,0,1-6.23,8.4c-1.18,1.4-2.53,2.67-3.61,4.13a9.59,9.59,0,0,1-3,2.38C1292,334.84,1291.21,334.36,1291.14,332.49Z"/><path class="cls-6" d="M1307.24,307.17c-.53-.41-.47-.8,0-1.27.83-.88,1.62-1.81,2.46-2.69,1.78-1.84,3.57-3.66,5.37-5.48.49-.52,1-1,1.64-.19,2,2.53,4.8,2.76,7.71,2.53a7.28,7.28,0,0,0,1-.14c0,.34.08.66.1,1a.83.83,0,0,1-.8.81c-2.78.17-5.41,0-7.44-2.33-.81-1-1-.88-2,.08-2.2,2.17-4.37,4.39-6.56,6.56C1308.25,306.52,1307.93,307.08,1307.24,307.17Z"/><path class="cls-6" d="M1292.48,302.74a39.84,39.84,0,0,1,7.66,1.38,9,9,0,0,1,3.44,2c.6.56.61,1-.07,1.44-1.52-1.54-3.57-1.82-5.52-2.39-1.63-.48-3.4-.1-5-.82-.23-.52.29-.65.5-.95C1293.26,303,1292.6,303.28,1292.48,302.74Z"/><path class="cls-6" d="M1301.13,301.78a3.84,3.84,0,0,1-1.6-.77,13.43,13.43,0,0,1,2.22-1.9c1.82-1.53,3.72-3,5.56-4.47a10.78,10.78,0,0,0,1.14-1.2c.45,1.72.27,2-1.2,3.15-1.92,1.47-3.79,3-5.63,4.54A3.82,3.82,0,0,0,1301.13,301.78Z"/><path class="cls-6" d="M1301.76,315.52c-.91.26-1.26,1.12-1.87,1.78a55.89,55.89,0,0,0-4.85,6.49,4.29,4.29,0,0,0-.92,2.1h0l-.34.28c-.51.09-.72-.17-.68-.66a3,3,0,0,1,.54-1.35,61.71,61.71,0,0,1,7.26-9.88,1.14,1.14,0,0,1,.41-.24C1301.9,314.39,1301.8,315,1301.76,315.52Z"/><path class="cls-10" d="M1301.19,301.73l2.53,1.34a11,11,0,0,1,2,1.63c.62,0,.77-.49,1-.81,3.8-4.53,7.42-9.14,11.54-13.34a3.51,3.51,0,0,1,3-1.13c.67,0,1,.35,1,1.06V294a10.81,10.81,0,0,0,.11,1.5c.29,1.39.94,1.74,2.25,1.26a.87.87,0,0,1,.78-.13,11.69,11.69,0,0,1,.06,3.34c-.34,0-.66.11-1,.13-2.92.19-5.66-.08-7.7-2.53-.62-.76-1.15-.33-1.67.18-1.77,1.84-3.58,3.65-5.34,5.49-.85.87-1.63,1.81-2.47,2.69-.41.47-.48.86,0,1.27a15.63,15.63,0,0,1,.57,5.65,21.09,21.09,0,0,1-3.1,6.53,101.37,101.37,0,0,1-8.69,10.71,12,12,0,0,1-2.53,2.13,2.42,2.42,0,0,1-2.35.31h0a.46.46,0,0,0-.24-.41c-.19-1-.32-2.08-.56-3.1a7.1,7.1,0,0,1,1-5.26,76.55,76.55,0,0,1,6.92-9.76c1.73-2.15,3.5-4.27,5.28-6.42.68-.45.67-.88.07-1.46a9,9,0,0,0-3.44-1.93,37.68,37.68,0,0,0-7.66-1.39.58.58,0,0,1,.34-.66c1.17-.67,2.34-1.41,3.5-2.12.71-.43,1.43-.86,1.48-1.83,0-1.85-1.09-2.71-2.67-2a11.1,11.1,0,0,0-2.1,1.36,69,69,0,0,0-7.45,6.64c-2.09,2.05-4,1.88-5.78-.39a6.71,6.71,0,0,0-1.44-1.61c-1.08-.77-1.27-.81-2.32,0a9.46,9.46,0,0,1-3.17,1.78,5.57,5.57,0,0,1-5-.41c-1.16-.8-1.18-.84-2.29.06-2.69,2.24-5.34,4.53-8.06,6.72-4,3.26-8,6.54-11.93,9.89a5.53,5.53,0,0,0-1.89,3c-.65,2.53-1.38,5.06-2.18,7.52a120.89,120.89,0,0,1-12.85,27.76A68.6,68.6,0,0,1,1217.48,373a24.21,24.21,0,0,1-6,4.21c-3.23,1.5-5.53,1-7.81-1.7a.71.71,0,0,0-.14-.1,6.64,6.64,0,0,1-.81-3.46,15.8,15.8,0,0,1,1.42-7.45,54.61,54.61,0,0,1,5.27-9.26,131.79,131.79,0,0,1,18.29-22.68c3-2.86,6-5.66,9-8.44a8.72,8.72,0,0,0,2.53-3.87c2.12-6.73,4.17-13.47,5.79-20.35a5.29,5.29,0,0,0,.41-2.63.74.74,0,0,0-.72.19,74.89,74.89,0,0,1-8.56,5.43,50.45,50.45,0,0,1-15.79,6c-3.9.68-7.67.77-10.59-2.53a10.26,10.26,0,0,1-.14-7.34,32.85,32.85,0,0,1,4.64-9A91.73,91.73,0,0,1,1227.75,274a16.43,16.43,0,0,1,5.87-4c3.43-1.05,6.2-3.17,9.26-4.82a54.4,54.4,0,0,1,14.42-5.53,17.82,17.82,0,0,1,7.59-.2c4.4,1.05,5.51,2.67,4.65,7a28.48,28.48,0,0,1-3.72,8.69,68.9,68.9,0,0,1-12.19,15.18,6.34,6.34,0,0,0-1.86,3.21q-2.8,11.07-5.75,22.1c-.07.27-.23.51,0,.81a2,2,0,0,0,1.26-.67c4.64-3.65,9.28-7.27,13.91-11a21.49,21.49,0,0,0,4.55-4.63,2.3,2.3,0,0,0,.77-1.43,8.64,8.64,0,0,1,3.1-4.95,1.38,1.38,0,0,0,.4-1.7.59.59,0,0,0-.67.24,16.61,16.61,0,0,0-3.68,5.26c-.28.76-.68,1.15-1.47.61a1.89,1.89,0,0,1-.11-1.91,13.43,13.43,0,0,1,6.26-6.82,6.13,6.13,0,0,1,7.79,1.56c.66.74,1.27,1.55,1.94,2.44.81-.62,1.59-1.26,2.44-1.87s1.35-1.27,2.39-.74a2.35,2.35,0,0,1,1.26,2.64,18.88,18.88,0,0,1-2.32,3.79c-.51.59-1,1.15-1.51,1.77s-.42,1.1.57,1.77a3.21,3.21,0,0,0,2.29-.81,59.89,59.89,0,0,0,7.35-5.44,3.8,3.8,0,0,0,1.53-2.53,3.66,3.66,0,0,1,.68-1.67,2.05,2.05,0,0,1,2-.95,2.32,2.32,0,0,1,1.94,1.11c.4.77-.14,1.34-.6,1.92-.18.22-.36.45-.52.69a14.22,14.22,0,0,0,7.59.55c.67-.14,1-.89,1.51-1.27s.81-.6,1.37-.38a1.17,1.17,0,0,1,.56,1.39,12.26,12.26,0,0,1-1.12,1.27c-1.85,1.5-3.8,2.93-5.58,4.46a12.52,12.52,0,0,0-2.2,1.91A3.76,3.76,0,0,0,1301.19,301.73Zm-7,24h0a2.45,2.45,0,0,0,1.76-1,70.53,70.53,0,0,0,5.24-6.32,3.41,3.41,0,0,0,.62-3c0-.55.13-1.13-.43-1.52a1.19,1.19,0,0,0-.4.24,63.9,63.9,0,0,0-7.26,9.88,3.18,3.18,0,0,0-.57,1.35c0,.5.2.75.7.66.21,0,.27-.1.34-.25Zm-29.45-60.35h0a3.72,3.72,0,0,0-3.48-3,16.1,16.1,0,0,0-4.65.12,33.74,33.74,0,0,0-8.19,2.74,83.09,83.09,0,0,0-28,21.36,39.06,39.06,0,0,0-6.54,10.21,7.73,7.73,0,0,0-1,4,5.86,5.86,0,0,0-.06,2v.37a3.64,3.64,0,0,0,3.32,3,11.29,11.29,0,0,0,2.53.1,24.65,24.65,0,0,0,7.88-2,76.88,76.88,0,0,0,19.67-11.74,70.12,70.12,0,0,0,14.51-15.08,26.14,26.14,0,0,0,3.92-7.67,6.19,6.19,0,0,0,.26-4.09l.07-.08a1.29,1.29,0,0,0-.16-.17Zm-58.9,105.12v.93a.37.37,0,0,0,.08.47,7.35,7.35,0,0,0,.11.82c.66,2.28,2.26,3,4.34,1.9a13.34,13.34,0,0,0,2.91-2.2,46.83,46.83,0,0,0,5.45-6.32c7.77-10.41,12.65-22.24,16.88-34.4.09-.26.16-.53.24-.78s.34-.82,0-1.08-.72.13-1,.33a28.36,28.36,0,0,0-4,3.48,120.21,120.21,0,0,0-20.87,25.88,31.09,31.09,0,0,0-3.6,7.86,6.1,6.1,0,0,0-.48,3.13Zm71.65-75.19c0-2.3-1-4-2.53-4.58s-2-.42-2,1.41a1.71,1.71,0,0,0,0,.32,3,3,0,0,1-1.26,2.84,6.15,6.15,0,0,0-2.53,4.87,1.88,1.88,0,0,0,1.73,2,2,2,0,0,0,.8-.11,4.47,4.47,0,0,0,1.48-.74,19.07,19.07,0,0,0,3.16-2.93,4.82,4.82,0,0,0,1.15-3.07Z"/><path class="cls-10" d="M1330.92,277.33a8.41,8.41,0,0,1-.41-1.77c0-2,1-2.89,3-2.44a3.78,3.78,0,0,1,3.16,3.93,4.22,4.22,0,0,1-.08,1,3.35,3.35,0,0,1-4.75.16,3.26,3.26,0,0,1-.31-.33C1331.32,277.68,1331.13,277.57,1330.92,277.33Z"/><path class="cls-11" d="M1152.07,16.43c-.18,6.33-.75,12.72-1.54,19.07a180.39,180.39,0,0,1-3.41,18.88,210.26,210.26,0,0,1-11.95,36.69,220.37,220.37,0,0,1-18.44,34,239.28,239.28,0,0,1-24,30.36c-2.19,2.35-4.48,4.63-6.72,7l-6.94,6.69c-2.42,2.14-4.78,4.31-7.22,6.4s-4.89,4.19-7.43,6.15a284.87,284.87,0,0,1-31.53,22,303.25,303.25,0,0,1-69.76,31l-.43-1.27a416.46,416.46,0,0,0,66.2-36c5.19-3.52,10.3-7.11,15.26-10.92l3.72-2.83,3.66-2.91c2.53-1.91,4.85-3.93,7.24-5.93s4.68-4.11,7-6.16,4.54-4.27,6.82-6.33l6.62-6.56c2.12-2.28,4.3-4.51,6.32-6.81a262.69,262.69,0,0,0,41.74-61.32,254,254,0,0,0,14-34.65,317.54,317.54,0,0,0,9.45-36.57Z"/><path class="cls-11" d="M1075.79,60a518.53,518.53,0,0,0,88.09,20.24,446.55,446.55,0,0,0,44.67,3.7l5.59.18,2.79.09h14l11.19-.38,2.79-.1,2.79-.2,5.57-.38c7.45-.34,14.85-1.38,22.28-2.08,7.37-1.07,14.79-2,22.12-3.39a419.28,419.28,0,0,0,43.71-10.09,497.71,497.71,0,0,0,84.23-32.81l.66,1.08a297.33,297.33,0,0,1-39,24.21,339.77,339.77,0,0,1-42.33,18.49,336.23,336.23,0,0,1-44.6,12.54c-7.59,1.75-15.18,2.82-22.86,4.09-7.69.92-15.37,2-23.11,2.42l-5.79.43-2.9.2-2.91.09-11.61.3c-7.74,0-15.48-.15-23.21-.66a342,342,0,0,1-46-6,327.09,327.09,0,0,1-44.56-12.23l-5.42-2-5.4-2.08c-3.58-1.38-7.12-2.87-10.64-4.4s-7-3.14-10.42-4.83-6.77-3.44-10.18-5.23Z"/><path class="cls-11" d="M1021.57,114.56a404.12,404.12,0,0,0,55.72,36.92,400.35,400.35,0,0,0,60.52,27.26,373.34,373.34,0,0,0,64,16.35,360.18,360.18,0,0,0,65.68,4.53,365.26,365.26,0,0,0,128.48-26.92q15.3-6.24,30.14-13.75c9.9-5,19.55-10.41,29-16.26A412,412,0,0,0,1509,103.18l.89.91a316.85,316.85,0,0,1-50.49,45q-13.81,9.88-28.53,18.54c-9.85,5.69-19.95,10.94-30.36,15.64a336.43,336.43,0,0,1-132.72,30.29,335.14,335.14,0,0,1-34.28-1.06c-5.7-.35-11.38-1.13-17-1.76-2.83-.37-5.66-.85-8.49-1.26l-4.22-.65-4.22-.8A336.23,336.23,0,0,1,1133.94,189a352.84,352.84,0,0,1-60.4-31.24c-9.47-6.2-18.76-12.65-27.56-19.76a287.06,287.06,0,0,1-25.3-22.48Z"/><path class="cls-11" d="M1260.85-5.28a342.48,342.48,0,0,1,14.76,51.53c1,4.36,1.73,8.76,2.53,13.17s1.51,8.85,2.12,13.24q1.93,13.29,3.07,26.65a396.83,396.83,0,0,1,1.15,53.64c-.43,8.93-1.26,17.86-2.36,26.74a239.64,239.64,0,0,1-4.82,26.45l-1.27-.08c-1-8.94-1.63-17.8-2.26-26.64s-1.18-17.62-1.7-26.41c-1.08-17.56-2.1-35-3.31-52.56s-2.72-35-4.33-52.52S1261,12.83,1259.59-5Z"/><path class="cls-11" d="M1155.28,465.58V423.52h36v6h6v12h-6v6h6v12h-6v6Zm12-24h18v-12h-18.07Zm0,18h18v-12h-18.07Z"/><path class="cls-11" d="M1254.69,465.58V423.52h12v6h6v6h6v-6h6v-6h12v42.06h-12v-24h-6v12h-6v-12h-6v24Z"/><path class="cls-11" d="M1372.17,465.58V429.52h-12v-6h36v6h-12v36.06Z"/></g></svg>