<svg id="Layer_1" data-name="Layer 1" xmlns="http://www.w3.org/2000/svg" xmlns:xlink="http://www.w3.org/1999/xlink" viewBox="0 0 1220 360"><defs><style>.cls-1{fill:#040418;}.cls-2{opacity:0.79;}.cls-3{fill:#17002f;}.cls-4{fill:#80a6c7;}.cls-10,.cls-11,.cls-12,.cls-4,.cls-5,.cls-8,.cls-9{fill-rule:evenodd;}.cls-5,.cls-6{fill:#e6e6e6;}.cls-7{opacity:0.73;}.cls-8{fill:#253a76;}.cls-9{fill:url(#radial-gradient);}.cls-10{fill:#acd6f2;}.cls-11{fill:#f9f9fa;}.cls-12{fill:#fff;}</style><radialGradient id="radial-gradient" cx="0.53" cy="252.01" r="289.76" gradientTransform="matrix(0.45, 0, 0, -0.45, 191.77, 293.21)" gradientUnits="userSpaceOnUse"><stop offset="0.26" stop-color="#225083"/><stop offset="0.69" stop-color="#224e82"/><stop offset="0.86" stop-color="#23477e"/><stop offset="0.98" stop-color="#253b77"/><stop offset="0.99" stop-color="#253a76"/></radialGradient></defs><title>hero100trans</title><rect class="cls-1" width="1220" height="360"/><g class="cls-2"><circle class="cls-3" cx="1028" cy="180" r="142"/><path class="cls-4" d="M1001.12,178.13c1.31,1.49,3,1.45,4.75,1.15a23.12,23.12,0,0,0,7.08-2.73,34.07,34.07,0,0,0,3.83-2.45.41.41,0,0,1,.33-.09,2.24,2.24,0,0,1-.19,1.19c-.19-.27-.37-.1-.56,0-1.05.72-2.11,1.42-3.22,2a23.28,23.28,0,0,1-7.28,2.79,6.27,6.27,0,0,1-3-.09,3.05,3.05,0,0,1-1.41-1A1.07,1.07,0,0,1,1001.12,178.13Z"/><path class="cls-4" d="M1025.52,174.42c.36.24.54.06.67-.27a7.37,7.37,0,0,1,1.66-2.37.24.24,0,0,1,.29-.11.61.61,0,0,1-.18.76,3.88,3.88,0,0,0-1.39,2.23,1,1,0,0,1-.35.64C1025.55,175.21,1025.55,175.21,1025.52,174.42Z"/><path class="cls-4" d="M1025.81,159.73a.86.86,0,0,1-.28-.11,2.64,2.64,0,0,0-1.66-.53,11.61,11.61,0,0,0-5.24,1.3,37,37,0,0,0-8,5c-.58.46-1.12,1-1.67,1.49a31.56,31.56,0,0,0-3.34,3.5,17.92,17.92,0,0,0-2.71,4.45c-.1.28-.1.67-.47.8a3.45,3.45,0,0,1,.46-1.78,17.6,17.6,0,0,1,2.94-4.59,37.33,37.33,0,0,1,12.58-9.59,15.4,15.4,0,0,1,3.69-1.23,6.92,6.92,0,0,1,2.08-.06A1.68,1.68,0,0,1,1025.81,159.73Z"/><path class="cls-4" d="M1012.73,189.53a3.58,3.58,0,0,0-1.59,1.17,58.39,58.39,0,0,0-6.16,6.7,49.24,49.24,0,0,0-4.49,6.85,9.13,9.13,0,0,0-.88,2.28c0,.17,0,.36-.24.42a2.64,2.64,0,0,1,.19-1.39,14.07,14.07,0,0,1,1.61-3.53,54.12,54.12,0,0,1,9.37-11.62,12.22,12.22,0,0,1,1.81-1.56c.14-.09.29-.27.47-.15s.06.32,0,.48S1012.77,189.41,1012.73,189.53Z"/><path class="cls-4" d="M1055.49,165.13l.27.24a1.51,1.51,0,0,0,2.26.08.82.82,0,0,1-.46,1.17A1.65,1.65,0,0,1,1055.49,165.13Z"/><path class="cls-4" d="M998.28,209.15s.05,0,.06,0a2.58,2.58,0,0,0,3.51.76,10.48,10.48,0,0,0,2.68-1.89,30.68,30.68,0,0,0,5.09-6.53,54.46,54.46,0,0,0,5.77-12.46c.36-1.12.69-2.24,1-3.38a2.48,2.48,0,0,1,.85-1.36q2.64-2.25,5.36-4.44c1.22-1,2.41-2,3.62-3,.49-.41.5-.39,1,0a2.51,2.51,0,0,0,2.23.18,4.28,4.28,0,0,0,1.43-.79c.47-.38.55-.36,1,0a3.1,3.1,0,0,1,.64.71,1.52,1.52,0,0,0,2.59.18,32.58,32.58,0,0,1,3.35-3,5.22,5.22,0,0,1,.94-.61c.72-.3,1.22.09,1.2.92-.55-.45-1.06-.24-1.56.12a22.22,22.22,0,0,0-3.33,2.87,5.62,5.62,0,0,1-.91.77,1.42,1.42,0,0,1-2.09-.39,5.43,5.43,0,0,0-.74-.84c-.43-.4-.56-.39-1,0a3.54,3.54,0,0,1-2.52.95,2.07,2.07,0,0,1-1.25-.42.52.52,0,0,0-.72,0c-.8.58-1.49,1.26-2.25,1.86-.92.71-1.81,1.48-2.71,2.22l-3.6,3s-.07.09-.11.1a3.62,3.62,0,0,0-1.61,2.65,54,54,0,0,1-2.73,7.82A58.18,58.18,0,0,1,1008,205a20.09,20.09,0,0,1-4.45,4.79,4.73,4.73,0,0,1-3.28,1.25A2.05,2.05,0,0,1,998.28,209.15Z"/><path class="cls-4" d="M1037.62,189.9a1.09,1.09,0,0,0,1.06-.14,5.24,5.24,0,0,0,1.14-1,44,44,0,0,0,3.9-4.81,9.4,9.4,0,0,0,1.39-2.93.27.27,0,0,1,.12.26,6.15,6.15,0,0,1-.8,2.54,39.12,39.12,0,0,1-2.8,3.77c-.53.62-1.12,1.2-1.62,1.85a4.32,4.32,0,0,1-1.32,1.07C1038,191,1037.67,190.74,1037.62,189.9Z"/><path class="cls-4" d="M1044.85,178.52c-.23-.18-.21-.36,0-.57.38-.39.73-.81,1.11-1.21.79-.82,1.6-1.63,2.4-2.45.23-.24.47-.43.74-.09a3.72,3.72,0,0,0,3.46,1.15c.15,0,.3,0,.45-.06,0,.15,0,.3,0,.45s-.12.35-.36.36a3.7,3.7,0,0,1-3.34-1c-.37-.43-.47-.4-.9,0-1,1-2,2-3,2.95C1045.31,178.23,1045.16,178.48,1044.85,178.52Z"/><path class="cls-4" d="M1038.22,176.54a16.88,16.88,0,0,1,3.45.62,4,4,0,0,1,1.54.87c.27.26.28.45,0,.65a5.16,5.16,0,0,0-2.48-1.07,16.88,16.88,0,0,1-2.24-.37c-.1-.23.13-.29.22-.43C1038.58,176.64,1038.28,176.78,1038.22,176.54Z"/><path class="cls-4" d="M1042.11,176.1a1.74,1.74,0,0,1-.72-.34,6.24,6.24,0,0,1,1-.86c.82-.68,1.67-1.33,2.5-2a6.51,6.51,0,0,0,.51-.54c.2.78.12.91-.54,1.41-.86.66-1.69,1.36-2.53,2A3.15,3.15,0,0,0,1042.11,176.1Z"/><path class="cls-4" d="M1042.39,182.27c-.41.12-.6.5-.84.8a26.9,26.9,0,0,0-2.18,2.91,2,2,0,0,0-.41.94h0l-.15.12c-.23,0-.32-.07-.31-.29a1.37,1.37,0,0,1,.25-.61,27.69,27.69,0,0,1,3.26-4.44c0-.05.12-.07.18-.11C1042.45,181.77,1042.41,182,1042.39,182.27Z"/><path class="cls-5" d="M1042.14,176.08l1.12.61a5.34,5.34,0,0,1,.91.72c.27,0,.34-.22.46-.36,1.69-2,3.33-4.1,5.18-6a1.58,1.58,0,0,1,1.34-.51c.3,0,.45.17.44.48,0,.53,0,1.05,0,1.57a3.78,3.78,0,0,0,.05.67c.13.63.42.78,1,.56a.38.38,0,0,1,.35-.06,5,5,0,0,1,0,1.5c-.15,0-.29,0-.44.06a3.72,3.72,0,0,1-3.46-1.15c-.27-.34-.52-.15-.75.08l-2.39,2.46c-.38.39-.74.82-1.11,1.21-.19.21-.22.39,0,.57a7,7,0,0,1,.26,2.54,9.42,9.42,0,0,1-1.4,2.93,44.93,44.93,0,0,1-3.89,4.81,5.59,5.59,0,0,1-1.15,1,1.07,1.07,0,0,1-1,.13h0a.19.19,0,0,0-.1-.18c-.09-.46-.15-.93-.25-1.4a3.18,3.18,0,0,1,.44-2.36,34.28,34.28,0,0,1,3.11-4.37c.77-1,1.57-1.92,2.36-2.89.31-.2.31-.39,0-.65a3.84,3.84,0,0,0-1.55-.87,17.37,17.37,0,0,0-3.44-.63.25.25,0,0,1,.16-.29c.53-.31,1-.63,1.57-.95.31-.2.64-.39.66-.82,0-.83-.48-1.22-1.2-.92a5.22,5.22,0,0,0-.94.61,32.58,32.58,0,0,0-3.35,3,1.52,1.52,0,0,1-2.59-.18,3.1,3.1,0,0,0-.64-.71c-.49-.35-.57-.37-1,0a4.28,4.28,0,0,1-1.43.79,2.51,2.51,0,0,1-2.23-.18c-.52-.36-.53-.38-1,0-1.21,1-2.4,2-3.62,3q-2.72,2.19-5.36,4.44a2.48,2.48,0,0,0-.85,1.36c-.29,1.14-.62,2.26-1,3.38a54.46,54.46,0,0,1-5.77,12.46,30.68,30.68,0,0,1-5.09,6.53,10.48,10.48,0,0,1-2.68,1.89,2.58,2.58,0,0,1-3.51-.76s0,0-.06,0a3,3,0,0,1-.36-1.56,6.88,6.88,0,0,1,.64-3.34,24,24,0,0,1,2.36-4.16,58.74,58.74,0,0,1,8.22-10.18c1.32-1.29,2.68-2.54,4-3.8a3.75,3.75,0,0,0,1.11-1.73c1-3,1.87-6,2.6-9.14a2.31,2.31,0,0,0,.18-1.18.32.32,0,0,0-.32.08,32.83,32.83,0,0,1-3.84,2.45,22.53,22.53,0,0,1-7.08,2.73c-1.74.31-3.43.34-4.75-1.15a4.61,4.61,0,0,1-.06-3.29,14.69,14.69,0,0,1,2.09-4,40.47,40.47,0,0,1,6-7.22,7.59,7.59,0,0,1,2.63-1.82,23.09,23.09,0,0,0,4.16-2.16,24.26,24.26,0,0,1,6.48-2.48,7.9,7.9,0,0,1,3.42-.09c2,.47,2.47,1.2,2.09,3.15a13,13,0,0,1-1.67,3.9,31,31,0,0,1-5.48,6.81,2.89,2.89,0,0,0-.84,1.44c-.84,3.31-1.71,6.62-2.58,9.92,0,.12-.1.23,0,.37.25,0,.41-.18.57-.3,2.08-1.64,4.17-3.27,6.23-4.93a9.58,9.58,0,0,0,2-2.08,1,1,0,0,0,.35-.64,3.94,3.94,0,0,1,1.39-2.23.61.61,0,0,0,.18-.76.28.28,0,0,0-.3.11,7.45,7.45,0,0,0-1.65,2.36c-.12.34-.31.52-.66.28a.85.85,0,0,1,0-.86,6,6,0,0,1,2.81-3.06,2.76,2.76,0,0,1,3.5.69c.29.34.55.71.87,1.1.36-.28.71-.58,1.09-.84s.61-.56,1.08-.33a1,1,0,0,1,.57,1.18,8,8,0,0,1-1,1.7c-.22.27-.47.52-.67.8s-.19.49.26.79a1.41,1.41,0,0,0,1-.36,26.35,26.35,0,0,0,3.3-2.45,1.63,1.63,0,0,0,.69-1.11,1.65,1.65,0,0,1,.31-.75.89.89,0,0,1,.89-.42,1,1,0,0,1,.88.49c.18.35-.07.61-.27.86a3.67,3.67,0,0,0-.24.32,6.48,6.48,0,0,0,3.4.24c.3-.06.43-.4.67-.57a.59.59,0,0,1,.61-.17c.29.12.3.37.26.63s-.32.38-.5.54c-.83.67-1.69,1.32-2.51,2a5.77,5.77,0,0,0-1,.86A1.69,1.69,0,0,0,1042.14,176.08Zm-3.15,10.8v0c.37,0,.58-.24.8-.46a33.66,33.66,0,0,0,2.35-2.86,1.56,1.56,0,0,0,.28-1.34c0-.24.06-.5-.19-.68a.61.61,0,0,0-.18.11,28.94,28.94,0,0,0-3.27,4.43,1.59,1.59,0,0,0-.25.62c0,.22.09.33.31.29S1039,187,1039,186.88Zm-13.22-27.09v0a1.66,1.66,0,0,0-1.56-1.35,7.32,7.32,0,0,0-2.09.05,15.18,15.18,0,0,0-3.68,1.23,37.24,37.24,0,0,0-12.59,9.59,17.7,17.7,0,0,0-2.94,4.59,3.55,3.55,0,0,0-.46,1.78,2.88,2.88,0,0,0,0,.88c0,.05,0,.1,0,.16a1.63,1.63,0,0,0,1.49,1.35,4.68,4.68,0,0,0,1.12,0,11.36,11.36,0,0,0,3.54-.88,34.5,34.5,0,0,0,8.83-5.27,31.48,31.48,0,0,0,6.52-6.77,11.85,11.85,0,0,0,1.76-3.45,2.74,2.74,0,0,0,.11-1.83l0,0ZM999.33,207v.42a.14.14,0,0,0,0,.2,3.69,3.69,0,0,0,0,.37,1.23,1.23,0,0,0,2,.86,6,6,0,0,0,1.31-1,22,22,0,0,0,2.45-2.83c3.48-4.67,5.69-10,7.57-15.45a3.58,3.58,0,0,0,.11-.35c0-.16.16-.36,0-.48s-.33.06-.47.15a13.42,13.42,0,0,0-1.81,1.56,54.32,54.32,0,0,0-9.36,11.62,13.6,13.6,0,0,0-1.62,3.53A2.64,2.64,0,0,0,999.33,207Zm32.17-33.77a2.07,2.07,0,0,0-1.16-2.05c-.75-.28-.89-.19-.9.63V172a1.31,1.31,0,0,1-.58,1.27,2.77,2.77,0,0,0-1.11,2.19.84.84,0,0,0,1.11.85,1.91,1.91,0,0,0,.67-.33,8.06,8.06,0,0,0,1.42-1.32A2.13,2.13,0,0,0,1031.5,173.22Z"/><path class="cls-5" d="M1055.49,165.13a3.72,3.72,0,0,1-.19-.8c0-.9.47-1.3,1.34-1.09a1.71,1.71,0,0,1,1.42,1.76c0,.15,0,.3,0,.45a1.51,1.51,0,0,1-2.26-.08Z"/><path class="cls-6" d="M975.39,48a78,78,0,0,1-1.46,17.28,88.06,88.06,0,0,1-5,16.79,97.43,97.43,0,0,1-19.13,29.4,119.3,119.3,0,0,1-27.4,21.6,126.13,126.13,0,0,1-15.57,7.65,115.68,115.68,0,0,1-16.37,5.39l-.34-.94c5.1-2.54,10.11-5.17,15-8s9.58-5.86,14.15-9a150.4,150.4,0,0,0,24.94-21.82,126.68,126.68,0,0,0,18.67-27A148.94,148.94,0,0,0,974.4,47.88Z"/><path class="cls-6" d="M941,67.36a311.87,311.87,0,0,0,39.81,7.26c6.62.69,13.22,1.15,19.83,1.28a197.94,197.94,0,0,0,19.79-.45c3.3-.14,6.56-.61,9.86-.88,3.26-.45,6.55-.83,9.81-1.4,6.52-1.09,13-2.38,19.47-4.09a283.82,283.82,0,0,0,38.31-13l.52.86a127.79,127.79,0,0,1-36.05,20.85,139.64,139.64,0,0,1-20.19,6.06c-3.42.85-6.91,1.36-10.39,2s-7,.93-10.51,1.14-7,.37-10.57.46-7.06-.12-10.57-.37a142.1,142.1,0,0,1-20.87-3.07,132.62,132.62,0,0,1-20.06-6.19,110.76,110.76,0,0,1-18.58-9.45Z"/><path class="cls-6" d="M916.72,91.87a202.59,202.59,0,0,0,25.51,15.67,189.51,189.51,0,0,0,27.22,11.53,167.29,167.29,0,0,0,57.48,8.77l3.64-.16,1.82-.08,1.81-.16,7.26-.64c1.21-.07,2.41-.31,3.61-.49l3.6-.53,3.61-.53,3.56-.76,3.57-.75c1.19-.23,2.39-.47,3.56-.81l7-1.89c2.33-.72,4.65-1.49,7-2.24.58-.19,1.17-.36,1.74-.57l1.72-.65,3.43-1.29a202,202,0,0,0,51.41-29.51l.7.71c-1.6,2-3.28,3.88-5,5.76-.88.92-1.75,1.86-2.66,2.75l-2.73,2.69a137.43,137.43,0,0,1-11.7,10,147.89,147.89,0,0,1-26.39,16l-3.53,1.64-1.77.81c-.59.25-1.2.47-1.8.71-2.42.93-4.84,1.9-7.27,2.8l-7.44,2.35c-1.23.42-2.5.73-3.76,1l-3.79.92-3.8.91-3.85.66-3.85.67c-1.29.2-2.57.46-3.87.55l-7.78.76-2,.18-2,.07-3.91.14a148,148,0,0,1-15.62-.52c-2.6-.18-5.18-.54-7.76-.84-1.29-.17-2.57-.41-3.86-.61s-2.57-.42-3.84-.69a149.29,149.29,0,0,1-29.74-9,153.19,153.19,0,0,1-27.09-14.74,140.13,140.13,0,0,1-12.2-9.3,119.67,119.67,0,0,1-11-10.57Z"/><path class="cls-6" d="M1024.23,38.17a90.86,90.86,0,0,1,4.8,11.26c1.35,3.83,2.54,7.71,3.52,11.64A152.8,152.8,0,0,1,1036.61,85a132.83,132.83,0,0,1,.15,24.26,104.93,104.93,0,0,1-1.76,12.06,72.38,72.38,0,0,1-3.38,11.85l-1-.06c-1-4.05-1.64-8-2.23-12s-1.07-7.89-1.46-11.8c-.82-7.84-1.37-15.62-1.85-23.42s-1-15.61-1.37-23.5-.74-15.81-.47-24Z"/><path class="cls-6" d="M1080.47,47.88a148.39,148.39,0,0,0,11.58,31.39,126.27,126.27,0,0,0,18.66,27,150.47,150.47,0,0,0,25,21.82q6.85,4.78,14.15,9c4.86,2.83,9.86,5.46,15,8l-.35.94a116.11,116.11,0,0,1-16.37-5.39,126.13,126.13,0,0,1-15.57-7.65,119.24,119.24,0,0,1-27.39-21.6A97.46,97.46,0,0,1,1086,82.07a88.06,88.06,0,0,1-5-16.79A78,78,0,0,1,1079.48,48Z"/><path class="cls-6" d="M976.62,249.66V230.77h16.19v2.7h2.7v5.39h-2.7v2.7h2.7V247h-2.7v2.7Zm5.4-10.8h8.09v-5.39H982Zm0,8.1h8.09v-5.4H982Z"/><path class="cls-6" d="M1021.26,249.66V230.77h5.39v2.7h2.7v2.7h2.7v-2.7h2.7v-2.7h5.39v18.89h-5.39v-10.8h-2.7v5.4h-2.7v-5.4h-2.7v10.8Z"/><path class="cls-6" d="M1074,249.66V233.47h-5.4v-2.7h16.19v2.7h-5.4v16.19Z"/></g><g class="cls-7"><path class="cls-8" d="M192,38A142,142,0,1,0,334,180,142,142,0,0,0,192,38Zm0,280.29A138.29,138.29,0,1,1,330.28,180,138.31,138.31,0,0,1,192,318.29Z"/><path class="cls-9" d="M192,49.83A130.17,130.17,0,1,0,322.19,180,130.16,130.16,0,0,0,192,49.83Z"/><path class="cls-10" d="M269,180a77,77,0,1,1-77-77h0A77,77,0,0,1,269,180Z"/><path class="cls-4" d="M148,168.68c2.4,2.73,5.49,2.67,8.67,2.11a41.71,41.71,0,0,0,12.93-5,60.51,60.51,0,0,0,7-4.5.69.69,0,0,1,.6-.15,4.23,4.23,0,0,1-.34,2.17c-.36-.5-.67-.2-1,0-1.93,1.3-3.85,2.58-5.88,3.71a42.43,42.43,0,0,1-13.31,5.11,11.28,11.28,0,0,1-5.5-.18,5.5,5.5,0,0,1-2.56-1.72A1.91,1.91,0,0,1,148,168.68Z"/><path class="cls-4" d="M192.58,161.9c.66.45,1,.12,1.21-.49a13.84,13.84,0,0,1,3-4.32.45.45,0,0,1,.54-.2,1.1,1.1,0,0,1-.33,1.38,7.2,7.2,0,0,0-2.54,4.08,1.85,1.85,0,0,1-.64,1.17C192.64,163.36,192.64,163.36,192.58,161.9Z"/><path class="cls-4" d="M193.1,135.07a1.81,1.81,0,0,1-.5-.2,5,5,0,0,0-3-1c-3.45-.16-6.53,1-9.58,2.38a68.16,68.16,0,0,0-14.52,9.11c-1.07.84-2.05,1.8-3.06,2.69a59.49,59.49,0,0,0-6.09,6.41,31.76,31.76,0,0,0-4.94,8.14c-.19.5-.19,1.21-.86,1.45a6.36,6.36,0,0,1,.83-3.26,32.12,32.12,0,0,1,5.39-8.37,68,68,0,0,1,23-17.52,27.62,27.62,0,0,1,6.73-2.25,12.88,12.88,0,0,1,3.82-.1A3,3,0,0,1,193.1,135.07Z"/><path class="cls-4" d="M169.21,189.53c-1.28.29-2.06,1.31-2.91,2.13a108.42,108.42,0,0,0-11.23,12.24,89.2,89.2,0,0,0-8.2,12.51,16.59,16.59,0,0,0-1.61,4.18c-.08.3,0,.65-.45.76a4.8,4.8,0,0,1,.35-2.54,25.77,25.77,0,0,1,3-6.45,99.2,99.2,0,0,1,17.12-21.23,23.76,23.76,0,0,1,3.31-2.86c.25-.15.53-.49.85-.27s.12.59,0,.9A3.89,3.89,0,0,0,169.21,189.53Z"/><path class="cls-4" d="M247.33,144.92c.18.15.34.29.5.45a2.76,2.76,0,0,0,4.14.14,1.5,1.5,0,0,1-.84,2.14A3,3,0,0,1,247.33,144.92Z"/><path class="cls-4" d="M142.8,225.37a.36.36,0,0,1,.12.08c1.87,2.21,3.76,2.63,6.41,1.39a19.47,19.47,0,0,0,4.9-3.45,55.51,55.51,0,0,0,9.29-11.95,99.4,99.4,0,0,0,10.55-22.77q1-3,1.8-6.17a4.62,4.62,0,0,1,1.55-2.48c3.21-2.74,6.5-5.44,9.79-8.11,2.25-1.8,4.41-3.68,6.62-5.51.9-.74.9-.71,1.87-.05a4.57,4.57,0,0,0,4.07.34,8,8,0,0,0,2.61-1.46c.86-.69,1-.65,1.9,0a5.46,5.46,0,0,1,1.18,1.31c1.48,1.87,3,2,4.73.32a59.61,59.61,0,0,1,6.12-5.44,8.71,8.71,0,0,1,1.72-1.11c1.31-.55,2.25.16,2.2,1.67-1-.81-1.94-.45-2.85.22a41.16,41.16,0,0,0-6.1,5.24,8.61,8.61,0,0,1-1.66,1.41,2.58,2.58,0,0,1-3.82-.71,9.86,9.86,0,0,0-1.35-1.53c-.78-.73-1-.71-1.86,0a6.51,6.51,0,0,1-4.61,1.73,3.57,3.57,0,0,1-2.25-.75,1,1,0,0,0-1.35,0c-1.45,1-2.69,2.29-4.1,3.38-1.68,1.31-3.32,2.7-4.94,4q-3.28,2.73-6.57,5.53c-.07,0-.12.14-.2.17-2,1-2.44,2.93-2.94,4.83a98.74,98.74,0,0,1-5,14.29,104.37,104.37,0,0,1-10.1,17.94,37.09,37.09,0,0,1-8.13,8.77c-1.73,1.32-3.59,2.46-6,2.28A3.75,3.75,0,0,1,142.8,225.37Z"/><path class="cls-4" d="M214.7,190.19a2,2,0,0,0,1.93-.26,9.81,9.81,0,0,0,2.07-1.73,80.38,80.38,0,0,0,7.13-8.8,17.1,17.1,0,0,0,2.54-5.35.48.48,0,0,1,.23.44,11.67,11.67,0,0,1-1.46,4.65A76.59,76.59,0,0,1,222,186c-1,1.15-2,2.19-3,3.39a8,8,0,0,1-2.41,2C215.36,192.12,214.77,191.73,214.7,190.19Z"/><path class="cls-4" d="M227.9,169.4c-.45-.33-.38-.65,0-1,.69-.73,1.35-1.49,2-2.21,1.45-1.51,2.92-3,4.39-4.5.41-.44.85-.78,1.35-.15,1.67,2,3.94,2.24,6.32,2.1a5.76,5.76,0,0,0,.82-.11c0,.28.08.54.09.82,0,.44-.21.63-.65.66-2.29.14-4.45,0-6.11-1.91-.66-.77-.85-.72-1.64.06l-5.39,5.39C228.75,168.88,228.47,169.34,227.9,169.4Z"/><path class="cls-4" d="M215.79,165.78a31.21,31.21,0,0,1,6.29,1.13,7.36,7.36,0,0,1,2.82,1.61c.49.44.5.82-.07,1.18-1.24-1.27-2.92-1.49-4.51-2-1.35-.39-2.8-.07-4.11-.67-.18-.42.24-.53.42-.77C216.43,166,215.9,166.22,215.79,165.78Z"/><path class="cls-4" d="M222.91,165a3.05,3.05,0,0,1-1.31-.62,11.13,11.13,0,0,1,1.79-1.57c1.5-1.25,3.05-2.42,4.57-3.65q.49-.48.93-1c.36,1.41.22,1.66-1,2.58-1.57,1.2-3.09,2.48-4.61,3.72A3.06,3.06,0,0,0,222.91,165Z"/><path class="cls-4" d="M223.41,176.25c-.75.22-1.1.93-1.54,1.47a46.81,46.81,0,0,0-4,5.31,3.64,3.64,0,0,0-.75,1.73v0l-.27.23c-.42.06-.6-.14-.57-.54a2.68,2.68,0,0,1,.45-1.12,50.65,50.65,0,0,1,6-8.09A.92.92,0,0,1,223,175C223.52,175.33,223.44,175.8,223.41,176.25Z"/><path class="cls-8" d="M222.94,164.94l2.05,1.11a8.92,8.92,0,0,1,1.66,1.35c.51,0,.63-.41.85-.67,3.08-3.71,6.08-7.5,9.46-10.95a2.9,2.9,0,0,1,2.45-.9.74.74,0,0,1,.81.67,1.27,1.27,0,0,1,0,.2v2.87a6.22,6.22,0,0,0,.1,1.22c.23,1.15.76,1.43,1.84,1a.68.68,0,0,1,.63-.11,9.32,9.32,0,0,1,.05,2.74c-.27,0-.54.09-.8.11-2.4.15-4.66-.06-6.32-2.11-.51-.62-1-.27-1.35.15-1.46,1.51-2.93,3-4.38,4.49-.7.72-1.35,1.49-2,2.21-.34.39-.39.71.05,1a13,13,0,0,1,.45,4.64,17.26,17.26,0,0,1-2.54,5.36,82.21,82.21,0,0,1-7.13,8.79,9.92,9.92,0,0,1-2.08,1.74,2,2,0,0,1-1.93.25h0a.37.37,0,0,0-.19-.34c-.16-.84-.27-1.7-.45-2.55a5.86,5.86,0,0,1,.81-4.31,62.16,62.16,0,0,1,5.68-8c1.42-1.77,2.88-3.52,4.32-5.28.57-.36.56-.72.07-1.19a7.37,7.37,0,0,0-2.83-1.6,30.31,30.31,0,0,0-6.28-1.13.48.48,0,0,1,.28-.54c1-.56,1.92-1.15,2.88-1.74.57-.35,1.17-.71,1.21-1.5,0-1.51-.9-2.22-2.19-1.67a8.42,8.42,0,0,0-1.72,1.11,58.58,58.58,0,0,0-6.12,5.44c-1.71,1.68-3.26,1.55-4.74-.32a5.46,5.46,0,0,0-1.18-1.31c-.9-.63-1-.67-1.9,0a7.9,7.9,0,0,1-2.61,1.46,4.57,4.57,0,0,1-4.07-.34c-1-.66-1-.69-1.87.05-2.21,1.83-4.39,3.71-6.61,5.51-3.3,2.7-6.58,5.37-9.79,8.11a4.64,4.64,0,0,0-1.56,2.48q-.79,3.12-1.79,6.17a99.82,99.82,0,0,1-10.55,22.77,56.19,56.19,0,0,1-9.3,12,19.29,19.29,0,0,1-4.9,3.45c-2.65,1.24-4.54.82-6.4-1.39a.37.37,0,0,0-.12-.07,5.47,5.47,0,0,1-.66-2.85,12.9,12.9,0,0,1,1.16-6.12,43.77,43.77,0,0,1,4.33-7.59,108.34,108.34,0,0,1,15-18.61c2.43-2.35,4.9-4.64,7.38-6.93a7,7,0,0,0,2-3.17c1.74-5.52,3.42-11.06,4.75-16.7a4.27,4.27,0,0,0,.33-2.16.64.64,0,0,0-.58.15,60,60,0,0,1-7,4.47,42,42,0,0,1-12.92,5c-3.19.55-6.29.62-8.68-2.11a8.23,8.23,0,0,1-.11-6,26.53,26.53,0,0,1,3.81-7.38,73.74,73.74,0,0,1,11-13.2c1.46-1.32,2.93-2.75,4.81-3.32,2.81-.86,5.09-2.6,7.6-3.95A43.8,43.8,0,0,1,187,130.4a14.49,14.49,0,0,1,6.25-.17c3.6.86,4.52,2.19,3.82,5.76a23.68,23.68,0,0,1-3.05,7.13,56.62,56.62,0,0,1-10,12.44,5.14,5.14,0,0,0-1.53,2.63c-1.54,6.05-3.14,12.09-4.71,18.12-.06.23-.19.43,0,.67a1.75,1.75,0,0,0,1-.54c3.81-3,7.61-6,11.38-9a17.46,17.46,0,0,0,3.73-3.8,1.85,1.85,0,0,0,.64-1.17,7.17,7.17,0,0,1,2.54-4.07,1.13,1.13,0,0,0,.33-1.39.48.48,0,0,0-.55.21,13.5,13.5,0,0,0-3,4.31c-.22.62-.56.94-1.2.5a1.55,1.55,0,0,1-.1-1.57,11,11,0,0,1,5.14-5.59,5,5,0,0,1,6.39,1.27c.54.61,1,1.28,1.59,2,.66-.52,1.31-1.06,2-1.54s1.11-1,2-.61a2,2,0,0,1,1.06,2.16,15.33,15.33,0,0,1-1.92,3.11c-.41.48-.86.95-1.23,1.45s-.34.9.45,1.45a2.65,2.65,0,0,0,1.88-.66,50.45,50.45,0,0,0,6-4.47,3,3,0,0,0,1.26-2,3,3,0,0,1,.56-1.37,1.64,1.64,0,0,1,1.63-.77,1.88,1.88,0,0,1,1.6.9c.31.61-.12,1.1-.49,1.57-.12.14-.22.27-.45.58a11.89,11.89,0,0,0,6.2.45c.55-.11.8-.73,1.24-1s.66-.5,1.11-.32.55.67.45,1.15a10.57,10.57,0,0,1-.9,1c-1.51,1.23-3.07,2.41-4.57,3.65a9.94,9.94,0,0,0-1.8,1.57A3,3,0,0,0,222.94,164.94Zm-5.74,19.74v0c.66,0,1.05-.45,1.44-.85a58.08,58.08,0,0,0,4.31-5.23,2.8,2.8,0,0,0,.51-2.43c0-.45.11-.9-.35-1.24a.88.88,0,0,0-.34.19,52.8,52.8,0,0,0-6,8.09,2.51,2.51,0,0,0-.45,1.11c0,.41.15.61.56.54.17,0,.22-.09.27-.22ZM193,135.17v0a3.05,3.05,0,0,0-2.85-2.47,12.88,12.88,0,0,0-3.82.1,27.69,27.69,0,0,0-6.74,2.25,68.11,68.11,0,0,0-23,17.52,32.35,32.35,0,0,0-5.39,8.38,6.38,6.38,0,0,0-.84,3.25,4.58,4.58,0,0,0-.05,1.61c0,.09,0,.19,0,.3a3,3,0,0,0,2.72,2.47,9.39,9.39,0,0,0,2.05.08,20.62,20.62,0,0,0,6.47-1.6,63.17,63.17,0,0,0,16.14-9.63A57.94,57.94,0,0,0,189.66,145a21.78,21.78,0,0,0,3.22-6.29,5.07,5.07,0,0,0,.2-3.35l.07-.07a.33.33,0,0,0-.11-.15Zm-48.3,86.25v.77a.31.31,0,0,0,.06.38c0,.22.06.45.1.67.54,1.87,1.84,2.44,3.56,1.56a10.79,10.79,0,0,0,2.39-1.8,40,40,0,0,0,4.49-5.16c6.37-8.54,10.41-18.25,13.85-28.23.07-.22.13-.45.19-.65s.28-.66,0-.9-.6.11-.85.28a23.6,23.6,0,0,0-3.31,2.85A99.25,99.25,0,0,0,148,212.44a25.26,25.26,0,0,0-3,6.45A4.56,4.56,0,0,0,144.74,221.42Zm58.76-61.68c0-1.88-.86-3.29-2.12-3.75s-1.63-.34-1.64,1.15v.27a2.39,2.39,0,0,1-1.06,2.32,5.1,5.1,0,0,0-2,4,1.54,1.54,0,0,0,1.45,1.63,1.41,1.41,0,0,0,.58-.07,3.5,3.5,0,0,0,1.22-.61,15.5,15.5,0,0,0,2.59-2.4A3.83,3.83,0,0,0,203.5,159.74Z"/><path class="cls-8" d="M247.33,144.92a7.19,7.19,0,0,1-.33-1.46c0-1.63.86-2.37,2.44-2a3.15,3.15,0,0,1,2.59,3.22c0,.28,0,.54-.06.82a2.76,2.76,0,0,1-4.14-.14C247.67,145.22,247.51,145.07,247.33,144.92Z"/><path class="cls-11" d="M192,97.75A82.25,82.25,0,1,0,274.24,180,82.25,82.25,0,0,0,192,97.75ZM192,257a77,77,0,1,1,77-77A77,77,0,0,1,192,257Z"/><path class="cls-12" d="M192,41.71A138.29,138.29,0,1,0,330.28,180,138.28,138.28,0,0,0,192,41.71Zm0,268.45A130.17,130.17,0,1,1,322.19,180,130.17,130.17,0,0,1,192,310.16Z"/><path class="cls-12" d="M136.72,76.27c.29.86.81.67,1.23.65,1.43-.09,1.44-.28,2.1,1.32,2,4.88,4,9.77,6.14,14.64.58,1.35.9,2.46-.67,3.32-.16.08-.17.45-.25.69.27,0,.6.2.81.12q2.61-1,5.17-2.18c.12,0,.2-.17.38-.34-.68-1.19-1.8,0-2.77-.65-2-4.61-4-9.52-6-14.45a2.75,2.75,0,0,1,1,.36l17.87,9.8c1.19.65,1.2.64,2.29-.32-.26-.64-.53-1.3-.8-2-2.16-5.17-4.29-10.33-6.49-15.51-.56-1.28-.77-2.3.65-3.1.19-.1.19-.51.29-.78-.27,0-.6-.14-.84,0-1.65.67-3.28,1.35-4.94,2a3.92,3.92,0,0,0-.5.39c.56.62.59.69,1.27.53,1.41-.31,1.46.06,1.9,1.14,1.62,3.86,3.24,7.72,4.85,11.61.11.27.16.56.29,1-.93-.51-1.7-.9-2.45-1.35-5-2.72-10-5.47-15-8.19-.42-.22-1-.59-1.35-.45C139.48,75,138.14,75.68,136.72,76.27Z"/><path class="cls-12" d="M75,180.22a1.82,1.82,0,0,0-.21.47,18.87,18.87,0,0,0,1,10.49,10.51,10.51,0,0,0,7.82,6.42,15.79,15.79,0,0,0,5,.12,10.36,10.36,0,0,0,9.17-7.65,18.87,18.87,0,0,0-.44-10.53c-.31-1.08-.4-1.09-1.57-1-1.91.15-3.83.32-5.73.45-1.35.08-1.35.07-1.9-1.19-.19-.42-.32-.9-1.12-.54.17,2.46.34,5,.52,7.45.66.28.93-.06,1-.5.1-1.63,1.12-2,2.49-1.92a3.31,3.31,0,0,0,.55-.07c1.54-.11,3.07-.19,4.56-.29a8.47,8.47,0,0,1-4.78,11.27,15.29,15.29,0,0,1-6.42,1,10.1,10.1,0,0,1-5.45-1.56,7.71,7.71,0,0,1-3.38-6.93c0-2.77,0-2.77,2.57-3.64.62-.23,1.21-.5,1.87-.77C79.89,180.53,77.08,180,75,180.22Z"/><path class="cls-12" d="M111.86,94c.39.94.85.66,1.26.5,1.75-.68,1.66-.36,2.58.83,2.13,2.73,4.24,5.48,6.37,8.22a13.63,13.63,0,0,0,3.53,3.41,6.18,6.18,0,0,0,5.22.93,11.82,11.82,0,0,0,7.4-5.88,6.08,6.08,0,0,0,.52-4.25,14.65,14.65,0,0,0-2.88-5.7c-1.9-2.5-3.84-5-5.76-7.49-1.13-1.47-1.13-1.49-.18-3.11.23-.39.41-.73-.27-1.05l-5.44,4.22c.78.5.78.5,1.48.25,1.3-.44,1.31-.44,2.16.62,1.74,2.25,3.48,4.49,5.2,6.74a40.2,40.2,0,0,1,2.54,3.55c2.25,3.7,1.52,6.51-2.18,8.76a6.9,6.9,0,0,1-.85.45,4.46,4.46,0,0,1-4.78-.45,15.36,15.36,0,0,1-2.38-2.25c-1.6-1.93-3.15-3.93-4.66-5.91-1-1.23-1.87-2.48-2.84-3.69a1.16,1.16,0,0,1-.06-1.64l.06-.07a4.58,4.58,0,0,0,.62-.89c.07-.13,0-.42,0-.48a.8.8,0,0,0-.59-.11,2.12,2.12,0,0,0-.55.39l-4.67,3.6C112.39,93.67,112.07,93.84,111.86,94Z"/><path class="cls-12" d="M291.55,144.89c2.9-.9,5.53-1.9,8.34-2.58.74,2.33,1.44,4.53,2.15,6.79-1.1.75-2.14,1.44-3.28,2.25.31.26.48.53.63.52a26.43,26.43,0,0,0,5-.72c-1.49-4.72-2.95-9.32-4.41-13.92a7.87,7.87,0,0,0-.32-.74s-.08,0-.12-.06h-.14c-.54.16-.45.62-.45,1,0,2-.25,1.67-1.67,2.14-5.15,1.68-10.33,3.31-15.49,4.94-1.53.49-1.54.47-2.57-.82-.09-.1-.15-.27-.26-.31a1.35,1.35,0,0,0-.71-.14c-.08,0-.15.36-.16.57a2,2,0,0,0,.16.53q2.06,6.51,4.13,13a5,5,0,0,0,.45.9l5.42-1.39c-.06-.29-.06-.52-.11-.53-1.53-.36-3-.71-4.64-1.06-.72-2.29-1.46-4.59-2.25-7,3-1,5.84-1.89,8.63-2.8.18.22.26.28.29.37.29.9.59,1.8.87,2.73a4.17,4.17,0,0,1,.39,2c-.15.48-.94.77-1.44,1.16,0,0-.1,0-.11.07l-.31.79c.26.1.59.34.8.26,1.86-.59,3.71-1.23,5.56-1.86.06,0,.09-.16.14-.24,0-.51-.36-.68-.82-.67a7.61,7.61,0,0,1-1.35,0,1.22,1.22,0,0,1-.83-.52C292.54,148,292.09,146.53,291.55,144.89Z"/><path class="cls-12" d="M214.07,77.22l4,1c1.26.33,1.29.35,1.35,1.61a3.77,3.77,0,0,0,.06,1,.82.82,0,0,0,.5.51.74.74,0,0,0,.59-.39c.48-1.79.93-3.62,1.35-5.44,0-.19-.17-.64-.26-.64a1.07,1.07,0,0,0-.78.29c-.31.37-.45.9-.77,1.27a1.15,1.15,0,0,1-.87.45c-1.56-.29-3.09-.7-4.74-1.09.72-2.87,1.38-5.6,2.09-8.46,2.06.5,4,1,6,1.44,1.1.27,1.1.3,1.16,1.49,0,.85.06,1.7.1,2.66.36-.09.62-.08.76-.21A20.46,20.46,0,0,0,226.38,68a7.16,7.16,0,0,0-.75-.23l-13.15-3.2a2.19,2.19,0,0,0-.67-.11.75.75,0,0,0-.52.29c-.06.07.05.34.15.45a2.84,2.84,0,0,0,.56.4c1.28.85,1.3.85.94,2.29Q211,75.7,209.06,83.54c-.45,1.83-.47,1.83-2.32,2.09-.45.05-.81.13-.64.9,2.44.58,4.94,1.21,7.46,1.79s5.06,1.39,7.7,1.8c.59-1.89,1.25-3.59,1.63-5.39-.62-.35-.9-.06-1.18.27-.59.71-1.21,1.37-1.73,2.13a1.49,1.49,0,0,1-1.89.61c-1.4-.37-2.82-.69-4.23-1l-2-.53C212.64,83.12,213.34,80.23,214.07,77.22Z"/><path class="cls-12" d="M244.84,101.41a17.48,17.48,0,0,0,4.31,4.76,12.08,12.08,0,0,0,5.15,2.4c4.32.86,8-3.56,6.8-7-.6-1.72-1.4-3.37-2.07-5a19.89,19.89,0,0,1-1.09-3.09,3.61,3.61,0,0,1,1.53-3.84,3.49,3.49,0,0,1,3.87-.26,7.81,7.81,0,0,1,2.79,2.38,1.34,1.34,0,0,1,.18,1.63c-.41.81-.78,1.65-1.13,2.49a.66.66,0,0,0,.12.59.62.62,0,0,0,.59,0c1.26-1,2.5-2.09,3.79-3.18a22.34,22.34,0,0,0-4.57-4.54A10.81,10.81,0,0,0,261,86.78a5.75,5.75,0,0,0-7,7,14.6,14.6,0,0,0,.9,2.58c.45,1.08,1.07,2.12,1.51,3.22a11.12,11.12,0,0,1,.77,2.6,3.77,3.77,0,0,1-5,4,8.74,8.74,0,0,1-4.05-3.33,1.15,1.15,0,0,1,0-1.28c.49-1,1-2,1.38-3,.09-.23-.07-.55-.1-.84-.25,0-.56,0-.73.17C247.42,99,246.19,100.17,244.84,101.41Z"/><path class="cls-12" d="M302,173.3a4.16,4.16,0,0,0,0,.61,27.06,27.06,0,0,0,5.39.45,20.39,20.39,0,0,0-.05-6.66,10.5,10.5,0,0,0-1.56-4,5.72,5.72,0,0,0-9.72.05,36.5,36.5,0,0,0-1.68,3.72c-.58,1.35-1,2.75-1.7,4a3.65,3.65,0,0,1-3.78,1.94,3.53,3.53,0,0,1-3.17-2.63,9.61,9.61,0,0,1-.45-3.91,2,2,0,0,1,1.67-2,21.69,21.69,0,0,0,2.45-.88c.22-.1.34-.45.52-.66-.21-.14-.42-.42-.62-.45-1.72,0-3.43,0-5.15,0a17,17,0,0,0-.31,6.77,12.57,12.57,0,0,0,1.7,4.58,5.93,5.93,0,0,0,10.33-.56c.49-1.07.9-2.2,1.35-3.29a34,34,0,0,1,1.66-3.88,3.76,3.76,0,0,1,7,1.2,7.09,7.09,0,0,1-.14,4.08C304.49,172.32,303.25,172.79,302,173.3Z"/><path class="cls-12" d="M87.35,127.3c-2.08,4.85-4.16,9.77-6.29,14.82a27.71,27.71,0,0,0,5.54,1.14c-.49-1.49-2-2-2.9-3.21l3.55-8.38c.4.52.7.86,1,1.23,1.24,1.68,2.47,3.39,3.7,5.08q4.32,6,8.67,12c.33.45.58,1.06,1.48,1L108.4,136l-5.26-2.69c-.65.57-.27.92,0,1.27a27.85,27.85,0,0,0,1.88,2.17,1.59,1.59,0,0,1,.37,2.06c-1,2.15-1.86,4.35-2.79,6.53-.13.32-.32.63-.56,1.08l-1.22-1.65-12-16.46C88.47,127.89,88.26,127.26,87.35,127.3Z"/><path class="cls-12" d="M191.4,85.68c1.73.13,1.73.13,2.34-1.29L200,69.93c.59-1.38,1.21-2.75,1.79-4.14a2.44,2.44,0,0,1,1.76-1.56,2,2,0,0,0,.77-.26,3.22,3.22,0,0,0,.45-.7,27.08,27.08,0,0,0-7-.06c-.16.76.44.74.89.9,1.13.39,1.2.55.81,1.7-.12.33-.24.68-.37,1q-2.7,6.74-5.45,13.44c-.09.25-.23.48-.4.85-.17-.38-.29-.61-.38-.86q-2.42-7-4.84-14.1c-.11-.3-.19-.61-.27-.92a.85.85,0,0,1,.47-1.1.61.61,0,0,1,.18,0,6.65,6.65,0,0,0,1.16-.41.42.42,0,0,0,.12-.57.43.43,0,0,0-.24-.18,4.41,4.41,0,0,0-.81,0l-6.44,0a4.19,4.19,0,0,0-.69.13c-.11.61.23.76.6.83,1.52.28,2.11,1.35,2.56,2.7,1.68,4.87,3.41,9.72,5.13,14.57C190.3,82.65,190.86,84.18,191.4,85.68Z"/><path class="cls-12" d="M274.2,135.8c1-.5.55-1.13.45-1.63-.33-1.6-.36-1.61,1-2.39q7.31-4.32,14.63-8.61c.25-.16.53-.26.9-.45.93,1.6,1.79,3.11,2.69,4.64-1,1.22-2.3,2-3.21,3.34.31.16.5.35.62.31,1.8-.62,3.57-1.26,5.49-2-3.39-5.79-6.65-11.39-9.92-17a19.7,19.7,0,0,0-4.9,3.44c.77.71,1.55.1,2.29,0s1.59-.3,2.45-.48c.93,1.6,1.8,3.13,2.74,4.69-.28.19-.45.33-.63.45l-7.18,4.23q-4,2.35-8.05,4.66c-1,.55-1,.53-1.79-.17-.34-.31-.67-.63-1-.9s-.66-.13-.9.36Z"/><path class="cls-4" d="M196.77,290.47c0-.1,0-.2-.05-.3.45-.31.9-.59,1.34-.9,1.61-1.21,3.27-2.35,4.76-3.68a8.71,8.71,0,0,0,2-2.73,4.42,4.42,0,0,0-2.89-6.5c-3.37-1-6.35.07-9.12,1.93.45,1.24.45,1.27,1.41.84a7.65,7.65,0,0,1,4-.68,3.58,3.58,0,0,1,3.28,4.76,4.52,4.52,0,0,1-.75,1.6,17.42,17.42,0,0,1-2.4,2.6c-1.65,1.35-3.41,2.6-5.12,3.89-1,.72-1,.72-.45,2L207,293a12,12,0,0,0-.08-6c-.19.39-.32.63-.42.87a13.42,13.42,0,0,0-.69,1.49,1.42,1.42,0,0,1-1.56,1c-1.59,0-3.2.09-4.8.12Z"/><path class="cls-12" d="M276.3,99.72c-.75.47-.36.89-.21,1.28.56,1.46.57,1.46-.6,2.49q-6,5.22-12,10.41c-.37.33-.78.64-1.16,1a.9.9,0,0,1-1.23.08,6.86,6.86,0,0,0-1.17-.68.58.58,0,0,0-.58.12c-.09.13,0,.4,0,.6a1.11,1.11,0,0,0,.25.33c1.41,1.61,2.81,3.23,4.23,4.84a2.9,2.9,0,0,0,.6.44c.73-.44.3-.89.13-1.34-.53-1.35-.55-1.35.53-2.3q6-5.28,12.06-10.51c.31-.27.64-.53.93-.8a1.13,1.13,0,0,1,1.69-.16,2.34,2.34,0,0,0,.81.5,1.8,1.8,0,0,0,.73,0c0-.24-.08-.49-.13-.72s-.18-.22-.27-.31l-4-4.64A5.34,5.34,0,0,0,276.3,99.72Z"/><path class="cls-12" d="M284.79,182.29c-.32,2.73-.38,5.39-.57,8,1,.29,1-.4,1.22-.85.58-1.35.57-1.35,2-1.24,5.32.34,10.65.65,16,1,.63,0,1.41-.06,1.85.26s.53,1.06.76,1.64.33.76,1,.45c.15-2.55.32-5.16.51-7.91-1.44.23-1.07,1.63-2,2.25-.26,0-.71,0-1.15,0l-5.6-.3q-5.67-.36-11.32-.74c-1.28-.09-1.26-.13-1.63-1.34C285.71,183,285.8,182.4,284.79,182.29Z"/><path class="cls-12" d="M166,65.78c.56,1.29,1.79.66,2.56,1.23a8,8,0,0,1,.27.83q1.62,8.73,3.26,17.47a1,1,0,0,1-.58,1.23,3.67,3.67,0,0,0-.83.44c-.22.19-.54.48-.51.68.07.49.48.41.86.33,2-.39,3.95-.75,5.9-1.16.42-.09,1.2.15,1.12-.64-.07-.64-.78-.49-1.24-.56-1.21-.17-1.25-.17-1.48-1.35-1-5.33-2-10.67-3-16-.28-1.39-.38-2.5,1.28-3,.2-.06.29-.45.42-.72-.23-.08-.49-.25-.7-.22C171,64.79,168.59,65.26,166,65.78Z"/><path class="cls-12" d="M96.58,112.3c-1.53,2.33-3,4.55-4.45,6.77.79.6,1.14,0,1.53-.27,1-.78,1-.8,2.14-.1,1.5,1,3,1.92,4.46,2.9l9.59,6.32c1.23.82,1.21.83.86,2.21a3.15,3.15,0,0,0-.16.81.56.56,0,0,0,.27.41.57.57,0,0,0,.49-.08,1.76,1.76,0,0,0,.41-.53l3.38-5.14a6,6,0,0,0,.4-.9c-1.3-.45-1.66,1-2.73,1.08-.66-.42-1.39-.89-2.12-1.34q-6.41-4.18-12.8-8.39c-1.27-.83-1.26-.85-.9-2.3a2.34,2.34,0,0,0,.13-.79C97.07,112.77,96.85,112.62,96.58,112.3Z"/><path class="cls-4" d="M163.24,271.6c-.15.45-.28.87-.45,1.29-1.17,2.92-2.33,5.84-3.52,8.76-.86,2.09-.59,2.22-3.05,1.8-.45-.08-1-.3-1.47.45l8.63,3.5a2.55,2.55,0,0,0,.78,0c-.31-.74-.32-.74-1.48-1.55s-1.14-.9-.61-2.16c1.58-3.84,3.19-7.64,4.79-11.5.18-.45.36-.89.5-1.3-.17-.17-.23-.27-.3-.29-2-.45-4.09-1-6.14-1.39-.21,0-.45.12-.79.22C160.94,270.55,162.28,270.63,163.24,271.6Z"/><path class="cls-12" d="M93.12,113.66a2.13,2.13,0,0,0-1.92-2,2.09,2.09,0,0,0-1.9,2,2,2,0,0,0,1.92,1.9A2,2,0,0,0,93.12,113.66Z"/><path class="cls-12" d="M281.78,102.11a1.89,1.89,0,1,0-1.9-1.9A2,2,0,0,0,281.78,102.11Z"/><path class="cls-12" d="M169.48,59.41a1.88,1.88,0,0,0-2,1.79,1.79,1.79,0,0,0,1.75,2,1.9,1.9,0,0,0,2-1.81v-.13a1.76,1.76,0,0,0-1.68-1.85Z"/><path class="cls-12" d="M118,86.14a2,2,0,0,0-1.8-1.87,2.09,2.09,0,0,0-1.92,1.93,2,2,0,0,0,2,1.87A2,2,0,0,0,118,86.14Z"/><path class="cls-12" d="M312.85,188a1.81,1.81,0,0,0-1.71-1.89H311a1.75,1.75,0,0,0-1.86,1.64.89.89,0,0,0,0,.23,1.8,1.8,0,0,0,1.72,1.87H311a1.69,1.69,0,0,0,1.85-1.53C312.85,188.2,312.85,188.09,312.85,188Z"/><path class="cls-12" d="M121.49,83.92a1.89,1.89,0,0,0,.05-3.77,2,2,0,0,0-1.91,1.92A1.94,1.94,0,0,0,121.49,83.92Z"/><path class="cls-12" d="M246.1,76.63a18.35,18.35,0,0,0-2.78-1.71c-2.25-1.15-4.58-2.24-6.88-3.34a5.85,5.85,0,0,0-.83-.3c-.6.7,0,1,.34,1.27,1.21,1.22,1.05,1.06.37,2.44-2.47,4.94-5,9.85-7.46,14.77-.23.45-.5.85-.65,1.11-1,.65-2.07-.65-3,.66l7.16,3.58c.48-1.35-1.11-1.56-1.13-2.7l3.82-7.61c1.32.3,2.09.89,2.12,2.24,0,.9.14,1.8.2,2.7.1,1.69.16,3.38.32,5.06.27,3.08,1.57,4.6,4.52,5.43.45.12.82.14.93-.57-1.57-1.15-1.87-3-2-4.79-.15-1.59-.26-3.17-.39-4.77-.09-1-.18-2.07-.29-3.31.93,0,1.66,0,2.37,0a6,6,0,0,0,5.39-4.55C248.88,80.16,248.19,78.22,246.1,76.63Zm-2.41,6.51A3.72,3.72,0,0,1,239.62,85a10.48,10.48,0,0,1-3.77-1.67L240,75.11a9.38,9.38,0,0,1,3.71,2,3.91,3.91,0,0,1,.78.94c1,1.88.24,3.56-.78,5.11Z"/><path class="cls-4" d="M226.05,275.77a8.26,8.26,0,0,0-10,1.54c-.26.29-.53.57-.82.9a3,3,0,0,1-.16-.36v-.41a12.48,12.48,0,0,1,5.16-9.84c1-.74,2.16-1.35,3.26-2,.71-.45.71-.45.17-1.5a23.1,23.1,0,0,0-7.88,5,14.56,14.56,0,0,0-2.88,16.23c2.31,5.13,7.94,7.05,12.69,4.26A8.07,8.07,0,0,0,226.05,275.77Zm-2.6,13.35a4.14,4.14,0,0,1-4.14-.62,8.48,8.48,0,0,1-3.45-8,4.46,4.46,0,0,1,7-3,8.35,8.35,0,0,1,3.41,6.56C226.27,286.76,225.24,288.47,223.45,289.12Z"/><path class="cls-4" d="M182.17,274.59a8.18,8.18,0,0,0-8.84,2,7.57,7.57,0,0,0-2,7.83,7.36,7.36,0,0,0,6,5.23,9,9,0,0,0,5.72-.73c-.14.28-.26.56-.41.83a13.65,13.65,0,0,1-11.39,7,4.42,4.42,0,0,0-1.09.09.72.72,0,0,0-.45.55.9.9,0,0,0,.42.6,1.51,1.51,0,0,0,.67.08,18.8,18.8,0,0,0,9.74-2.28,14.13,14.13,0,0,0,7.34-14.31A8,8,0,0,0,182.17,274.59ZM183.63,286a4.11,4.11,0,0,1-3.79,2.49,4.43,4.43,0,0,1-4.17-2.37,9.14,9.14,0,0,1,.82-9,4.1,4.1,0,0,1,6.85.3,7.69,7.69,0,0,1,1.23,4.34,10.32,10.32,0,0,1-.94,4.24Z"/><path class="cls-12" d="M99.94,153.37a3.05,3.05,0,0,1-2.63,1.87c-5.49,1-11,1.95-16.42,3-1.43.25-2.85.53-4.21.8-.34,1.68-.34,1.68.89,2.46l9.59,6.09c2.51,1.58,5,3.19,7.52,4.75a2.52,2.52,0,0,1,1.43,2.18,1.87,1.87,0,0,0,.15.8c.08.17.29.4.45.41s.36-.2.45-.36a1.4,1.4,0,0,0,.11-.53c.27-1.58.57-3.14.81-4.72.07-.45.53-1.07-.16-1.31s-.75.51-1,.9c-.56,1-.71,1-1.72.47-1.5-.85-3-1.77-4.49-2.64a.94.94,0,0,1-.56-1.11q.56-3,1.07-6.06c.08-.45.27-.78.75-.85,1.84-.3,3.69-.61,5.54-.9a.88.88,0,0,1,1.1.62,1,1,0,0,1,0,.24,3.84,3.84,0,0,0,.15.94c.1.21.37.35.8.74.53-3,1-5.65,1.5-8.47C100.23,152.85,100.16,152.82,99.94,153.37ZM88.61,166.14l-7.48-4.49a1.54,1.54,0,0,1,0-.3c2.76-.48,5.51-1,8.48-1.46-.22,2.13-.65,4.09-1,6.25Z"/></g></svg>