<svg xmlns="http://www.w3.org/2000/svg" viewBox="0 0 499.33 156.55"><defs><style>.cls-1{fill:none;stroke:#035096;stroke-miterlimit:10;stroke-width:0.25px;}</style></defs><title>Asset 3</title><g id="Layer_2" data-name="Layer 2"><g id="Layer_1-2" data-name="Layer 1"><path class="cls-1" d="M249.42,0V23.15c-1.09.09-.87.53-.87.53-10.38,1.23-12.46,11.15-12.46,11.15L228,37.88v4.5l-.8.45v5L197,47.62l-6.29,1.65.1-1.21-2.36-4.66h-2.17v3.45l-19.32-12L144.13,47.94l8.17,9.87v8.34L72,65.72l-15.57,3L36.83,68l-35.71,8,9.18,0v80.19H489"/><polyline class="cls-1" points="236.09 34.83 239.7 33.48 249.88 33.48 249.88 39.34 240.04 39.34 227.24 42.83"/><polyline class="cls-1" points="228.03 39.47 239.96 35.51 249.88 35.51"/><polyline class="cls-1" points="228.03 41.12 239.96 37.16 249.88 37.16"/><rect class="cls-1" x="239.87" y="33.13" width="1.02" height="6.34"/><polygon class="cls-1" points="228.8 50.36 228.8 45.19 239.33 41.36 239.33 53.71 228.8 50.36"/><polyline class="cls-1" points="249.86 41.27 241.83 41.27 241.85 54.19 249.77 54.19"/><line class="cls-1" x1="248.04" y1="48.11" x2="248.02" y2="43.59"/><rect class="cls-1" x="13.76" y="83.17" width="18.35" height="16.4"/><polygon class="cls-1" points="16.42 83.17 16.4 89.66 13.76 89.66 13.76 91.18 16.38 91.18 16.38 99.57 17.41 99.57 17.41 90.84 19.43 90.84 19.43 99.57 20.61 99.57 20.61 90.82 22.72 90.82 22.72 99.57 23.73 99.57 23.73 90.79 25.74 90.79 25.74 99.57 27 99.57 27 90.77 28.99 90.77 28.99 99.57 29.96 99.57 29.96 90.82 32.11 90.82 32.11 89.53 30.16 89.53 30.16 83.17 29.19 83.17 29.19 89.42 27.07 89.42 27.07 83.17 25.9 83.17 25.9 89.58 23.77 89.58 23.77 83.17 22.74 83.17 22.74 89.6 20.66 89.6 20.66 83.17 19.47 83.17 19.47 89.58 17.57 89.58 17.57 83.17 16.42 83.17"/><rect class="cls-1" x="13.76" y="135.38" width="18.35" height="16.4"/><polygon class="cls-1" points="16.42 135.38 16.4 141.87 13.76 141.87 13.76 143.39 16.38 143.39 16.38 151.79 17.41 151.79 17.41 143.06 19.43 143.06 19.43 151.79 20.61 151.79 20.61 143.03 22.72 143.03 22.72 151.79 23.73 151.79 23.73 143 25.74 143 25.74 151.79 27 151.79 27 142.98 28.99 142.98 28.99 151.79 29.96 151.79 29.96 143.03 32.11 143.03 32.11 141.74 30.16 141.74 30.16 135.38 29.19 135.38 29.19 141.63 27.07 141.63 27.07 135.38 25.9 135.38 25.9 141.79 23.77 141.79 23.77 135.38 22.74 135.38 22.74 141.82 20.66 141.82 20.66 135.38 19.47 135.38 19.47 141.79 17.57 141.79 17.57 135.38 16.42 135.38"/><rect class="cls-1" x="37.06" y="135.38" width="18.35" height="16.4"/><polygon class="cls-1" points="39.72 135.38 39.7 141.87 37.06 141.87 37.06 143.39 39.68 143.39 39.68 151.79 40.71 151.79 40.71 143.06 42.73 143.06 42.73 151.79 43.91 151.79 43.91 143.03 46.02 143.03 46.02 151.79 47.03 151.79 47.03 143 49.05 143 49.05 151.79 50.3 151.79 50.3 142.98 52.29 142.98 52.29 151.79 53.26 151.79 53.26 143.03 55.41 143.03 55.41 141.74 53.46 141.74 53.46 135.38 52.5 135.38 52.5 141.63 50.37 141.63 50.37 135.38 49.2 135.38 49.2 141.79 47.07 141.79 47.07 135.38 46.04 135.38 46.04 141.82 43.96 141.82 43.96 135.38 42.77 135.38 42.77 141.79 40.87 141.79 40.87 135.38 39.72 135.38"/><rect class="cls-1" x="61.48" y="135.38" width="18.35" height="16.4"/><polygon class="cls-1" points="64.15 135.38 64.13 141.87 61.48 141.87 61.48 143.39 64.11 143.39 64.11 151.79 65.14 151.79 65.14 143.06 67.15 143.06 67.15 151.79 68.34 151.79 68.34 143.03 70.45 143.03 70.45 151.79 71.45 151.79 71.45 143 73.47 143 73.47 151.79 74.73 151.79 74.73 142.98 76.72 142.98 76.72 151.79 77.68 151.79 77.68 143.03 79.83 143.03 79.83 141.74 77.89 141.74 77.89 135.38 76.92 135.38 76.92 141.63 74.79 141.63 74.79 135.38 73.63 135.38 73.63 141.79 71.5 141.79 71.5 135.38 70.47 135.38 70.47 141.82 68.38 141.82 68.38 135.38 67.2 135.38 67.2 141.79 65.29 141.79 65.29 135.38 64.15 135.38"/><rect class="cls-1" x="85.91" y="135.38" width="18.35" height="16.4"/><polygon class="cls-1" points="88.58 135.38 88.55 141.87 85.91 141.87 85.91 143.39 88.53 143.39 88.53 151.79 89.56 151.79 89.56 143.06 91.58 143.06 91.58 151.79 92.77 151.79 92.77 143.03 94.87 143.03 94.87 151.79 95.88 151.79 95.88 143 97.9 143 97.9 151.79 99.15 151.79 99.15 142.98 101.14 142.98 101.14 151.79 102.11 151.79 102.11 143.03 104.26 143.03 104.26 141.74 102.31 141.74 102.31 135.38 101.35 135.38 101.35 141.63 99.22 141.63 99.22 135.38 98.05 135.38 98.05 141.79 95.92 141.79 95.92 135.38 94.89 135.38 94.89 141.82 92.81 141.82 92.81 135.38 91.62 135.38 91.62 141.79 89.72 141.79 89.72 135.38 88.58 135.38"/><rect class="cls-1" x="110.33" y="135.38" width="18.35" height="16.4"/><polygon class="cls-1" points="113 135.38 112.98 141.87 110.33 141.87 110.33 143.39 112.96 143.39 112.96 151.79 113.99 151.79 113.99 143.06 116 143.06 116 151.79 117.19 151.79 117.19 143.03 119.3 143.03 119.3 151.79 120.31 151.79 120.31 143 122.32 143 122.32 151.79 123.58 151.79 123.58 142.98 125.57 142.98 125.57 151.79 126.53 151.79 126.53 143.03 128.69 143.03 128.69 141.74 126.74 141.74 126.74 135.38 125.77 135.38 125.77 141.63 123.64 141.63 123.64 135.38 122.48 135.38 122.48 141.79 120.35 141.79 120.35 135.38 119.32 135.38 119.32 141.82 117.24 141.82 117.24 135.38 116.05 135.38 116.05 141.79 114.14 141.79 114.14 135.38 113 135.38"/><rect class="cls-1" x="38.21" y="83.17" width="18.35" height="16.4"/><polygon class="cls-1" points="40.87 83.17 40.85 89.66 38.2 89.66 38.2 91.18 40.83 91.18 40.83 99.57 41.86 99.57 41.86 90.84 43.87 90.84 43.87 99.57 45.06 99.57 45.06 90.82 47.17 90.82 47.17 99.57 48.18 99.57 48.18 90.79 50.19 90.79 50.19 99.57 51.45 99.57 51.45 90.77 53.44 90.77 53.44 99.57 54.41 99.57 54.41 90.82 56.56 90.82 56.56 89.53 54.61 89.53 54.61 83.17 53.64 83.17 53.64 89.42 51.52 89.42 51.52 83.17 50.35 83.17 50.35 89.58 48.22 89.58 48.22 83.17 47.19 83.17 47.19 89.6 45.11 89.6 45.11 83.17 43.92 83.17 43.92 89.58 42.01 89.58 42.01 83.17 40.87 83.17"/><rect class="cls-1" x="62.65" y="83.17" width="18.35" height="16.4"/><polygon class="cls-1" points="65.32 83.17 65.3 89.66 62.65 89.66 62.65 91.18 65.28 91.18 65.28 99.57 66.31 99.57 66.31 90.84 68.32 90.84 68.32 99.57 69.51 99.57 69.51 90.82 71.62 90.82 71.62 99.57 72.63 99.57 72.63 90.79 74.64 90.79 74.64 99.57 75.9 99.57 75.9 90.77 77.89 90.77 77.89 99.57 78.85 99.57 78.85 90.82 81 90.82 81 89.53 79.06 89.53 79.06 83.17 78.09 83.17 78.09 89.42 75.96 89.42 75.96 83.17 74.8 83.17 74.8 89.58 72.67 89.58 72.67 83.17 71.64 83.17 71.64 89.6 69.56 89.6 69.56 83.17 68.37 83.17 68.37 89.58 66.46 89.58 66.46 83.17 65.32 83.17"/><rect class="cls-1" x="87.1" y="83.17" width="18.35" height="16.4"/><polygon class="cls-1" points="89.77 83.17 89.75 89.66 87.1 89.66 87.1 91.18 89.72 91.18 89.72 99.57 90.76 99.57 90.76 90.84 92.77 90.84 92.77 99.57 93.96 99.57 93.96 90.82 96.07 90.82 96.07 99.57 97.07 99.57 97.07 90.79 99.09 90.79 99.09 99.57 100.35 99.57 100.35 90.77 102.34 90.77 102.34 99.57 103.3 99.57 103.3 90.82 105.45 90.82 105.45 89.53 103.5 89.53 103.5 83.17 102.54 83.17 102.54 89.42 100.41 89.42 100.41 83.17 99.25 83.17 99.25 89.58 97.12 89.58 97.12 83.17 96.09 83.17 96.09 89.6 94 89.6 94 83.17 92.82 83.17 92.82 89.58 90.91 89.58 90.91 83.17 89.77 83.17"/><rect class="cls-1" x="111.55" y="83.17" width="18.35" height="16.4"/><polygon class="cls-1" points="114.22 83.17 114.2 89.66 111.55 89.66 111.55 91.18 114.17 91.18 114.17 99.57 115.2 99.57 115.2 90.84 117.22 90.84 117.22 99.57 118.41 99.57 118.41 90.82 120.52 90.82 120.52 99.57 121.52 99.57 121.52 90.79 123.54 90.79 123.54 99.57 124.8 99.57 124.8 90.77 126.79 90.77 126.79 99.57 127.75 99.57 127.75 90.82 129.9 90.82 129.9 89.53 127.95 89.53 127.95 83.17 126.99 83.17 126.99 89.42 124.86 89.42 124.86 83.17 123.7 83.17 123.7 89.58 121.57 89.58 121.57 83.17 120.54 83.17 120.54 89.6 118.45 89.6 118.45 83.17 117.27 83.17 117.27 89.58 115.36 89.58 115.36 83.17 114.22 83.17"/><rect class="cls-1" x="161.62" y="76.79" width="12.57" height="16.4"/><polygon class="cls-1" points="171.63 83.19 171.63 76.79 170.6 76.79 170.6 83.22 168.52 83.22 168.52 76.79 167.33 76.79 167.33 83.19 165.43 83.19 165.43 76.79 164.28 76.79 164.26 83.27 161.62 83.27 161.62 84.8 164.24 84.8 164.24 93.19 165.27 93.19 165.27 84.46 167.29 84.46 167.29 93.19 168.47 93.19 168.47 84.43 170.58 84.43 170.58 93.19 171.59 93.19 171.59 84.41 174.19 84.41 174.19 83.14 171.63 83.19"/><rect class="cls-1" x="161.62" y="133.7" width="12.57" height="16.4"/><polygon class="cls-1" points="171.63 140.11 171.63 133.7 170.6 133.7 170.6 140.13 168.52 140.13 168.52 133.7 167.33 133.7 167.33 140.11 165.43 140.11 165.43 133.7 164.28 133.7 164.26 140.18 161.62 140.18 161.62 141.71 164.24 141.71 164.24 150.1 165.27 150.1 165.27 141.37 167.29 141.37 167.29 150.1 168.47 150.1 168.47 141.35 170.58 141.35 170.58 150.1 171.59 150.1 171.59 141.32 174.19 141.32 174.19 140.06 171.63 140.11"/><path class="cls-1" d="M29.92,113a10.75,10.75,0,0,0-1.05-1.69v5.42H26.55v-7.57a7.55,7.55,0,0,0-1.27-.64V117H23v-9a8.78,8.78,0,0,0-1.06-.08h-.06V117H19.55v-8.78a7.44,7.44,0,0,0-1.29.54V117H16.18v-6.62A10.84,10.84,0,0,0,14.92,112v5.12H12.86s0,.05,0,.08a8.73,8.73,0,0,0-.21,1.91v.26h2.25v7.77H16v-8.26h2.2v8.26h1.3v-8.3H21.8v8.3h1.1v-8.34h2.2v8.34h1.37v-8.38h2.18v8.38H29.7v-8.3h1.72c0-.26,0-.48,0-.64a10.21,10.21,0,0,0-.16-1.27H29.92Z"/><path class="cls-1" d="M12.63,127.09v-8a8.73,8.73,0,0,1,.21-1.91c.6-2.7,2.7-9.28,9.05-9.28,8,0,9.44,8.68,9.51,10.28s0,8.94,0,8.94Z"/><path class="cls-1" d="M54.35,113a11.61,11.61,0,0,0-1.06-1.69v5.42H51v-7.57a7.55,7.55,0,0,0-1.27-.64V117H47.38v-9a9.11,9.11,0,0,0-1.06-.08h-.07V117H44v-8.78a7.89,7.89,0,0,0-1.3.54V117H40.61v-6.62A10.22,10.22,0,0,0,39.35,112v5.12H37.29s0,.05,0,.08a8.73,8.73,0,0,0-.21,1.91v.26h2.25v7.77h1.13v-8.26h2.2v8.26h1.29v-8.3h2.3v8.3h1.1v-8.34h2.2v8.34H50.9v-8.38h2.17v8.38h1.06v-8.3h1.72c0-.26,0-.48,0-.64a8.93,8.93,0,0,0-.17-1.27H54.35Z"/><path class="cls-1" d="M37.06,127.09v-8a8.73,8.73,0,0,1,.21-1.91c.59-2.7,2.7-9.28,9-9.28,8,0,9.45,8.68,9.51,10.28s0,8.94,0,8.94Z"/><path class="cls-1" d="M78.77,113a10.75,10.75,0,0,0-1-1.69v5.42H75.4v-7.57a7.55,7.55,0,0,0-1.27-.64V117H71.8v-9a8.77,8.77,0,0,0-1-.08h-.07V117H68.41v-8.78a7.23,7.23,0,0,0-1.3.54V117H65v-6.62A10.84,10.84,0,0,0,63.77,112v5.12h-2a.19.19,0,0,0,0,.08,8.73,8.73,0,0,0-.21,1.91v.26h2.25v7.77h1.12v-8.26h2.2v8.26h1.3v-8.3h2.29v8.3h1.1v-8.34H74v8.34h1.36v-8.38H77.5v8.38h1v-8.3h1.72c0-.26,0-.48,0-.64a10.72,10.72,0,0,0-.17-1.27H78.77Z"/><path class="cls-1" d="M61.48,127.09v-8a8.73,8.73,0,0,1,.21-1.91c.6-2.7,2.7-9.28,9-9.28,8,0,9.45,8.68,9.51,10.28s0,8.94,0,8.94Z"/><path class="cls-1" d="M103.2,113a11.54,11.54,0,0,0-1-1.69v5.42H99.82v-7.57a7.19,7.19,0,0,0-1.27-.64V117H96.23v-9a8.94,8.94,0,0,0-1.06-.08H95.1V117H92.83v-8.78a7.44,7.44,0,0,0-1.29.54V117H89.46v-6.62A10.22,10.22,0,0,0,88.2,112v5.12h-2a.31.31,0,0,1,0,.08,8.73,8.73,0,0,0-.2,1.91v.26h2.24v7.77h1.13v-8.26h2.2v8.26h1.29v-8.3h2.3v8.3h1.1v-8.34h2.2v8.34h1.37v-8.38h2.18v8.38h1v-8.3h1.72c0-.26,0-.48,0-.64a8.93,8.93,0,0,0-.17-1.27H103.2Z"/><path class="cls-1" d="M85.91,127.09v-8a8.73,8.73,0,0,1,.21-1.91c.59-2.7,2.7-9.28,9-9.28,8,0,9.45,8.68,9.51,10.28s0,8.94,0,8.94Z"/><path class="cls-1" d="M127.62,113a10.75,10.75,0,0,0-1.05-1.69v5.42h-2.32v-7.57a7.55,7.55,0,0,0-1.27-.64V117h-2.33v-9a8.77,8.77,0,0,0-1.05-.08h-.07V117h-2.27v-8.78a7.55,7.55,0,0,0-1.3.54V117h-2.08v-6.62a10.16,10.16,0,0,0-1.25,1.62l0,5.12h-2a.19.19,0,0,0,0,.08,8.73,8.73,0,0,0-.21,1.91v.26h2.25v7.77h1.12v-8.26h2.2v8.26h1.3v-8.3h2.3v8.3h1.1v-8.34h2.2v8.34h1.37v-8.38h2.17v8.38h1.05v-8.3h1.72c0-.26,0-.48,0-.64a10.72,10.72,0,0,0-.17-1.27h-1.32Z"/><path class="cls-1" d="M110.33,127.09v-8a8.73,8.73,0,0,1,.21-1.91c.6-2.7,2.71-9.28,9-9.28,8,0,9.45,8.68,9.51,10.28s0,8.94,0,8.94Z"/><path class="cls-1" d="M174,110.83a9.64,9.64,0,0,0-.86-1.48v4.78H171.3v-6.69a6.77,6.77,0,0,0-1-.56v7.45h-1.89v-8a7.74,7.74,0,0,0-.86-.06h-.05v8.05h-1.84v-7.75a5.58,5.58,0,0,0-1,.47v7.24h-1.69v-5.84a8.45,8.45,0,0,0-1,1.43v4.51H160.2a.19.19,0,0,1,0,.07,8.72,8.72,0,0,0-.16,1.69v.23h1.82v6.85h.91V116h1.79v7.29h1.05V116h1.86v7.32h.89v-7.35h1.79v7.35h1.11v-7.39H173v7.39h.86V116h1.39c0-.23,0-.42,0-.56a9.05,9.05,0,0,0-.14-1.13H174Z"/><path class="cls-1" d="M160,123.27v-7.08a8.73,8.73,0,0,1,.17-1.69c.48-2.38,2.19-8.18,7.34-8.18,6.47,0,7.66,7.66,7.71,9.07s0,7.88,0,7.88Z"/><polygon class="cls-1" points="151.49 155.89 152.3 66.15 152.3 57.81 149.26 54.14 167.7 43.77 183.7 52.7 183.7 155.89 151.49 155.89"/><rect class="cls-1" x="161.62" y="56.53" width="12.89" height="10.21"/><polyline class="cls-1" points="161.62 59.43 167.39 59.43 167.39 66.75 168.8 66.75 168.8 59.43 174.51 59.43 174.51 58.4 161.62 58.4 161.62 59.59"/><path class="cls-1" d="M151,111.3h0l0,0Z"/><path class="cls-1" d="M151.46,112a2.13,2.13,0,0,0,.16.25A2.13,2.13,0,0,1,151.46,112Z"/><path class="cls-1" d="M148.67,109.15s0,0,0,0l0,0Z"/><path class="cls-1" d="M147.4,108.51Z"/><path class="cls-1" d="M145.08,108a8.94,8.94,0,0,0-1.06-.08h0a8.94,8.94,0,0,1,1.06.08Z"/><path class="cls-1" d="M151.72,112.38s-.07-.1-.1-.16a1.74,1.74,0,0,0,.1.19Z"/><path class="cls-1" d="M151,116.72v-5.41a8.78,8.78,0,0,0-2.33-2.16v7.57Z"/><path class="cls-1" d="M147.42,108.52a7.47,7.47,0,0,1,1.2.6A7.47,7.47,0,0,0,147.42,108.52Z"/><path class="cls-1" d="M151,111.36c.15.2.28.41.42.61C151.32,111.77,151.19,111.56,151,111.36Z"/><rect class="cls-1" x="145.03" y="118.75" width="2.2" height="8.34"/><rect class="cls-1" x="141.63" y="118.79" width="2.3" height="8.3"/><path class="cls-1" d="M147.4,117v-8.44a8.48,8.48,0,0,0-2.32-.56v9Z"/><rect class="cls-1" x="148.6" y="118.71" width="2.18" height="8.37"/><rect class="cls-1" x="138.14" y="118.83" width="2.2" height="8.26"/><path class="cls-1" d="M134.77,119.32v-.26a8.73,8.73,0,0,1,.2-1.91.31.31,0,0,0,0-.08h2V112a10.22,10.22,0,0,1,1.26-1.62V117h2.08v-8.2a7.44,7.44,0,0,1,1.29-.54V117H144v-9.11H144c-6.35,0-8.46,6.58-9.05,9.28a8.73,8.73,0,0,0-.21,1.91v8H137v-7.77Z"/><path class="cls-1" d="M151.62,112.22a2.13,2.13,0,0,1-.16-.25c-.14-.2-.27-.41-.42-.61l0,0v5.41h-2.33v-7.57l0,0a7.47,7.47,0,0,0-1.2-.6h0V117h-2.32v-9a8.94,8.94,0,0,0-1.06-.08H144V117h-2.28v-8.78a7.44,7.44,0,0,0-1.29.54V117h-2.08v-6.62a10.22,10.22,0,0,0-1.26,1.62v5.12h-2a.31.31,0,0,1,0,.08,8.73,8.73,0,0,0-.2,1.91v.26H137v7.77h1.13v-8.26h2.2v8.26h1.29v-8.3h2.3v8.3H145v-8.34h2.2v8.34h1.37v-8.38h2.18v8.38h.94V112.41A1.74,1.74,0,0,1,151.62,112.22Z"/><path class="cls-1" d="M152.05,113l-.1-.18.1.19Z"/><path class="cls-1" d="M152,112.81l-.23-.43v0Z"/><rect class="cls-1" x="151.38" y="83.17" width="0.79" height="6.36"/><rect class="cls-1" x="148.29" y="83.17" width="2.13" height="6.25"/><rect class="cls-1" x="145" y="83.17" width="2.13" height="6.41"/><rect class="cls-1" x="148.22" y="90.77" width="1.99" height="8.81"/><rect class="cls-1" x="151.18" y="90.82" width="0.99" height="8.76"/><rect class="cls-1" x="144.95" y="90.79" width="2.02" height="8.78"/><rect class="cls-1" x="134.98" y="91.18" width="2.62" height="8.4"/><rect class="cls-1" x="138.79" y="83.17" width="1.9" height="6.41"/><polygon class="cls-1" points="137.65 83.17 134.98 83.17 134.98 89.66 137.63 89.66 137.65 83.17"/><rect class="cls-1" x="141.88" y="83.17" width="2.08" height="6.43"/><rect class="cls-1" x="138.63" y="90.84" width="2.02" height="8.73"/><rect class="cls-1" x="141.84" y="90.82" width="2.11" height="8.76"/><polygon class="cls-1" points="152.18 90.82 152.18 89.53 151.38 89.53 151.38 83.17 150.42 83.17 150.42 89.42 148.29 89.42 148.29 83.17 147.13 83.17 147.13 89.58 145 89.58 145 83.17 143.97 83.17 143.97 89.6 141.88 89.6 141.88 83.17 140.69 83.17 140.69 89.58 138.79 89.58 138.79 83.17 137.65 83.17 137.63 89.66 134.98 89.66 134.98 91.18 137.6 91.18 137.6 99.57 138.63 99.57 138.63 90.84 140.65 90.84 140.65 99.57 141.84 99.57 141.84 90.82 143.94 90.82 143.94 99.57 144.95 99.57 144.95 90.79 146.97 90.79 146.97 99.57 148.22 99.57 148.22 90.77 150.22 90.77 150.22 99.57 151.18 99.57 151.18 90.82 152.18 90.82"/><rect class="cls-1" x="151.16" y="135.38" width="0.53" height="6.36"/><rect class="cls-1" x="150.96" y="143.03" width="0.73" height="8.76"/><rect class="cls-1" x="141.66" y="135.38" width="2.08" height="6.43"/><rect class="cls-1" x="138.57" y="135.38" width="1.9" height="6.41"/><polygon class="cls-1" points="137.43 135.38 134.76 135.38 134.76 141.87 137.4 141.87 137.43 135.38"/><rect class="cls-1" x="134.76" y="143.39" width="2.62" height="8.4"/><rect class="cls-1" x="144.78" y="135.38" width="2.13" height="6.41"/><rect class="cls-1" x="148.07" y="135.38" width="2.13" height="6.25"/><rect class="cls-1" x="138.41" y="143.06" width="2.02" height="8.73"/><rect class="cls-1" x="144.73" y="143" width="2.02" height="8.78"/><rect class="cls-1" x="148" y="142.98" width="1.99" height="8.81"/><rect class="cls-1" x="141.62" y="143.03" width="2.11" height="8.76"/><polygon class="cls-1" points="151.69 143.03 151.69 141.74 151.16 141.74 151.16 135.38 150.2 135.38 150.2 141.63 148.07 141.63 148.07 135.38 146.9 135.38 146.9 141.79 144.78 141.79 144.78 135.38 143.75 135.38 143.75 141.82 141.66 141.82 141.66 135.38 140.47 135.38 140.47 141.79 138.57 141.79 138.57 135.38 137.43 135.38 137.4 141.87 134.76 141.87 134.76 143.39 137.38 143.39 137.38 151.79 138.41 151.79 138.41 143.06 140.43 143.06 140.43 151.79 141.62 151.79 141.62 143.03 143.72 143.03 143.72 151.79 144.73 151.79 144.73 143 146.75 143 146.75 151.79 148 151.79 148 142.98 150 142.98 150 151.79 150.96 151.79 150.96 143.03 151.69 143.03"/><polyline class="cls-1" points="249.88 73.4 240.57 73.4 240.57 68.23 235.15 68.23 235.15 73.4 215.17 73.4 215.17 68.36 209.62 68.36 209.62 73.4 189.19 73.4 189.19 67.6 183.7 67.6 183.7 84.45 189.51 84.45 189.51 77.68 209.55 77.68 209.55 84.45 215.11 84.45 215.11 77.81 235.41 77.81 235.41 84.45 240.77 84.45 240.77 77.81 258.56 77.88 258.56 84.52 263.93 84.52 263.93 77.88 284.22 77.88 284.22 84.52 289.78 84.52 289.78 77.75 309.82 77.75 309.82 84.52 315.63 84.52 315.63 67.67 310.14 67.67 310.14 73.48 289.71 73.48 289.71 68.44 284.16 68.44 284.16 73.48 264.18 73.48 264.18 68.31 258.76 68.31 258.76 73.48 249.88 73.4"/><path class="cls-1" d="M241.34,114.8c-.13,7.94,0,11.84,0,11.84h-5.51V114.53s-1.19-9.06-9.87-10.13-10.51,10.34-10.51,10.34v11.9h-5.79V114.19s-1.45-10.76-10.13-10-10.17,9.37-10.17,10v12.36H183.7V92.81h5.94v1.53h20.17V92.81h5.3v1.53H235.6V92.81h5.23v1.53l8.62.15"/><rect class="cls-1" x="236.55" y="126.64" width="3.83" height="29.64"/><rect class="cls-1" x="210.58" y="126.64" width="3.83" height="29.64"/><rect class="cls-1" x="184.66" y="126.64" width="3.83" height="29.64"/><line class="cls-1" x1="10.3" y1="76.09" x2="152.2" y2="76.79"/><line class="cls-1" x1="189.19" y1="68.62" x2="209.62" y2="68.62"/><line class="cls-1" x1="189.19" y1="69.79" x2="209.62" y2="69.79"/><line class="cls-1" x1="189.19" y1="70.96" x2="209.62" y2="70.96"/><line class="cls-1" x1="189.19" y1="72.13" x2="209.62" y2="72.13"/><line class="cls-1" x1="214.94" y1="68.62" x2="235.36" y2="68.62"/><line class="cls-1" x1="214.94" y1="69.79" x2="235.36" y2="69.79"/><line class="cls-1" x1="214.94" y1="70.96" x2="235.36" y2="70.96"/><line class="cls-1" x1="214.94" y1="72.13" x2="235.36" y2="72.13"/><line class="cls-1" x1="240.47" y1="68.62" x2="249.88" y2="68.62"/><line class="cls-1" x1="240.47" y1="69.79" x2="249.88" y2="69.79"/><line class="cls-1" x1="240.47" y1="70.96" x2="249.88" y2="70.96"/><line class="cls-1" x1="240.47" y1="72.13" x2="249.88" y2="72.13"/><rect class="cls-1" x="184.76" y="84.45" width="1.6" height="8.36"/><rect class="cls-1" x="187.6" y="84.45" width="1.6" height="8.36"/><rect class="cls-1" x="210.06" y="84.45" width="1.6" height="8.36"/><rect class="cls-1" x="212.9" y="84.45" width="1.6" height="8.36"/><rect class="cls-1" x="235.85" y="84.45" width="1.6" height="8.36"/><rect class="cls-1" x="238.69" y="84.45" width="1.6" height="8.36"/><path class="cls-1" d="M489,156.43V76.23h9.18l-35.71-8-19.64.66-15.57-3L347,66.3V58l8.17-9.87L332.39,35,313.08,47V43.55H310.9l-2.36,4.66.1,1.2-6.29-1.64L272.1,48V43l-.8-.45V38L263.25,35s-2.09-9.92-12.47-11.15c0,0,.22-.44-.87-.53V.15h-.46"/><polyline class="cls-1" points="263.25 34.98 259.63 33.63 249.45 33.63 249.45 39.49 259.29 39.49 272.1 42.98"/><polyline class="cls-1" points="271.3 39.62 259.37 35.66 249.45 35.66"/><polyline class="cls-1" points="271.3 41.27 259.37 37.31 249.45 37.31"/><rect class="cls-1" x="258.44" y="33.28" width="1.02" height="6.34" transform="translate(517.89 72.89) rotate(-180)"/><polygon class="cls-1" points="270.53 50.51 270.53 45.34 260 41.51 260 53.86 270.53 50.51"/><polyline class="cls-1" points="249.45 41.27 257.48 41.27 257.48 54.23 249.43 54.21"/><line class="cls-1" x1="251.29" y1="48.11" x2="251.29" y2="43.59"/><line class="cls-1" x1="247.97" y1="43.96" x2="251.39" y2="43.96"/><line class="cls-1" x1="247.97" y1="47.75" x2="251.39" y2="47.75"/><rect class="cls-1" x="467.22" y="83.32" width="18.35" height="16.4"/><polygon class="cls-1" points="482.91 83.32 482.93 89.8 485.57 89.8 485.57 91.33 482.95 91.33 482.95 99.72 481.92 99.72 481.92 90.99 479.91 90.99 479.91 99.72 478.72 99.72 478.72 90.97 476.61 90.97 476.61 99.72 475.6 99.72 475.6 90.94 473.59 90.94 473.59 99.72 472.33 99.72 472.33 90.91 470.34 90.91 470.34 99.72 469.38 99.72 469.38 90.97 467.22 90.97 467.22 89.67 469.17 89.67 469.17 83.32 470.14 83.32 470.14 89.57 472.26 89.57 472.26 83.32 473.43 83.32 473.43 89.73 475.56 89.73 475.56 83.32 476.59 83.32 476.59 89.75 478.67 89.75 478.67 83.32 479.86 83.32 479.86 89.73 481.77 89.73 481.77 83.32 482.91 83.32"/><rect class="cls-1" x="467.22" y="135.53" width="18.35" height="16.4"/><polygon class="cls-1" points="482.91 135.53 482.93 142.02 485.57 142.02 485.57 143.54 482.95 143.54 482.95 151.94 481.92 151.94 481.92 143.21 479.91 143.21 479.91 151.94 478.72 151.94 478.72 143.18 476.61 143.18 476.61 151.94 475.6 151.94 475.6 143.15 473.59 143.15 473.59 151.94 472.33 151.94 472.33 143.13 470.34 143.13 470.34 151.94 469.38 151.94 469.38 143.18 467.22 143.18 467.22 141.89 469.17 141.89 469.17 135.53 470.14 135.53 470.14 141.78 472.26 141.78 472.26 135.53 473.43 135.53 473.43 141.94 475.56 141.94 475.56 135.53 476.59 135.53 476.59 141.97 478.67 141.97 478.67 135.53 479.86 135.53 479.86 141.94 481.77 141.94 481.77 135.53 482.91 135.53"/><rect class="cls-1" x="443.92" y="135.53" width="18.35" height="16.4"/><polygon class="cls-1" points="459.61 135.53 459.63 142.02 462.27 142.02 462.27 143.54 459.65 143.54 459.65 151.94 458.62 151.94 458.62 143.21 456.6 143.21 456.6 151.94 455.42 151.94 455.42 143.18 453.31 143.18 453.31 151.94 452.3 151.94 452.3 143.15 450.29 143.15 450.29 151.94 449.03 151.94 449.03 143.13 447.04 143.13 447.04 151.94 446.07 151.94 446.07 143.18 443.92 143.18 443.92 141.89 445.87 141.89 445.87 135.53 446.83 135.53 446.83 141.78 448.96 141.78 448.96 135.53 450.13 135.53 450.13 141.94 452.26 141.94 452.26 135.53 453.29 135.53 453.29 141.97 455.37 141.97 455.37 135.53 456.56 135.53 456.56 141.94 458.46 141.94 458.46 135.53 459.61 135.53"/><rect class="cls-1" x="419.5" y="135.53" width="18.35" height="16.4"/><polygon class="cls-1" points="435.18 135.53 435.2 142.02 437.85 142.02 437.85 143.54 435.23 143.54 435.23 151.94 434.19 151.94 434.19 143.21 432.18 143.21 432.18 151.94 430.99 151.94 430.99 143.18 428.88 143.18 428.88 151.94 427.88 151.94 427.88 143.15 425.86 143.15 425.86 151.94 424.61 151.94 424.61 143.13 422.61 143.13 422.61 151.94 421.65 151.94 421.65 143.18 419.5 143.18 419.5 141.89 421.45 141.89 421.45 135.53 422.41 135.53 422.41 141.78 424.54 141.78 424.54 135.53 425.7 135.53 425.7 141.94 427.83 141.94 427.83 135.53 428.86 135.53 428.86 141.97 430.95 141.97 430.95 135.53 432.13 135.53 432.13 141.94 434.04 141.94 434.04 135.53 435.18 135.53"/><rect class="cls-1" x="395.07" y="135.53" width="18.35" height="16.4"/><polygon class="cls-1" points="410.76 135.53 410.78 142.02 413.42 142.02 413.42 143.54 410.8 143.54 410.8 151.94 409.77 151.94 409.77 143.21 407.75 143.21 407.75 151.94 406.57 151.94 406.57 143.18 404.46 143.18 404.46 151.94 403.45 151.94 403.45 143.15 401.44 143.15 401.44 151.94 400.18 151.94 400.18 143.13 398.19 143.13 398.19 151.94 397.22 151.94 397.22 143.18 395.07 143.18 395.07 141.89 397.02 141.89 397.02 135.53 397.98 135.53 397.98 141.78 400.11 141.78 400.11 135.53 401.28 135.53 401.28 141.94 403.41 141.94 403.41 135.53 404.44 135.53 404.44 141.97 406.52 141.97 406.52 135.53 407.71 135.53 407.71 141.94 409.61 141.94 409.61 135.53 410.76 135.53"/><rect class="cls-1" x="370.65" y="135.53" width="18.35" height="16.4"/><polygon class="cls-1" points="386.33 135.53 386.35 142.02 389 142.02 389 143.54 386.38 143.54 386.38 151.94 385.34 151.94 385.34 143.21 383.33 143.21 383.33 151.94 382.14 151.94 382.14 143.18 380.03 143.18 380.03 151.94 379.03 151.94 379.03 143.15 377.01 143.15 377.01 151.94 375.75 151.94 375.75 143.13 373.76 143.13 373.76 151.94 372.8 151.94 372.8 143.18 370.64 143.18 370.64 141.89 372.6 141.89 372.6 135.53 373.56 135.53 373.56 141.78 375.69 141.78 375.69 135.53 376.85 135.53 376.85 141.94 378.98 141.94 378.98 135.53 380.01 135.53 380.01 141.97 382.1 141.97 382.1 135.53 383.28 135.53 383.28 141.94 385.19 141.94 385.19 135.53 386.33 135.53"/><rect class="cls-1" x="442.77" y="83.32" width="18.35" height="16.4"/><polygon class="cls-1" points="458.46 83.32 458.48 89.8 461.13 89.8 461.13 91.33 458.5 91.33 458.5 99.72 457.47 99.72 457.47 90.99 455.46 90.99 455.46 99.72 454.27 99.72 454.27 90.97 452.16 90.97 452.16 99.72 451.15 99.72 451.15 90.94 449.14 90.94 449.14 99.72 447.88 99.72 447.88 90.91 445.89 90.91 445.89 99.72 444.93 99.72 444.93 90.97 442.77 90.97 442.77 89.67 444.72 89.67 444.72 83.32 445.69 83.32 445.69 89.57 447.82 89.57 447.82 83.32 448.98 83.32 448.98 89.73 451.11 89.73 451.11 83.32 452.14 83.32 452.14 89.75 454.23 89.75 454.23 83.32 455.41 83.32 455.41 89.73 457.32 89.73 457.32 83.32 458.46 83.32"/><rect class="cls-1" x="418.33" y="83.32" width="18.35" height="16.4"/><polygon class="cls-1" points="434.01 83.32 434.03 89.8 436.68 89.8 436.68 91.33 434.06 91.33 434.06 99.72 433.02 99.72 433.02 90.99 431.01 90.99 431.01 99.72 429.82 99.72 429.82 90.97 427.71 90.97 427.71 99.72 426.71 99.72 426.71 90.94 424.69 90.94 424.69 99.72 423.43 99.72 423.43 90.91 421.44 90.91 421.44 99.72 420.48 99.72 420.48 90.97 418.33 90.97 418.33 89.67 420.27 89.67 420.27 83.32 421.24 83.32 421.24 89.57 423.37 89.57 423.37 83.32 424.53 83.32 424.53 89.73 426.66 89.73 426.66 83.32 427.69 83.32 427.69 89.75 429.77 89.75 429.77 83.32 430.96 83.32 430.96 89.73 432.87 89.73 432.87 83.32 434.01 83.32"/><rect class="cls-1" x="393.88" y="83.32" width="18.35" height="16.4"/><polygon class="cls-1" points="409.56 83.32 409.58 89.8 412.23 89.8 412.23 91.33 409.61 91.33 409.61 99.72 408.57 99.72 408.57 90.99 406.56 90.99 406.56 99.72 405.37 99.72 405.37 90.97 403.26 90.97 403.26 99.72 402.26 99.72 402.26 90.94 400.24 90.94 400.24 99.72 398.99 99.72 398.99 90.91 396.99 90.91 396.99 99.72 396.03 99.72 396.03 90.97 393.88 90.97 393.88 89.67 395.83 89.67 395.83 83.32 396.79 83.32 396.79 89.57 398.92 89.57 398.92 83.32 400.08 83.32 400.08 89.73 402.21 89.73 402.21 83.32 403.24 83.32 403.24 89.75 405.33 89.75 405.33 83.32 406.51 83.32 406.51 89.73 408.42 89.73 408.42 83.32 409.56 83.32"/><rect class="cls-1" x="369.43" y="83.32" width="18.35" height="16.4"/><polygon class="cls-1" points="385.11 83.32 385.13 89.8 387.78 89.8 387.78 91.33 385.16 91.33 385.16 99.72 384.13 99.72 384.13 90.99 382.11 90.99 382.11 99.72 380.92 99.72 380.92 90.97 378.82 90.97 378.82 99.72 377.81 99.72 377.81 90.94 375.79 90.94 375.79 99.72 374.54 99.72 374.54 90.91 372.54 90.91 372.54 99.72 371.58 99.72 371.58 90.97 369.43 90.97 369.43 89.67 371.38 89.67 371.38 83.32 372.34 83.32 372.34 89.57 374.47 89.57 374.47 83.32 375.63 83.32 375.63 89.73 377.76 89.73 377.76 83.32 378.79 83.32 378.79 89.75 380.88 89.75 380.88 83.32 382.06 83.32 382.06 89.73 383.97 89.73 383.97 83.32 385.11 83.32"/><rect class="cls-1" x="325.14" y="76.94" width="12.57" height="16.4"/><polygon class="cls-1" points="327.7 83.34 327.7 76.94 328.73 76.94 328.73 83.37 330.81 83.37 330.81 76.94 332 76.94 332 83.34 333.9 83.34 333.9 76.94 335.05 76.94 335.07 83.42 337.71 83.42 337.71 84.94 335.09 84.94 335.09 93.34 334.06 93.34 334.06 84.61 332.04 84.61 332.04 93.34 330.86 93.34 330.86 84.58 328.75 84.58 328.75 93.34 327.74 93.34 327.74 84.56 325.14 84.56 325.14 83.29 327.7 83.34"/><rect class="cls-1" x="325.14" y="133.85" width="12.57" height="16.4"/><polygon class="cls-1" points="327.7 140.25 327.7 133.85 328.73 133.85 328.73 140.28 330.81 140.28 330.81 133.85 332 133.85 332 140.25 333.9 140.25 333.9 133.85 335.05 133.85 335.07 140.33 337.71 140.33 337.71 141.86 335.09 141.86 335.09 150.25 334.06 150.25 334.06 141.52 332.04 141.52 332.04 150.25 330.86 150.25 330.86 141.5 328.75 141.5 328.75 150.25 327.74 150.25 327.74 141.47 325.14 141.47 325.14 140.2 327.7 140.25"/><path class="cls-1" d="M469.41,113.14a10.75,10.75,0,0,1,1-1.69v5.42h2.32v-7.58a8.46,8.46,0,0,1,1.28-.63v8.44h2.32v-9c.34,0,.69-.07,1.06-.07h.06v9.11h2.28v-8.78a7.44,7.44,0,0,1,1.29.54v8.2h2.08v-6.62a10.22,10.22,0,0,1,1.26,1.62v5.12h2.05s0,0,0,.07a8.82,8.82,0,0,1,.21,1.92v.26h-2.24v7.76h-1.13V119h-2.2v8.25h-1.29v-8.29h-2.3v8.29h-1.1V118.9h-2.2v8.33h-1.37v-8.37h-2.18v8.37h-1.05v-8.29h-1.72c0-.26,0-.48,0-.64a10.21,10.21,0,0,1,.16-1.27h1.32Z"/><path class="cls-1" d="M486.7,127.23v-8a8.82,8.82,0,0,0-.21-1.92c-.6-2.69-2.7-9.27-9.05-9.27-8,0-9.44,8.68-9.51,10.28s0,8.93,0,8.93Z"/><path class="cls-1" d="M445,113.14a10.75,10.75,0,0,1,1.05-1.69v5.42h2.32v-7.58a8.34,8.34,0,0,1,1.27-.63v8.44H452v-9c.35,0,.69-.07,1.06-.07h.07v9.11h2.27v-8.78a7.89,7.89,0,0,1,1.3.54v8.2h2.07v-6.62A10.22,10.22,0,0,1,460,112.1l0,5.12h2s0,0,0,.07a8.82,8.82,0,0,1,.21,1.92v.26H460v7.76H458.9V119h-2.2v8.25h-1.3v-8.29h-2.3v8.29H452V118.9h-2.2v8.33h-1.37v-8.37h-2.17v8.37h-1.05v-8.29h-1.72c0-.26,0-.48,0-.64a8.93,8.93,0,0,1,.17-1.27H445Z"/><path class="cls-1" d="M462.27,127.23v-8a8.82,8.82,0,0,0-.2-1.92c-.6-2.69-2.71-9.27-9.05-9.27-8,0-9.45,8.68-9.51,10.28s0,8.93,0,8.93Z"/><path class="cls-1" d="M420.56,113.14a10.75,10.75,0,0,1,1.05-1.69v5.42h2.32v-7.58a8.34,8.34,0,0,1,1.27-.63v8.44h2.33v-9c.34,0,.68-.07,1.06-.07h.06v9.11h2.28v-8.78a7.44,7.44,0,0,1,1.29.54v8.2h2.08v-6.62a10.84,10.84,0,0,1,1.26,1.62v5.12h2.05s0,0,0,.07a8.82,8.82,0,0,1,.21,1.92v.26h-2.25v7.76h-1.12V119h-2.2v8.25H431v-8.29h-2.29v8.29h-1.1V118.9h-2.2v8.33H424v-8.37h-2.18v8.37h-1.05v-8.29h-1.72c0-.26,0-.48,0-.64a10.21,10.21,0,0,1,.16-1.27h1.32Z"/><path class="cls-1" d="M437.85,127.23v-8a8.82,8.82,0,0,0-.21-1.92c-.6-2.69-2.7-9.27-9.05-9.27-8,0-9.44,8.68-9.51,10.28s0,8.93,0,8.93Z"/><path class="cls-1" d="M396.13,113.14a11.61,11.61,0,0,1,1.06-1.69v5.42h2.32v-7.58a8.34,8.34,0,0,1,1.27-.63v8.44h2.32v-9c.35,0,.69-.07,1.06-.07h.07v9.11h2.27v-8.78a7.89,7.89,0,0,1,1.3.54v8.2h2.07v-6.62a10.22,10.22,0,0,1,1.26,1.62v5.12h2.05s0,0,0,.07a8.82,8.82,0,0,1,.21,1.92v.26h-2.25v7.76H410V119h-2.2v8.25h-1.29v-8.29h-2.3v8.29h-1.1V118.9H401v8.33h-1.37v-8.37h-2.17v8.37h-1.06v-8.29h-1.72c0-.26,0-.48,0-.64a8.93,8.93,0,0,1,.17-1.27h1.31Z"/><path class="cls-1" d="M413.42,127.23v-8a8.82,8.82,0,0,0-.21-1.92c-.59-2.69-2.7-9.27-9-9.27-8,0-9.45,8.68-9.51,10.28s0,8.93,0,8.93Z"/><path class="cls-1" d="M371.71,113.14a10.75,10.75,0,0,1,1.05-1.69v5.42h2.32v-7.58a8.34,8.34,0,0,1,1.27-.63v8.44h2.33v-9c.34,0,.68-.07,1.05-.07h.07v9.11h2.27v-8.78a7.23,7.23,0,0,1,1.3.54v8.2h2.08v-6.62a10.84,10.84,0,0,1,1.26,1.62v5.12h2a.19.19,0,0,1,0,.07,8.82,8.82,0,0,1,.21,1.92v.26h-2.25v7.76h-1.12V119h-2.2v8.25h-1.3v-8.29h-2.3v8.29h-1.1V118.9h-2.2v8.33h-1.36v-8.37H373v8.37h-1.05v-8.29h-1.72c0-.26,0-.48,0-.64a10.72,10.72,0,0,1,.17-1.27h1.32Z"/><path class="cls-1" d="M389,127.23v-8a8.82,8.82,0,0,0-.21-1.92c-.6-2.69-2.7-9.27-9.05-9.27-8,0-9.45,8.68-9.51,10.28s0,8.93,0,8.93Z"/><path class="cls-1" d="M325.3,111a9.66,9.66,0,0,1,.85-1.49v4.79H328v-6.69a7.28,7.28,0,0,1,1-.56v7.45H331v-8a7.74,7.74,0,0,1,.86-.06h.05v8h1.84v-7.74a5.58,5.58,0,0,1,1.05.47v7.24h1.69v-5.84a8.45,8.45,0,0,1,1,1.43v4.51h1.66s0,0,0,.07a8.72,8.72,0,0,1,.16,1.69v.23h-1.82v6.85h-.91v-7.29h-1.79v7.29h-1.05V116.1h-1.86v7.32H331v-7.35H329.2v7.35h-1.11V116h-1.76v7.39h-.86V116.1h-1.39c0-.23,0-.43,0-.56a9.05,9.05,0,0,1,.14-1.13h1.07Z"/><path class="cls-1" d="M339.32,123.42v-7.08a8.73,8.73,0,0,0-.17-1.69c-.48-2.38-2.19-8.18-7.34-8.18-6.47,0-7.66,7.66-7.71,9.07s0,7.88,0,7.88Z"/><polygon class="cls-1" points="347.84 156.04 347.03 66.3 347.03 57.96 350.07 54.29 331.63 43.91 315.63 52.85 315.63 156.04 347.84 156.04"/><rect class="cls-1" x="324.82" y="56.68" width="12.89" height="10.21"/><polyline class="cls-1" points="337.71 59.57 331.94 59.57 331.94 66.89 330.53 66.89 330.53 59.57 324.82 59.57 324.82 58.55 337.71 58.55 337.71 59.73"/><path class="cls-1" d="M348.33,111.45h0l0,.05Z"/><path class="cls-1" d="M347.87,112.12l-.15.25Z"/><path class="cls-1" d="M350.66,109.29l0,0,0,0Z"/><path class="cls-1" d="M351.93,108.66Z"/><path class="cls-1" d="M354.25,108.09c.34,0,.69-.07,1.06-.07h0c-.37,0-.71,0-1.06.07Z"/><path class="cls-1" d="M347.61,112.53l.11-.16-.11.19Z"/><path class="cls-1" d="M348.33,116.87v-5.41a8.78,8.78,0,0,1,2.33-2.16v7.57Z"/><path class="cls-1" d="M351.91,108.67a7.47,7.47,0,0,0-1.2.6A7.47,7.47,0,0,1,351.91,108.67Z"/><path class="cls-1" d="M348.29,111.51c-.15.2-.28.41-.42.61C348,111.92,348.14,111.71,348.29,111.51Z"/><rect class="cls-1" x="352.1" y="118.9" width="2.2" height="8.34"/><rect class="cls-1" x="355.4" y="118.94" width="2.3" height="8.3"/><path class="cls-1" d="M351.93,117.1v-8.44a8.86,8.86,0,0,1,2.32-.57v9Z"/><rect class="cls-1" x="348.55" y="118.86" width="2.18" height="8.37"/><rect class="cls-1" x="358.99" y="118.98" width="2.2" height="8.26"/><path class="cls-1" d="M364.56,119.47v-.26a8.82,8.82,0,0,0-.2-1.92.19.19,0,0,1,0-.07h-2V112.1a10.22,10.22,0,0,0-1.26-1.62v6.62h-2.08v-8.2a7.44,7.44,0,0,0-1.29-.54v8.78h-2.28V108h-.05c6.34,0,8.45,6.58,9,9.27a8.82,8.82,0,0,1,.21,1.92v8h-2.25v-7.76Z"/><path class="cls-1" d="M347.72,112.37l.15-.25c.14-.2.27-.41.42-.61l0-.05v5.41h2.33V109.3l0,0a7.47,7.47,0,0,1,1.2-.6h0v8.44h2.32v-9c.35,0,.69-.07,1.06-.07h.06v9.11h2.28v-8.78a7.44,7.44,0,0,1,1.29.54v8.2H361v-6.62a10.22,10.22,0,0,1,1.26,1.62v5.12h2a.19.19,0,0,0,0,.07,8.82,8.82,0,0,1,.2,1.92v.26h-2.24v7.76h-1.13V119H359v8.25H357.7v-8.29h-2.3v8.29h-1.1V118.9h-2.2v8.33h-1.37v-8.37h-2.18v8.37h-.94V112.56Z"/><path class="cls-1" d="M347.28,113.14l.1-.18a1.74,1.74,0,0,1-.1.19Z"/><path class="cls-1" d="M347.38,113l.23-.43v0Z"/><rect class="cls-1" x="347.16" y="83.32" width="0.79" height="6.36"/><rect class="cls-1" x="348.91" y="83.32" width="2.13" height="6.25"/><rect class="cls-1" x="352.2" y="83.32" width="2.13" height="6.41"/><rect class="cls-1" x="349.11" y="90.91" width="1.99" height="8.81"/><rect class="cls-1" x="347.16" y="90.97" width="0.99" height="8.76"/><rect class="cls-1" x="352.36" y="90.94" width="2.02" height="8.78"/><rect class="cls-1" x="361.73" y="91.33" width="2.62" height="8.4"/><rect class="cls-1" x="358.64" y="83.32" width="1.9" height="6.41"/><polygon class="cls-1" points="361.68 83.32 364.35 83.32 364.35 89.8 361.7 89.8 361.68 83.32"/><rect class="cls-1" x="355.36" y="83.32" width="2.08" height="6.43"/><rect class="cls-1" x="358.68" y="90.99" width="2.02" height="8.73"/><rect class="cls-1" x="355.39" y="90.97" width="2.11" height="8.76"/><polygon class="cls-1" points="347.15 90.97 347.15 89.67 347.95 89.67 347.95 83.32 348.91 83.32 348.91 89.57 351.04 89.57 351.04 83.32 352.2 83.32 352.2 89.73 354.33 89.73 354.33 83.32 355.36 83.32 355.36 89.75 357.45 89.75 357.45 83.32 358.64 83.32 358.64 89.73 360.54 89.73 360.54 83.32 361.68 83.32 361.7 89.8 364.35 89.8 364.35 91.33 361.73 91.33 361.73 99.72 360.7 99.72 360.7 90.99 358.68 90.99 358.68 99.72 357.49 99.72 357.49 90.97 355.39 90.97 355.39 99.72 354.38 99.72 354.38 90.94 352.36 90.94 352.36 99.72 351.11 99.72 351.11 90.91 349.11 90.91 349.11 99.72 348.15 99.72 348.15 90.97 347.15 90.97"/><rect class="cls-1" x="347.64" y="135.53" width="0.53" height="6.36"/><rect class="cls-1" x="347.64" y="143.18" width="0.73" height="8.76"/><rect class="cls-1" x="355.59" y="135.53" width="2.08" height="6.43"/><rect class="cls-1" x="358.86" y="135.53" width="1.9" height="6.41"/><polygon class="cls-1" points="361.9 135.53 364.57 135.53 364.57 142.02 361.93 142.02 361.9 135.53"/><rect class="cls-1" x="361.95" y="143.54" width="2.62" height="8.4"/><rect class="cls-1" x="352.43" y="135.53" width="2.13" height="6.41"/><rect class="cls-1" x="349.13" y="135.53" width="2.13" height="6.25"/><rect class="cls-1" x="358.9" y="143.2" width="2.02" height="8.73"/><rect class="cls-1" x="352.58" y="143.15" width="2.02" height="8.78"/><rect class="cls-1" x="349.33" y="143.13" width="1.99" height="8.81"/><rect class="cls-1" x="355.61" y="143.18" width="2.11" height="8.76"/><polygon class="cls-1" points="347.64 143.18 347.64 141.89 348.17 141.89 348.17 135.53 349.13 135.53 349.13 141.78 351.26 141.78 351.26 135.53 352.43 135.53 352.43 141.94 354.56 141.94 354.56 135.53 355.59 135.53 355.59 141.97 357.67 141.97 357.67 135.53 358.86 135.53 358.86 141.94 360.76 141.94 360.76 135.53 361.9 135.53 361.93 142.02 364.57 142.02 364.57 143.54 361.95 143.54 361.95 151.94 360.92 151.94 360.92 143.21 358.9 143.21 358.9 151.94 357.71 151.94 357.71 143.18 355.61 143.18 355.61 151.94 354.6 151.94 354.6 143.15 352.58 143.15 352.58 151.94 351.33 151.94 351.33 143.13 349.33 143.13 349.33 151.94 348.37 151.94 348.37 143.18 347.64 143.18"/><path class="cls-1" d="M249.45,94.49h9.05V93h5.23v1.53h20.49V93h5.3v1.53h20.17V93h5.94v33.83H310V114.43c0-.69-1.49-9.24-10.17-10.05s-10.13,10-10.13,10v12.45h-5.79v-11.9s-1.83-11.4-10.51-10.34-9.87,10.13-9.87,10.13v12.11H258s.13-3.9,0-11.85c0,0,0-10.49-8.54-10.43-8.2.06-8.11,10.58-8.11,10.58"/><rect class="cls-1" x="258.95" y="126.79" width="3.83" height="29.64"/><rect class="cls-1" x="284.93" y="126.79" width="3.83" height="29.64"/><rect class="cls-1" x="310.84" y="126.79" width="3.83" height="29.64"/><line class="cls-1" x1="489.03" y1="76.23" x2="347.13" y2="76.94"/><line class="cls-1" x1="310.14" y1="68.77" x2="289.71" y2="68.77"/><line class="cls-1" x1="310.14" y1="69.94" x2="289.71" y2="69.94"/><line class="cls-1" x1="310.14" y1="71.11" x2="289.71" y2="71.11"/><line class="cls-1" x1="310.14" y1="72.28" x2="289.71" y2="72.28"/><line class="cls-1" x1="284.39" y1="68.77" x2="263.97" y2="68.77"/><line class="cls-1" x1="284.39" y1="69.94" x2="263.97" y2="69.94"/><line class="cls-1" x1="284.39" y1="71.11" x2="263.97" y2="71.11"/><line class="cls-1" x1="284.39" y1="72.28" x2="263.97" y2="72.28"/><line class="cls-1" x1="258.86" y1="68.77" x2="249.88" y2="68.62"/><line class="cls-1" x1="258.86" y1="69.94" x2="249.88" y2="69.79"/><line class="cls-1" x1="258.86" y1="71.11" x2="249.88" y2="70.96"/><line class="cls-1" x1="258.86" y1="72.28" x2="249.45" y2="72.13"/><rect class="cls-1" x="312.98" y="84.6" width="1.6" height="8.36" transform="translate(627.55 177.55) rotate(-180)"/><rect class="cls-1" x="310.14" y="84.6" width="1.6" height="8.36" transform="translate(621.87 177.55) rotate(-180)"/><rect class="cls-1" x="287.67" y="84.6" width="1.6" height="8.36" transform="translate(576.94 177.55) rotate(-180)"/><rect class="cls-1" x="284.83" y="84.6" width="1.6" height="8.36" transform="translate(571.26 177.55) rotate(-180)"/><rect class="cls-1" x="261.88" y="84.6" width="1.6" height="8.36" transform="translate(525.36 177.55) rotate(-180)"/><rect class="cls-1" x="259.04" y="84.6" width="1.6" height="8.36" transform="translate(519.68 177.55) rotate(-180)"/></g></g></svg>
