<svg xmlns="http://www.w3.org/2000/svg" xmlns:xlink="http://www.w3.org/1999/xlink" viewBox="0 0 512 512"><defs><style>.cls-1{fill:url(#linear-gradient);}.cls-2{fill:#80a6c7;}.cls-2,.cls-3{fill-rule:evenodd;}.cls-3,.cls-4{fill:#e6e6e5;}</style><linearGradient id="linear-gradient" x1="204.07" y1="-356.59" x2="286.79" y2="619.24" gradientUnits="userSpaceOnUse"><stop offset="0.17" stop-color="#15160c"/><stop offset="1" stop-color="#311f5a"/></linearGradient></defs><title>Asset 1</title><g id="Layer_2" data-name="Layer 2"><g id="Layer_1-2" data-name="Layer 1"><circle class="cls-1" cx="256" cy="256" r="256"/><path class="cls-2" d="M212.93,246.63c2.1,2.39,4.81,2.33,7.61,1.84a36.52,36.52,0,0,0,11.34-4.37,54.28,54.28,0,0,0,6.15-3.93.59.59,0,0,1,.52-.13,3.6,3.6,0,0,1-.3,1.9c-.32-.44-.59-.17-.9,0-1.69,1.15-3.38,2.27-5.16,3.27a37.39,37.39,0,0,1-11.67,4.47,9.89,9.89,0,0,1-4.83-.15,4.86,4.86,0,0,1-2.25-1.52A1.68,1.68,0,0,1,212.93,246.63Z"/><path class="cls-2" d="M252,240.68c.57.39.86.1,1.06-.43a12.21,12.21,0,0,1,2.66-3.79.41.41,0,0,1,.47-.17,1,1,0,0,1-.29,1.21,6.32,6.32,0,0,0-2.23,3.57,1.63,1.63,0,0,1-.56,1C252.08,242,252.08,242,252,240.68Z"/><path class="cls-2" d="M252.48,217.14a1.33,1.33,0,0,1-.43-.17,4.34,4.34,0,0,0-2.67-.85c-3-.14-5.72.92-8.4,2.09a59.24,59.24,0,0,0-12.73,8c-.94.73-1.81,1.57-2.69,2.38a51.53,51.53,0,0,0-5.34,5.62,28,28,0,0,0-4.34,7.13c-.17.45-.17,1.07-.75,1.28a5.47,5.47,0,0,1,.73-2.86,28.21,28.21,0,0,1,4.71-7.34A59.56,59.56,0,0,1,240.73,217a24.23,24.23,0,0,1,5.9-2A11.07,11.07,0,0,1,250,215,2.65,2.65,0,0,1,252.48,217.14Z"/><path class="cls-2" d="M231.53,264.9a5.76,5.76,0,0,0-2.55,1.87,95.63,95.63,0,0,0-9.87,10.74,78.75,78.75,0,0,0-7.19,11,14.45,14.45,0,0,0-1.41,3.67c-.06.26,0,.56-.4.67a4.34,4.34,0,0,1,.31-2.23,22.47,22.47,0,0,1,2.59-5.66,87.18,87.18,0,0,1,15-18.62,20.9,20.9,0,0,1,2.9-2.5c.23-.14.47-.43.75-.24s.1.51,0,.77S231.59,264.71,231.53,264.9Z"/><path class="cls-2" d="M300.05,225.79l.43.4a2.43,2.43,0,0,0,3.63.12,1.32,1.32,0,0,1-.73,1.88A2.65,2.65,0,0,1,300.05,225.79Z"/><path class="cls-2" d="M208.37,296.34a.41.41,0,0,1,.11.07c1.63,1.94,3.29,2.31,5.62,1.22a17.42,17.42,0,0,0,4.3-3,49.08,49.08,0,0,0,8.15-10.48,87.67,87.67,0,0,0,9.25-20c.56-1.79,1.09-3.59,1.56-5.42a4,4,0,0,1,1.36-2.17c2.82-2.41,5.7-4.77,8.59-7.11,1.95-1.58,3.86-3.23,5.8-4.83.8-.66.81-.63,1.64-.06a4,4,0,0,0,3.57.3,6.71,6.71,0,0,0,2.29-1.27c.75-.6.88-.58,1.66,0a5,5,0,0,1,1,1.15c1.3,1.64,2.65,1.76,4.16.28a51.82,51.82,0,0,1,5.36-4.78,7.93,7.93,0,0,1,1.51-1c1.14-.48,2,.14,1.92,1.47a1.86,1.86,0,0,0-2.5.19,36,36,0,0,0-5.34,4.6,7.81,7.81,0,0,1-1.46,1.23,2.26,2.26,0,0,1-3.35-.62,8.39,8.39,0,0,0-1.18-1.34c-.69-.64-.89-.62-1.63,0a5.67,5.67,0,0,1-4.05,1.52,3.12,3.12,0,0,1-2-.66.82.82,0,0,0-1.17,0c-1.27.92-2.38,2-3.59,3-1.48,1.15-2.92,2.37-4.35,3.56-1.93,1.6-3.85,3.23-5.77,4.85-.06,0-.11.13-.17.15-1.72.89-2.15,2.57-2.58,4.24a85.76,85.76,0,0,1-4.39,12.53,92.17,92.17,0,0,1-8.85,15.74,32.82,32.82,0,0,1-7.13,7.69,7.66,7.66,0,0,1-5.26,2A3.28,3.28,0,0,1,208.37,296.34Z"/><path class="cls-2" d="M271.42,265.49a1.74,1.74,0,0,0,1.7-.23,8.86,8.86,0,0,0,1.82-1.52,71.12,71.12,0,0,0,6.25-7.71,15.27,15.27,0,0,0,2.23-4.7.43.43,0,0,1,.19.41,10.2,10.2,0,0,1-1.27,4.07,67.47,67.47,0,0,1-4.49,6c-.85,1-1.8,1.92-2.6,3a6.8,6.8,0,0,1-2.12,1.71C272,267.18,271.49,266.83,271.42,265.49Z"/><path class="cls-2" d="M283,247.26c-.37-.29-.33-.57,0-.91.6-.63,1.17-1.3,1.78-1.94,1.27-1.32,2.56-2.62,3.85-3.94.36-.37.75-.68,1.18-.13,1.46,1.79,3.45,2,5.55,1.84l.72-.09c0,.24.07.47.07.71s-.18.56-.57.58c-2,.12-3.9,0-5.35-1.67-.59-.68-.75-.64-1.45,0-1.58,1.57-3.14,3.17-4.72,4.73C283.73,246.8,283.5,247.2,283,247.26Z"/><path class="cls-2" d="M272.38,244.08a27.91,27.91,0,0,1,5.52,1,6.46,6.46,0,0,1,2.48,1.41c.43.4.44.72-.06,1-1.09-1.12-2.57-1.31-4-1.73-1.17-.34-2.45-.07-3.59-.59-.16-.37.21-.46.36-.68C273,244.24,272.48,244.46,272.38,244.08Z"/><path class="cls-2" d="M278.61,243.38a2.75,2.75,0,0,1-1.15-.55,10.36,10.36,0,0,1,1.6-1.37c1.31-1.1,2.67-2.13,4-3.21a7.53,7.53,0,0,0,.82-.87c.32,1.25.19,1.46-.87,2.27-1.38,1.06-2.71,2.17-4.05,3.27A3.27,3.27,0,0,0,278.61,243.38Z"/><path class="cls-2" d="M279.07,253.26c-.66.2-1,.81-1.35,1.29a39.56,39.56,0,0,0-3.49,4.66,3,3,0,0,0-.66,1.52v0l-.24.2c-.37.06-.52-.12-.5-.48a2.3,2.3,0,0,1,.4-1,44.26,44.26,0,0,1,5.23-7.11c.06-.09.18-.12.29-.17C279.16,252.46,279.09,252.86,279.07,253.26Z"/><path class="cls-3" d="M278.65,243.35c.61.32,1.2.63,1.8,1a7.93,7.93,0,0,1,1.46,1.16c.44,0,.55-.35.74-.58,2.71-3.25,5.33-6.57,8.3-9.6a2.52,2.52,0,0,1,2.15-.81c.48,0,.72.26.7.77,0,.84,0,1.67,0,2.51a6.35,6.35,0,0,0,.09,1.07c.2,1,.67,1.26,1.62.9a.6.6,0,0,1,.55-.09,8.36,8.36,0,0,1,0,2.4c-.24,0-.47.08-.7.1-2.1.13-4.09-.06-5.55-1.85-.44-.55-.83-.24-1.2.13-1.27,1.32-2.57,2.63-3.84,3.95-.61.62-1.18,1.3-1.78,1.94-.3.33-.34.61.05.91a11.33,11.33,0,0,1,.4,4.06,15.32,15.32,0,0,1-2.23,4.71,72.22,72.22,0,0,1-6.25,7.7,8.41,8.41,0,0,1-1.83,1.53,1.74,1.74,0,0,1-1.69.22h0a.32.32,0,0,0-.18-.3c-.13-.74-.23-1.5-.4-2.23a5.11,5.11,0,0,1,.71-3.79,54.87,54.87,0,0,1,5-7c1.24-1.55,2.52-3.08,3.79-4.63.5-.31.49-.63.06-1a6.43,6.43,0,0,0-2.48-1.4,27.67,27.67,0,0,0-5.52-1,.44.44,0,0,1,.25-.47c.85-.49,1.69-1,2.53-1.53.5-.31,1-.61,1.06-1.31,0-1.33-.78-1.95-1.92-1.47a7.93,7.93,0,0,0-1.51,1,51.82,51.82,0,0,0-5.36,4.78c-1.51,1.48-2.86,1.36-4.16-.28a5,5,0,0,0-1-1.15c-.78-.56-.91-.58-1.66,0a6.71,6.71,0,0,1-2.29,1.27,4,4,0,0,1-3.57-.3c-.83-.57-.84-.6-1.64.06-1.94,1.6-3.85,3.25-5.8,4.83-2.89,2.34-5.77,4.7-8.59,7.11a4,4,0,0,0-1.36,2.17c-.47,1.83-1,3.63-1.56,5.42a87.67,87.67,0,0,1-9.25,20,49.08,49.08,0,0,1-8.15,10.48,17.42,17.42,0,0,1-4.3,3c-2.33,1.09-4,.72-5.62-1.22a.41.41,0,0,0-.11-.07,4.78,4.78,0,0,1-.57-2.49,11.18,11.18,0,0,1,1-5.37,38,38,0,0,1,3.79-6.65,94.83,94.83,0,0,1,13.16-16.33c2.13-2.05,4.29-4.06,6.47-6.07a6.17,6.17,0,0,0,1.79-2.78c1.52-4.84,3-9.7,4.16-14.65a3.69,3.69,0,0,0,.3-1.9.59.59,0,0,0-.52.14,53,53,0,0,1-6.16,3.92,36.14,36.14,0,0,1-11.33,4.38c-2.8.49-5.51.55-7.61-1.85a7.32,7.32,0,0,1-.1-5.27,23.31,23.31,0,0,1,3.34-6.48,65.75,65.75,0,0,1,9.68-11.58,12,12,0,0,1,4.22-2.91c2.47-.75,4.46-2.28,6.67-3.46a38.29,38.29,0,0,1,10.37-4,12.72,12.72,0,0,1,5.49-.15c3.16.75,4,1.91,3.34,5a20.54,20.54,0,0,1-2.68,6.26,49.34,49.34,0,0,1-8.77,10.91,4.53,4.53,0,0,0-1.34,2.3c-1.35,5.32-2.75,10.61-4.14,15.9,0,.2-.16.37,0,.59.39,0,.65-.28.92-.48,3.33-2.63,6.67-5.24,10-7.9a15.15,15.15,0,0,0,3.26-3.33,1.63,1.63,0,0,0,.56-1,6.38,6.38,0,0,1,2.23-3.57,1,1,0,0,0,.29-1.21.42.42,0,0,0-.48.18,12,12,0,0,0-2.65,3.78c-.19.54-.49.82-1.05.44a1.37,1.37,0,0,1-.09-1.38,9.66,9.66,0,0,1,4.51-4.9,4.42,4.42,0,0,1,5.61,1.11c.47.54.88,1.13,1.39,1.76.58-.45,1.15-.93,1.76-1.35s1-.9,1.71-.53a1.7,1.7,0,0,1,.93,1.9,13.84,13.84,0,0,1-1.68,2.72c-.36.43-.76.83-1.08,1.28s-.3.79.41,1.27a2.32,2.32,0,0,0,1.65-.59,43.66,43.66,0,0,0,5.28-3.91,2.74,2.74,0,0,0,1.11-1.78,2.55,2.55,0,0,1,.49-1.21,1.44,1.44,0,0,1,1.43-.67,1.65,1.65,0,0,1,1.4.79c.29.55-.1,1-.43,1.38-.1.12-.19.24-.38.5a10.24,10.24,0,0,0,5.44.39c.48-.09.7-.64,1.08-.91s.59-.44,1-.27.48.58.41,1a9.37,9.37,0,0,1-.8.87c-1.33,1.08-2.7,2.11-4,3.21a9.31,9.31,0,0,0-1.59,1.37A2.88,2.88,0,0,0,278.65,243.35Zm-5,17.31v0c.58,0,.92-.38,1.27-.75a51.5,51.5,0,0,0,3.77-4.58,2.48,2.48,0,0,0,.45-2.14c0-.39.09-.8-.31-1.09a1,1,0,0,0-.29.18,45.42,45.42,0,0,0-5.23,7.1,2.4,2.4,0,0,0-.4,1c0,.35.14.53.5.47C273.53,260.88,273.57,260.77,273.62,260.66Zm-21.19-43.42v0a2.66,2.66,0,0,0-2.5-2.17,11.41,11.41,0,0,0-3.35.09,24.3,24.3,0,0,0-5.89,2,59.77,59.77,0,0,0-20.18,15.37,28.06,28.06,0,0,0-4.7,7.35,5.56,5.56,0,0,0-.74,2.85,4.18,4.18,0,0,0-.05,1.41l0,.26a2.64,2.64,0,0,0,2.39,2.17,7.76,7.76,0,0,0,1.8.07,17.88,17.88,0,0,0,5.67-1.4,55.59,55.59,0,0,0,14.15-8.45,50.45,50.45,0,0,0,10.44-10.85,18.66,18.66,0,0,0,2.82-5.53,4.4,4.4,0,0,0,.18-2.93l.06-.06A.46.46,0,0,0,252.43,217.24Zm-42.38,75.64v.67a.25.25,0,0,0,.06.33,5.59,5.59,0,0,0,.08.59c.47,1.64,1.62,2.15,3.12,1.37a9.56,9.56,0,0,0,2.1-1.58,35.19,35.19,0,0,0,3.92-4.53c5.58-7.49,9.13-16,12.14-24.76.06-.19.12-.37.17-.56s.25-.59,0-.78-.52.1-.75.24a21,21,0,0,0-2.9,2.51A86.63,86.63,0,0,0,213,285a22.24,22.24,0,0,0-2.59,5.65A4.37,4.37,0,0,0,210.05,292.88Zm51.55-54.11a3.33,3.33,0,0,0-1.85-3.3c-1.2-.45-1.43-.29-1.44,1a1.91,1.91,0,0,0,0,.24,2.12,2.12,0,0,1-.93,2,4.46,4.46,0,0,0-1.78,3.51,1.35,1.35,0,0,0,1.78,1.37,3.35,3.35,0,0,0,1.07-.53,13.76,13.76,0,0,0,2.27-2.11A3.31,3.31,0,0,0,261.6,238.77Z"/><path class="cls-3" d="M300.05,225.79a5.43,5.43,0,0,1-.3-1.28c0-1.43.76-2.07,2.14-1.75a2.75,2.75,0,0,1,2.27,2.83c0,.24,0,.48-.05.72a2.43,2.43,0,0,1-3.63-.12Z"/><path class="cls-4" d="M188,392.88V369.13h20.36v3.4h3.39v6.78h-3.39v3.39h3.39v6.79h-3.39v3.39Zm6.79-13.57H205v-6.78H194.78Zm0,10.18H205V382.7H194.78Z"/><path class="cls-4" d="M244.13,392.88V369.13h6.78v3.4h3.39v3.39h3.4v-3.39h3.39v-3.4h6.79v23.75h-6.79V379.31H257.7v6.79h-3.4v-6.79h-3.39v13.57Z"/><path class="cls-4" d="M310.43,392.88V372.53h-6.78v-3.4H324v3.4h-6.79v20.35Z"/><path class="cls-4" d="M108.77,59.33a340.74,340.74,0,0,0,66.51,17.2,311.72,311.72,0,0,0,34.08,3.2l4.28.17,2.13.08h10.7l8.55-.29,2.13-.08,2.14-.16,4.27-.28c5.7-.27,11.35-1,17-1.62,5.64-.87,11.3-1.6,16.9-2.71a300.42,300.42,0,0,0,33.29-8,335.61,335.61,0,0,0,63.32-26.64l.52.85a263.93,263.93,0,0,1-62.29,30.64,266.25,266.25,0,0,1-33.69,9.09c-5.69,1.28-11.47,2-17.23,3-5.79.64-11.57,1.46-17.39,1.78a269.75,269.75,0,0,1-69.61-3.77c-5.72-1.08-11.4-2.3-17-3.72s-11.22-3-16.74-4.83l-4.13-1.36-4.1-1.47c-2.74-.95-5.43-2-8.13-3.07s-5.37-2.19-8-3.38-5.26-2.41-7.87-3.65Z"/><path class="cls-4" d="M67.65,100.67a288.64,288.64,0,0,0,41.71,28.92A294.68,294.68,0,0,0,155.22,151c7.92,2.87,15.95,5.43,24.09,7.57s16.36,4,24.67,5.32l3.1.53,3.13.43c2.08.28,4.16.59,6.25.84,4.18.42,8.35,1,12.55,1.18,8.38.69,16.79.73,25.19.63l6.3-.27,3.15-.13,3.14-.23,6.29-.48,6.27-.68c8.34-1,16.66-2.29,24.86-4.13s16.37-3.87,24.4-6.4,15.92-5.47,23.71-8.68,15.41-6.83,22.87-10.76S390,127.53,397.08,123a293.21,293.21,0,0,0,40.25-30.91l.7.71A253.21,253.21,0,0,1,399.1,126q-10.55,7.32-21.75,13.68t-23,11.53a261,261,0,0,1-48.87,16.18,264.4,264.4,0,0,1-51.15,6.22c-8.6.07-17.21,0-25.78-.75-4.3-.25-8.56-.82-12.84-1.27-2.13-.27-4.25-.63-6.38-.94l-3.19-.48-3.17-.59a262,262,0,0,1-49.51-14,275.27,275.27,0,0,1-45.88-23A255.48,255.48,0,0,1,67,101.42Z"/><path class="cls-4" d="M249.15,9.78a346.52,346.52,0,0,1,9.39,39.36c.61,3.32,1.16,6.66,1.71,10s1,6.68,1.4,10,.87,6.7,1.22,10.06.66,6.73.92,10.1a382.76,382.76,0,0,1,1.28,40.5,306.06,306.06,0,0,1-3.44,40.34l-1-.07c-.21-6.74-.27-13.45-.43-20.16l-.25-10c-.07-3.35-.18-6.7-.31-10-.43-13.37-1.16-26.71-2.11-40-.46-6.66-1.1-13.31-1.71-20-.31-3.33-.69-6.65-1.06-10s-.71-6.65-1.13-10c-1.57-13.3-3.54-26.55-5.47-39.88Z"/><path class="cls-4" d="M173.93,24.13c-3.06,10.38-6.35,20.58-9.36,30.86s-6,20.54-8.5,30.95-4.7,20.89-6.54,31.46-3.36,21.2-4.73,31.89l-1-.06a278.66,278.66,0,0,1,1.87-32.39c.65-5.38,1.4-10.74,2.29-16.09s2-10.67,3.13-16a287.43,287.43,0,0,1,8.78-31.32A195.48,195.48,0,0,1,173,23.74Z"/><path class="cls-4" d="M334.37,20.31A194.07,194.07,0,0,1,347.5,50a287.26,287.26,0,0,1,8.78,31.31c1.17,5.3,2.19,10.63,3.13,16s1.64,10.72,2.29,16.1a278.53,278.53,0,0,1,1.87,32.39l-1,.06c-1.36-10.7-2.85-21.33-4.73-31.9s-4-21-6.54-31.45-5.47-20.69-8.5-31-6.3-20.47-9.36-30.86Z"/></g></g></svg>