<svg xmlns="http://www.w3.org/2000/svg" viewBox="0 0 500 500"><defs><style>.cls-1{fill:#17002f;}.cls-2{fill:#80a6c7;}.cls-2,.cls-3{fill-rule:evenodd;}.cls-3,.cls-4{fill:#e6e6e6;}</style></defs><title>Asset 3</title><g id="Layer_2" data-name="Layer 2"><g id="Layer_1-2" data-name="Layer 1"><circle class="cls-1" cx="250" cy="250" r="250"/><path class="cls-2" d="M202.68,246.7c2.31,2.63,5.29,2.56,8.36,2a40.48,40.48,0,0,0,12.46-4.8,59.45,59.45,0,0,0,6.75-4.32.69.69,0,0,1,.58-.15,4.1,4.1,0,0,1-.33,2.09c-.35-.48-.65-.19-1,0-1.86,1.25-3.71,2.49-5.67,3.58A40.91,40.91,0,0,1,211,250.09a10.7,10.7,0,0,1-5.3-.17,5.27,5.27,0,0,1-2.47-1.66A1.86,1.86,0,0,1,202.68,246.7Z"/><path class="cls-2" d="M245.64,240.17c.63.42.94.11,1.17-.47a13.16,13.16,0,0,1,2.92-4.17.45.45,0,0,1,.52-.19,1.08,1.08,0,0,1-.32,1.33,7,7,0,0,0-2.46,3.93,1.74,1.74,0,0,1-.61,1.12C245.69,241.57,245.69,241.57,245.64,240.17Z"/><path class="cls-2" d="M246.14,214.31a1.85,1.85,0,0,1-.48-.19,4.7,4.7,0,0,0-2.93-.93c-3.33-.16-6.29,1-9.23,2.29a65.26,65.26,0,0,0-14,8.77c-1,.82-2,1.73-2.95,2.63a56.08,56.08,0,0,0-5.87,6.17,30.88,30.88,0,0,0-4.77,7.83c-.18.49-.18,1.17-.83,1.41a6.13,6.13,0,0,1,.81-3.14,30.85,30.85,0,0,1,5.17-8.07,65.48,65.48,0,0,1,22.16-16.88,26.43,26.43,0,0,1,6.48-2.17,12.28,12.28,0,0,1,3.68-.11A2.94,2.94,0,0,1,246.14,214.31Z"/><path class="cls-2" d="M223.12,266.78a6.39,6.39,0,0,0-2.81,2.06,104.41,104.41,0,0,0-10.84,11.79,88.1,88.1,0,0,0-7.9,12.06,15.94,15.94,0,0,0-1.55,4c-.07.3-.05.63-.43.74a4.55,4.55,0,0,1,.34-2.45,24.8,24.8,0,0,1,2.84-6.22,95.55,95.55,0,0,1,16.49-20.45,22.58,22.58,0,0,1,3.19-2.75c.24-.16.51-.48.82-.27s.11.57,0,.85S223.18,266.57,223.12,266.78Z"/><path class="cls-2" d="M298.39,223.81c.17.14.32.28.48.44a2.66,2.66,0,0,0,4,.13,1.44,1.44,0,0,1-.81,2.06A2.91,2.91,0,0,1,298.39,223.81Z"/><path class="cls-2" d="M197.68,301.32a.38.38,0,0,1,.11.08c1.8,2.13,3.62,2.53,6.17,1.34a18.81,18.81,0,0,0,4.73-3.33,54.07,54.07,0,0,0,8.95-11.51A95.7,95.7,0,0,0,227.8,266c.63-2,1.21-3.94,1.72-5.95a4.4,4.4,0,0,1,1.5-2.38c3.09-2.65,6.26-5.24,9.43-7.82,2.15-1.73,4.24-3.54,6.37-5.31.88-.71.89-.68,1.81-.05a4.41,4.41,0,0,0,3.92.33,7.62,7.62,0,0,0,2.51-1.41c.83-.66,1-.63,1.83,0a5.32,5.32,0,0,1,1.14,1.27c1.43,1.8,2.92,1.93,4.57.31a55.35,55.35,0,0,1,5.89-5.25,8.72,8.72,0,0,1,1.66-1.07c1.25-.53,2.15.15,2.11,1.61-1-.78-1.87-.42-2.74.21a39.88,39.88,0,0,0-5.88,5,8.66,8.66,0,0,1-1.6,1.36,2.48,2.48,0,0,1-3.68-.69,10.06,10.06,0,0,0-1.3-1.47c-.75-.7-1-.68-1.79,0a6.26,6.26,0,0,1-4.45,1.66,3.43,3.43,0,0,1-2.19-.72.89.89,0,0,0-1.28,0c-1.39,1-2.61,2.2-3.95,3.26-1.62,1.26-3.2,2.6-4.77,3.91-2.12,1.76-4.23,3.55-6.34,5.33-.07,0-.12.14-.19.17-1.89,1-2.35,2.82-2.84,4.66a94.65,94.65,0,0,1-4.81,13.76A101.28,101.28,0,0,1,214.72,294a35.79,35.79,0,0,1-7.83,8.45c-1.67,1.27-3.48,2.36-5.78,2.19A3.61,3.61,0,0,1,197.68,301.32Z"/><path class="cls-2" d="M266.94,267.42a1.91,1.91,0,0,0,1.87-.24,10,10,0,0,0,2-1.68,77.4,77.4,0,0,0,6.86-8.47,16.66,16.66,0,0,0,2.45-5.16.47.47,0,0,1,.22.45,11.15,11.15,0,0,1-1.41,4.47,72.19,72.19,0,0,1-4.93,6.64c-.93,1.1-2,2.11-2.85,3.26a7.63,7.63,0,0,1-2.33,1.88C267.58,269.28,267,268.9,266.94,267.42Z"/><path class="cls-2" d="M279.67,247.4c-.42-.32-.37-.63,0-1,.66-.7,1.28-1.43,1.95-2.13,1.4-1.45,2.82-2.89,4.24-4.33.39-.41.82-.75,1.3-.15,1.6,2,3.79,2.18,6.09,2,.26,0,.52-.07.79-.11,0,.27.07.52.08.79s-.21.61-.63.64c-2.2.13-4.28,0-5.88-1.84-.64-.75-.82-.7-1.58.06-1.74,1.72-3.46,3.47-5.19,5.19C280.47,246.89,280.22,247.33,279.67,247.4Z"/><path class="cls-2" d="M268,243.9a31.2,31.2,0,0,1,6.06,1.09,7.17,7.17,0,0,1,2.72,1.55c.47.44.48.79-.06,1.14-1.2-1.22-2.82-1.44-4.36-1.89-1.29-.38-2.69-.08-3.95-.65-.18-.41.23-.51.4-.75C268.62,244.08,268.1,244.33,268,243.9Z"/><path class="cls-2" d="M274.84,243.14a3,3,0,0,1-1.26-.61,10.77,10.77,0,0,1,1.75-1.5c1.44-1.21,2.94-2.34,4.4-3.53a10.17,10.17,0,0,0,.9-.95c.35,1.36.21,1.6-.95,2.49-1.52,1.16-3,2.38-4.45,3.59A2.86,2.86,0,0,0,274.84,243.14Z"/><path class="cls-2" d="M275.34,254c-.72.21-1,.89-1.48,1.41a43.57,43.57,0,0,0-3.83,5.13,3.41,3.41,0,0,0-.73,1.66l0,0-.27.22c-.4.07-.57-.13-.54-.52a2.45,2.45,0,0,1,.43-1.07,49.19,49.19,0,0,1,5.74-7.81.94.94,0,0,1,.32-.19C275.45,253.11,275.37,253.55,275.34,254Z"/><path class="cls-3" d="M274.89,243.1l2,1.06a8.38,8.38,0,0,1,1.6,1.29c.49,0,.61-.39.82-.64,3-3.58,5.86-7.23,9.12-10.55a2.79,2.79,0,0,1,2.35-.89c.53,0,.8.28.78.84,0,.92,0,1.84,0,2.76a7.72,7.72,0,0,0,.09,1.18c.23,1.1.74,1.38,1.78,1a.66.66,0,0,1,.61-.1,9.3,9.3,0,0,1,.05,2.64c-.27,0-.52.08-.78.1-2.31.15-4.48-.06-6.09-2-.49-.6-.91-.26-1.32.14-1.4,1.46-2.83,2.89-4.22,4.34-.67.69-1.29,1.43-1.95,2.13-.33.37-.38.68,0,1a12.46,12.46,0,0,1,.45,4.47,16.78,16.78,0,0,1-2.45,5.16,79.91,79.91,0,0,1-6.87,8.47,9.49,9.49,0,0,1-2,1.68,1.92,1.92,0,0,1-1.86.25v0a.37.37,0,0,0-.19-.33c-.15-.81-.25-1.64-.44-2.45a5.6,5.6,0,0,1,.78-4.16,60.39,60.39,0,0,1,5.47-7.71c1.37-1.7,2.77-3.38,4.17-5.08.54-.35.53-.69.06-1.15a7.12,7.12,0,0,0-2.72-1.53,30.35,30.35,0,0,0-6.06-1.1.46.46,0,0,1,.27-.52c.93-.53,1.85-1.11,2.77-1.67.56-.34,1.13-.68,1.17-1.45,0-1.46-.86-2.14-2.11-1.61a8.72,8.72,0,0,0-1.66,1.07,55.35,55.35,0,0,0-5.89,5.25c-1.65,1.62-3.14,1.49-4.57-.31a5.32,5.32,0,0,0-1.14-1.27c-.85-.61-1-.64-1.83,0a7.62,7.62,0,0,1-2.51,1.41,4.41,4.41,0,0,1-3.92-.33c-.92-.63-.93-.66-1.81.05-2.13,1.77-4.22,3.58-6.37,5.31-3.17,2.58-6.34,5.17-9.43,7.82a4.4,4.4,0,0,0-1.5,2.38c-.51,2-1.09,4-1.72,5.95a95.7,95.7,0,0,1-10.16,21.94,54.07,54.07,0,0,1-8.95,11.51,18.81,18.81,0,0,1-4.73,3.33c-2.55,1.19-4.37.79-6.17-1.34a.38.38,0,0,0-.11-.08,5.25,5.25,0,0,1-.64-2.74,12.45,12.45,0,0,1,1.12-5.89,43,43,0,0,1,4.17-7.32,103.93,103.93,0,0,1,14.46-17.93c2.34-2.26,4.72-4.47,7.11-6.67a6.87,6.87,0,0,0,2-3.06c1.68-5.32,3.3-10.65,4.58-16.09a4.18,4.18,0,0,0,.32-2.08.6.6,0,0,0-.57.15,58.92,58.92,0,0,1-6.76,4.3A40,40,0,0,1,211,248.8c-3.08.54-6.06.61-8.37-2a8.11,8.11,0,0,1-.11-5.8,26.14,26.14,0,0,1,3.67-7.12,72.7,72.7,0,0,1,10.64-12.72,13,13,0,0,1,4.64-3.19c2.71-.83,4.9-2.51,7.32-3.81a42.75,42.75,0,0,1,11.4-4.37,14.06,14.06,0,0,1,6-.16c3.48.83,4.36,2.11,3.68,5.55a22.59,22.59,0,0,1-2.94,6.87,54.65,54.65,0,0,1-9.64,12,5,5,0,0,0-1.47,2.54c-1.48,5.83-3,11.65-4.55,17.47-.05.21-.18.4,0,.64.44,0,.72-.3,1-.53,3.67-2.89,7.34-5.75,11-8.67a17.07,17.07,0,0,0,3.59-3.66,1.82,1.82,0,0,0,.61-1.13,6.89,6.89,0,0,1,2.45-3.92,1.09,1.09,0,0,0,.32-1.34.47.47,0,0,0-.53.19,13.09,13.09,0,0,0-2.91,4.16c-.22.6-.54.91-1.16.48a1.49,1.49,0,0,1-.09-1.51,10.62,10.62,0,0,1,4.95-5.39,4.85,4.85,0,0,1,6.16,1.23c.52.59,1,1.23,1.53,1.93.64-.49,1.26-1,1.93-1.48s1.07-1,1.89-.58a1.85,1.85,0,0,1,1,2.08,14.57,14.57,0,0,1-1.84,3c-.4.47-.83.91-1.19,1.4s-.33.87.45,1.4a2.58,2.58,0,0,0,1.81-.64,47.92,47.92,0,0,0,5.81-4.3,3,3,0,0,0,1.21-2,2.83,2.83,0,0,1,.54-1.32,1.61,1.61,0,0,1,1.58-.75,1.82,1.82,0,0,1,1.53.87c.32.61-.11,1.06-.47,1.52a6.42,6.42,0,0,0-.41.55,11.29,11.29,0,0,0,6,.43c.53-.11.77-.7,1.19-1s.64-.48,1.08-.3.52.64.45,1.1a10,10,0,0,1-.89,1c-1.46,1.19-3,2.32-4.41,3.53a9.93,9.93,0,0,0-1.74,1.51A3,3,0,0,0,274.89,243.1Zm-5.53,19v0c.64,0,1-.42,1.39-.82a56.81,56.81,0,0,0,4.15-5,2.7,2.7,0,0,0,.49-2.35c0-.43.1-.89-.34-1.2a1,1,0,0,0-.32.19,50.46,50.46,0,0,0-5.74,7.81,2.58,2.58,0,0,0-.45,1.07c0,.39.16.59.55.52C269.26,262.36,269.31,262.24,269.36,262.12Zm-23.28-47.71v0a2.94,2.94,0,0,0-2.75-2.39,12.61,12.61,0,0,0-3.68.1,26.62,26.62,0,0,0-6.47,2.16A65.7,65.7,0,0,0,211,231.15a31.11,31.11,0,0,0-5.17,8.07,6.14,6.14,0,0,0-.81,3.13,4.75,4.75,0,0,0-.05,1.55l0,.29a2.88,2.88,0,0,0,2.63,2.38,8.65,8.65,0,0,0,2,.08,19.65,19.65,0,0,0,6.23-1.54,61.1,61.1,0,0,0,15.55-9.28,55.66,55.66,0,0,0,11.47-11.92,20.88,20.88,0,0,0,3.1-6.07,4.91,4.91,0,0,0,.2-3.23l.06-.06A1.79,1.79,0,0,0,246.08,214.41Zm-46.56,83.1v.74a.29.29,0,0,0,.06.37,4.84,4.84,0,0,0,.09.65c.52,1.8,1.78,2.35,3.43,1.5a10.55,10.55,0,0,0,2.3-1.74,37.1,37.1,0,0,0,4.31-5c6.14-8.23,10-17.58,13.34-27.19.07-.21.13-.42.19-.62s.27-.65,0-.85-.57.1-.82.26a22.5,22.5,0,0,0-3.18,2.75,95.16,95.16,0,0,0-16.5,20.46,24.57,24.57,0,0,0-2.84,6.21A4.76,4.76,0,0,0,199.52,297.51Zm56.64-59.44c0-1.82-.83-3.17-2-3.62s-1.57-.33-1.58,1.11a2.25,2.25,0,0,0,0,.26,2.35,2.35,0,0,1-1,2.24,4.89,4.89,0,0,0-2,3.85,1.49,1.49,0,0,0,2,1.51,3.56,3.56,0,0,0,1.17-.58,15.26,15.26,0,0,0,2.5-2.32A3.76,3.76,0,0,0,256.16,238.07Z"/><path class="cls-3" d="M298.39,223.81a6.48,6.48,0,0,1-.32-1.4c0-1.58.83-2.28,2.35-1.93a3,3,0,0,1,2.5,3.11c0,.27,0,.52-.06.79a2.66,2.66,0,0,1-4-.13C298.71,224.09,298.56,224,298.39,223.81Z"/><path class="cls-4" d="M157,17.56c-.14,5-.59,10.05-1.22,15.07s-1.53,10-2.69,14.93a166.68,166.68,0,0,1-9.45,29,174.33,174.33,0,0,1-14.58,26.86,189,189,0,0,1-18.93,24c-1.73,1.86-3.54,3.66-5.31,5.5l-5.49,5.29c-1.91,1.69-3.78,3.41-5.71,5.06s-3.86,3.31-5.87,4.86a226,226,0,0,1-24.93,17.39A239.7,239.7,0,0,1,7.67,190L7.33,189a329.36,329.36,0,0,0,52.34-28.48c4.1-2.78,8.14-5.62,12.06-8.63l2.94-2.24,2.9-2.3c2-1.51,3.83-3.11,5.72-4.69s3.7-3.25,5.56-4.87,3.59-3.37,5.39-5l5.23-5.19c1.68-1.8,3.4-3.56,5-5.38a207.86,207.86,0,0,0,33-48.48,202.33,202.33,0,0,0,11.06-27.39A252.19,252.19,0,0,0,156,17.44Z"/><path class="cls-4" d="M96.7,52a409.47,409.47,0,0,0,69.64,16c11.74,1.55,23.52,2.56,35.31,2.93l4.42.14,2.21.07h2.21l8.85,0,8.84-.3,2.21-.08,2.2-.16,4.41-.3c5.89-.27,11.74-1.09,17.61-1.64,5.83-.85,11.69-1.57,17.49-2.68A332.16,332.16,0,0,0,306.65,58a392.75,392.75,0,0,0,66.59-25.94l.52.86a235.44,235.44,0,0,1-30.87,19.14,268.18,268.18,0,0,1-33.46,14.61,265,265,0,0,1-35.26,9.92c-6,1.38-12,2.23-18.07,3.23-6.08.73-12.15,1.57-18.27,1.91l-4.58.34-2.29.16-2.3.07-9.18.24c-6.12,0-12.24-.12-18.35-.52a270.35,270.35,0,0,1-36.35-4.72,258.45,258.45,0,0,1-35.23-9.67l-4.28-1.56L121,64.43c-2.83-1.09-5.63-2.27-8.41-3.48s-5.53-2.48-8.24-3.82S99,54.41,96.3,53Z"/><path class="cls-4" d="M53.83,95.13a319.22,319.22,0,0,0,44.05,29.19,316.17,316.17,0,0,0,47.85,21.55A294.76,294.76,0,0,0,196.3,158.8a284.84,284.84,0,0,0,51.92,3.58A288.91,288.91,0,0,0,349.79,141.1c8.07-3.29,16-6.9,23.83-10.87s15.46-8.23,22.91-12.86a326.82,326.82,0,0,0,42.62-31.23l.7.72a250.55,250.55,0,0,1-39.91,35.61q-10.92,7.82-22.56,14.66c-7.78,4.5-15.77,8.65-24,12.36a265.93,265.93,0,0,1-104.92,23.95,266.29,266.29,0,0,1-27.1-.84c-4.51-.28-9-.89-13.48-1.39-2.24-.29-4.47-.67-6.71-1l-3.34-.51-3.33-.63A265.93,265.93,0,0,1,142.67,154a278.86,278.86,0,0,1-47.75-24.7c-7.49-4.9-14.83-10-21.79-15.62a227.7,227.7,0,0,1-20-17.77Z"/><path class="cls-4" d="M243,.39a272.12,272.12,0,0,1,11.67,40.74c.75,3.45,1.36,6.93,2,10.41s1.19,7,1.67,10.47q1.53,10.5,2.43,21.07a314.18,314.18,0,0,1,.91,42.4c-.34,7.06-1,14.12-1.87,21.14A187.25,187.25,0,0,1,256,167.53l-1-.06c-.8-7.07-1.29-14.07-1.79-21.06s-.93-13.93-1.34-20.88c-.86-13.88-1.66-27.71-2.62-41.55s-2.15-27.66-3.42-41.52S243.09,14.71,242,.61Z"/><path class="cls-4" d="M342,17.44a252.19,252.19,0,0,0,7.38,28.9,202.33,202.33,0,0,0,11.06,27.39,207.86,207.86,0,0,0,33,48.48c1.65,1.82,3.37,3.58,5,5.38l5.23,5.19c1.8,1.67,3.56,3.39,5.39,5s3.65,3.31,5.56,4.87,3.76,3.18,5.72,4.69l2.9,2.3,2.94,2.24c3.92,3,8,5.85,12.06,8.63A329.36,329.36,0,0,0,490.67,189l-.34.94a239.7,239.7,0,0,1-55.15-24.49,226,226,0,0,1-24.93-17.39c-2-1.55-3.91-3.24-5.87-4.86s-3.8-3.37-5.71-5.06l-5.49-5.29c-1.77-1.84-3.58-3.64-5.31-5.5a189,189,0,0,1-18.93-24,174.33,174.33,0,0,1-14.58-26.86,166.68,166.68,0,0,1-9.45-29c-1.16-4.93-2-9.93-2.69-14.93s-1.08-10-1.22-15.07Z"/><path class="cls-4" d="M159.54,372.63V339.38H188v4.75h4.75v9.5H188v4.75h4.75v9.5H188v4.75Zm9.5-19h14.25v-9.5H169Zm0,14.25h14.25v-9.5H169Z"/><path class="cls-4" d="M238.13,372.63V339.38h9.5v4.75h4.75v4.75h4.75v-4.75h4.75v-4.75h9.5v33.25h-9.5v-19h-4.75v9.5h-4.75v-9.5h-4.75v19Z"/><path class="cls-4" d="M331,372.63v-28.5h-9.5v-4.75H350v4.75h-9.5v28.5Z"/></g></g></svg>